<mxfile host="65bd71144e">
    <diagram id="HIP3nbAZw_EuaXWnEj3U" name="Page-1">
        <mxGraphModel dx="702" dy="477" grid="1" gridSize="10" guides="1" tooltips="1" connect="1" arrows="1" fold="1" page="1" pageScale="1" pageWidth="850" pageHeight="1100" math="0" shadow="0">
            <root>
                <mxCell id="0"/>
                <mxCell id="1" parent="0"/>
                <mxCell id="7" value="http://ics2o.mths.ca" style="swimlane;whiteSpace=wrap;html=1;" parent="1" vertex="1">
                    <mxGeometry x="40" y="40" width="843" height="480" as="geometry"/>
                </mxCell>
                <mxCell id="8" value="Summation, with JS" style="whiteSpace=wrap;html=1;fillColor=#0050ef;fontColor=#ffffff;strokeColor=#001DBC;fontSize=32;" vertex="1" parent="7">
                    <mxGeometry y="20" width="760" height="50" as="geometry"/>
                </mxCell>
                <mxCell id="9" value="Enter an integer of your choice" style="text;html=1;align=center;verticalAlign=middle;resizable=0;points=[];autosize=1;strokeColor=none;fillColor=none;fontSize=32;" vertex="1" parent="7">
                    <mxGeometry y="120" width="460" height="50" as="geometry"/>
                </mxCell>
                <mxCell id="11" value="Number ..." style="text;html=1;align=center;verticalAlign=middle;resizable=0;points=[];autosize=1;strokeColor=none;fillColor=none;fontSize=16;fontColor=#4D4D4D;" vertex="1" parent="7">
                    <mxGeometry y="250" width="100" height="30" as="geometry"/>
                </mxCell>
                <mxCell id="12" value="Enter" style="whiteSpace=wrap;html=1;fontSize=29;fontColor=#ffffff;fillColor=#0050ef;strokeColor=#001DBC;" vertex="1" parent="7">
                    <mxGeometry y="340" width="120" height="60" as="geometry"/>
                </mxCell>
                <mxCell id="13" value="" style="shape=image;verticalLabelPosition=bottom;labelBackgroundColor=default;verticalAlign=top;aspect=fixed;imageAspect=0;image=data:image/png,iVBORw0KGgoAAAANSUhEUgAAAeMAAAEvCAYAAAB2Xan3AAAAAXNSR0IArs4c6QAAAARnQU1BAACxjwv8YQUAAAAJcEhZcwAAEnQAABJ0Ad5mH3gAAP+lSURBVHhe7H0HgFXF/fV5/b3tS+8dBKSJKPYWu8YYe409GjXGGGsSNX9jSyzR2LtGTTT2GnvBiqgIqCC992X7vn7vd87cvbDsLgp+6iLOgdn33r3T5ze/NnPnBlwCFhYWFhYWFm2GYOOnhYWFhYWFRRvBCmMLCwsLC4s2hhXGFhYWFhYWbQwrjC0sLCwsLNoYVhhbWFhYWFi0MawwtrCwsLCwaGNYYWxhYWFhYdHGsMLYwsLCwsKijWGFsYWFhYWFRRvDCmMLCwsLC4s2hhXGFhYWFhYWbQwrjC0sLCwsLNoYVhhbWFhYWFi0MawwtrCwsLCwaGNYYWxhYWFhYdHGsMLYwsLCwsKijWGFsYWFhYWFRRvDCmMLCwsLC4s2hhXGFhYWFhYWbQwrjC0sLCwsLNoYVhhbWFhYWFi0MawwtrCwsLCwaGNYYWxhYWFhYdHGsMLYwsLCwsKijWGFsYWFhYWFRRvDCmMLCwsLC4s2hhXGFhYWFhYWbQwrjC0sLCwsLNoYVhhbWFhYWFi0MawwtrCwsLCwaGNYYWxhYWFhYdHGsMLYwsLCwsKijWGFsYWFhYWFRRvDCmMLCwsLC4s2hhXGFhYWFhYWbQwrjC0sLCwsLNoYVhhbWFhYWFi0MawwtrCwsLCwaGNYYWxhYWFhYdHGsMLYwsLCwsKijWGFsYWFhYWFRRvDCmMLCwsLC4s2xgYLY9d1WwQfTX83/WwaR9Dvuro6ZLPZ1b83ZfzY2+fXX58KFRUVqKmpWetaU/jX/OvNv7cF2qpcCwsLi/XBtxLGjuOY8OGHH+LSSy9FVVXV6mu5XA75fH510DV9NkUqlcLf//53nH/++VixYoXJs3kcH03L+7HCr/+PtQ3++ChMmTIFhx9+OM444wwzdmpT07FrOl6vvvoqLrnkEkycOHH1tXWN8/cN1csPFhYWFhsdyJw2CBS2Lhmqu2jRInfbbbd1w+Gwe+GFF7rpdNpc130F/X7sscdcWr/me1NMnjzZHTBggEn7pz/9ycRRaA3Kk0zcfG4sUH0U1hdqm/pkQ9JsTPDHtK6uzu3Xr58bDAbdUCjkdunSxX3nnXfMPR9qo37Tcnb32WcfNxAIuEOGDHGnTZtmxrAtxtGvk09LFhYWFhsbQn8hGuXyeoFpzOcjjzyCu+++21jCFK7Yd999QeYMMl9jAd15553Gevr444+x4447oqyszFxX+v/+978m6LfcnYceeijI4M1vMnmTv/IRyEBNWUVFRSgvLzfXBMX98ssvUV1dvfq6n8avY2VlJSZNmoRkMomZM2ea+KrPZ599hoaGBnTv3t3EE9QOuV+nT5+O2bNno7CwEIlEwuS1cuVKk1Z5qa0ffPABli5dilgshuLi4sYc1pQv+HXQ54QJE/Dwww+jpKQEnTt3Xn2vaX31XZ8KqoPq7Oft3/fhp1fffPLJJ3j77bfRsWNHFBQUrL6nJQBZpGqn+r45mua3PlD/XHfddXjqqadW11V519fX4+CDD14rP/WNPCaPP/64iaf+0zWNs+DX0f9UfyuO+qdpPn45/neNucaRiuDqsdJ4qH81PqKdDh06mPh+OmH58uV44403sNlmm5nrTcvQbwVZ+Rpf9ZnC/PnzDT1Ho9HGmBveZxYWFhbrDTKiDYIsDFl6I0eONBaSsujTp487a9as1ZbPkiVL3F69ehmrKBKJuH/+859X31PaLbbYwqTV/Xbt2rnz5s1zf/e737lPPvlkC+uFwtOlYHT/+te/rrYwFWbMmGGs61NOOcXNZDLuuHHj3KuvvtqlEHCpBLh77723O3ToULdr165u3759zafKosBy4/G4+f2///3PpVLgnnTSSaY9gwcPdimgXQpMd6eddnIpfNz999/fWHbdunVzKSxcKgXGom/fvr07evRo99NPP13dJ03h1/WOO+5we/ToYfph7NixxkLUdbXTh98mBXkcNt98c9O2448/3qVQbpG3H/f55583liqVBnfXXXc1lqt/b/Hixeaa7p955pnunDlzzHWVq88NgeJT2LkDBw404+0HjaH6zM9TnxRiLhUz00c+fSio/QsXLjTx1B4/DRUm9xe/+IWhoSOOOMLQju5rTG+66Sb38ssvdy+66CIzRlTqTDz1p+irU6dOZkw0nhpXtZWCfXUZ/uc///lPM/Z+3vLU+PeoyLjHHHOMaQcVGpcKkKG30tJS47VRPIWm42VhYWHxXeNbCeO33nrLCFI/iJnSQjX3JBD2228/w4zlyhRDPvvss1cz31deecVc88Mee+xhBIUYqpiphFFTYSxXt/IZPny4EdrKR+HKK6806WmdulOmTDGM3M9TddJn0zrou67rt19vCQg/rv/pCxk/jp/evybmT0tztbCR4KZV14JZr1q1yr3qqqvWyl9pbr31VtO+pm1Uv9AyMy5fX8lRfCkGc+fONfebQr/VFxLYTes3atQoI9x0n5aou91225n7fhxasO5nn33WIr9vgtomJUd18oWr30/9+/c396U0SGDvsssuq/umafwtt9zSlOuPn+hFyxUnnnji6vqrL6V8SUjSmjV93bR9Cv5vv13N7x9yyCHGRS5h7pf3m9/8xtwTjdCSNzSmcVB/+elVVwV996+Jtmgtmzw2tM8sLCwsNgQbvIGLDAuPPvqo+VQg08L2229vXKT6TeGJl156ybgUmb+5T0FqvpPJGlenn49cgL/85S9Bq9rco1DG6aefbtyviq8gN6TwxRdfGNe2QMsG99xzj8lD6eSupCVs4jeFfqseFA6glYgTTjgB8sqTYZv7Kkd5KJ4+5ZreaqutQKZt6uzfE2gZ47LLLsO9994LKhAmX0EuUJUv6JqCdoqfddZZpiy134fyUhn69OumoHqcdtppxtX/+eefm3IVtNFNLlm/Hoort/ybb74JWnOmv/z6KY766oEHHjC/lVYb6wS/vKeffhqHHXYYaHEat7Nffmvwy9OnXLi33XabKaMpdK+2ttYsI6itqv+4ceNazZOKQ+M3L52WMTQmfn2Vt5YVqMSY71p62Hnnnc29pvDzbt++PfbZZx9DL3/729+wzTbbmHQvv/wyXnvttdXLHSpLyxLCE088Ye6fcsopZgnFpy2loyWMnXbaCXvuuSd22203Q0877LCDoS/l0bztFhYWFt8pyGg2CLIshg0bttqakPUwYcIEY+nJRalNXf49Bblz33jjDWNdfPDBB8YVqPsKch3KdXn33XevvibXquL6Qe5rP6/zzjvPlCOrU65Zv5z77rvPxCWDNy5xCgbj1pbLUfdlIcpS8vN84YUXVqeVFSe3KgWtsZhkASnIIu3Zs6dxh1LZMO5pCmL3ggsuMGkUlF6uUnkDZM0p74qKCuO+9tuj4MdVkNfAj+t/Pvvss+ae4ja19OQulRvdt/DUdiohq+utOBQYxgL367TXXnsZS33BggXGGlWchx9+2KXAcjt06GDyV/r/+7//M+Wvy+JTWX5fyF3r108k4wflpTL1vWmdFPx2+HHPPfdc0wYFWa6yghXHj+fX65Zbbllt1VLQm7HUmN5www3GA+PX45JLLlmdn9px1FFHmTz8PvPvKcirojqofspPNOjno6B++uqrr0yZPp34bVfQb/WHhYWFxfeFDbaMtbFF1hCZmQmyeGRFkmnhwQcfNBukBP8+BS66du1qrD8KHWP9CCzbWIPaJENGaH4LI0aMMJ9KS8ZoNvf4v5VW8WR9yToWZEHJQiKzxEknnQQKGVB4mA1D2mAk6/uggw5ay0LVRp7evXubPClMTf3J0I2F9c4775i8KIjx6aefmjpPnTrVbKg6+eSTce2115o81B61XdZ6PB4311Tfiy66aLV1q+sq+/bbbzdpVQc97vP++++b+IqjvtR9fRe0aUsWmn7Lup0xY8bqvtHnK6+8YvLRdyo+uPHGG01dtXFJ9db4yLqUBe5vZpI1/Yc//MFYgqeeeqpJL8tUFqNfbnMof92jsmQsX3336+FDv1Wm7inou6CNbz/72c/W2vzUdBOZxsh/pE1xxo4du7oeelyOQtX8Vj4aS8VXP1JBMtdFT/rt10ftofJhfqvd2szm31Pb5XlRHKUV3VAom+9+HG3YGjVqFKhomfEQdF/Bh982CwsLi+8FZEgbhJdeesmsmZK5mXDFFVcYq0HWpm+JKlt9Kmy99dbGWpTVrE1QSiMLRtaJLDhZNdtss81qy0hWnG+RyKLWmqSuK90DDzxgrlOwrc7/uOOOM+X7QferqqpcCmmTRo/faB1S9wRZOe+++66pq+77efvly9L917/+tdpqfPPNN809P44f9FsboygwV9f3/vvvN2vfui/L/Zprrlm9lq4+0Bqw7o0ZM8ZYfaqLvAXaTObnLy+B+lLrpbLkKHTcL774wuShjUeyblVP9bE2Msnq02YjpVeQpazNW+qDn//85yZPrfcqvcpTfY499lgT95xzzjHXWoOuK428DvJ+qDwFlXXggQeu7gO///w6qS0aw3//+98mjq5rc5U2y2kM5HEQHei67h922GGmD+R5UD7yRCgOFanVddAnFYLVlvcBBxxgrGt/zDVW6heVrw1eWrtWGvWBxkBpFLRHYPz48aZuVBZMmaqHgvKWp0Z9r7R+3kLT7xYWFhbfBzZYGN92222rNz6JmdKqcF977TUj9JoyZQV914YkbfjSjmSfKSqdBJmYngSHL6QVtBNau4glaHzmq7wk5LTRS0xYu2r9+FIOmkJ5ahe07ql8bdoRs/ahjUbayOTn7QsVfcrFKeFGy9UIAaXz81KQUJFA1c5bCQ0JzIsvvtgIOCkWvgKg/lH75NL3hYnC9ddfb8qVMkML0Nzz3fBKJ/e2FBD1sYSLX67qJlfxe++9Z3437V8/rfpHisvjjz9uXK1yuWv3tu7JRa2yJOA++ugjU3ddP/zww8311iDhI0VDG6L88hRUD20Ck0IhhUPt0ac232lnu79rmxa4KUNB/aLd7n5/0ho29VZ/a/yee+45IxjVTuUn4S+3s+/+V9h5551Xj5WEfVPhqB3tfllyf6vvtfTgKzT+vaZLCqqjPrXD+umnnzbufcVVu3TdCl8LC4sfEhssjM8///zVQkDCSZaHhIDPKHXdZ9y6pjhigr7QEMOT4BZzloDS4zk+I9Z9fSpuUyaqoMeUZOlot7C/Lq10YqZNIWGtXca6L6Go3bBNGevLL7+8er1ZZWi9VY++3Hzzze6jjz5qdiGLUSuIcUuY+/VRXAkz7WSWAuJbukovy82vq9YgVS8/H5UvBq++ktCUMLrxxhvdmTNnmjV15aHg10tBZfrX9VuP9kiQNe1ffZdgl3Jx++23m8emfEEjJUmWnuLJ2lY/aOeyLEc/X9VBY9AaVGd5M5S/yvGDf3iHHmWThaly1fapU6cay133VAcpNX5bVKYEuNb6m+4pUJ82bbPqpGv63HPPPc1YKj8JW42l4kipEx00HdNf//rXq/NUPKXX96b56vehhx66ekwU/PVh1feuu+4yaTU2UqyU/7r6xsLCwuK7xgYLY1lGvqD0hYIvGBTE+GTtacOOz0B9hugHuSZldYkJaiORf71pXDFFvxzle9ZZZxnmKQGhR1JUpqxnCeemkMUpgad0cvGKoTZl3BJISqv7p5122mrhpU/lJWH9+eefm2tyD2sTl8qXNayyFU+Wvn779ZZrWBvG/PrLJevnqfLlNpVb1O8ftUvPRB999NHmt65LsDd1/yuOritIIVDbtXnMv6agtDrlSsJJ5fhl6lMboZSP4kk5kbXp/9anHinzlwlag/pM7n2/HKXR8sA3QemUZ9MNWuofPaokxcu/JiVEyoKfv4I/3lLuJLjVJgUthSiegpYQ1D6Voz6RwPb7TePq56Xfys8fa33XeKpufh8pyHvx+9//3iiNSqe8pFQ0pRkLCwuL7xsbvIFLm6X0WAnTNl7xNruQ4ZnNWldeeSVoAZpHaLSRRvDj6rNv375mQw6Zo9lMow07/n1t5tFjQ3qMhpal2VQjULhizJgxZmOP0qksfVdQ2U1BwWTy072jjjpqrXoKZLomva5r484BBxxgHrEZPXq02dSl9h155JFms5Aep1q8eLFJp41B999//+rHXppuOqMlbE4I83/rsaaf//zn2GuvvTBy5EiTtx5H8svVpjUKK1Bom/glJSV45plnzKlVtPLMud3a3OZDm8coeDB+/Hjz2+9v5aXHyIYOHWriq9/0WI9OqVLefjw9AkXBY35rw5o2cdESNJuqmvdfUyit7lMwmTrqMbT1geKrzqqfgjZzKb3GXfnpms6spkJi6qJHxv7xj3+YzWt+GrXXr5s2pAnauHXggQeurpPqp81w2nSlNII29J1wwglmo5s216mNApUnE5RG52vrEbszzzwTtLTNJjhtlhP9UTCDSqRJozIsLCwsfhCQiW0QZNHKQlJSP5A5Giv1qaeeMuuSsipktciKlrVBBmjiaNOW3NO6J6tEa61y6cpqUTxZebLWfMtH681KJ1emNm/JSpLVohOTlKc2Ycmt3BSyfmTlKE+t0frWlQ8y/dVWVtO66VO/FWTVyTpW/XVdbfTv+ekUVI6sKlmmOvnJ30jl56+gtH7eqpM2tMnVLdeu1kx1T+uVqqNvrWkdVWuwfh7yCqhfFU/5yFpXX8vd7+fvlyvLTuue8gromsr071PJMJ4DjWHT8lqDrmssfKtT9W7uhWgNGjelVXzVRx4O9Y3Wkv1x1jXfjS8rVRa4liH8fpWL29/gpqAlBNVBm8PkZfCtW93Tpjnd8/tBHgotL6geOtFN68a6rvxVnq7LJa1ydF1B31VXeXRkkQvKW3EtLCwsfghssDAWE5RAFNPThqOtttrKrCP7a61NGZg2S2kjjYSH3LoSQIrjQ/mcfvrpRijRKnVffPFFI6h9Jiymqc1GtEZXH3Oo61rb1QYnuTN1cpUPlS1Bo80+clXLFao6NK2TBIrqLIEr4SlXqZi86qj1SD1TrA1Fqoc2TCkPrU37glPMXfG0/ug/X+1Dm68kSKR0aNOS4mq9fNCgQUaQPvHEE0YBURsknHQsqJQYrbsqH11XGyWIJEwlCFUfv28llJSfhIbaqSNBtZas/KUYSKCojlJSdAyn+kguap1AJSG2IVBdpAConWrLtddeu9bYfR2UVmvqei5YfeILT7VJfS33vD+W/qcUH9VXSoiWAXyoX7S7WvShZQ+57BXfT/vJJ5+Y4041PqJHKUa6rnRyjWvtWWvWWm9XGtXjP//5jxkb9ZMUmt13392MuS/gLSwsLH5oBPSHVsV6g0zOuATJtKCXBMilR8vVuP90T58UCiau4uhAfz2rKjelXNS6pzg+5I6Wq7F79+7med9YLGbiKFAYGJcrhe7qlyDoulygFJTGDa7nkmlxmbx0X3WgRYfXX3/d1EvuYlo+q+uk+6qTnh2We1PlyT2qPOQGpUBYXT+5SpWP3Olqi56NlStbrmfVV2jeXrVVz0aTsZv0cpsqXwpdUw/Bj6/nX6kcYNiwYatfSiEoH7mWFeRa1elfglypevZZz0n7SwCC+kjPDCuobJ0cdeyxxxo3PJUZUBitVc/1gfpJQfmpHjrhSq54vw3rgj8GfltUpoJ+UxHBtGnTzPKDP85+PC0vqG2q78CBA1ePgZ+fXMt6IYTqIdeyn6/uUdEwfaB8NT6C7gmiL/Wx8tQY67rGU+595a2xUf9rGcKvyze10cLCwuK7xgYLYwkYoSnjkvDwmafPJAVaKOa64uqaPsU8/TU5/VZaP43uKT99Nofi+UyyaZWVrul1P61fB/1WHZozd8GPI+i6fjfP24/v5+HH8/PQNT8fv71N0TSun5/iNL2m77qudjQt3y/Xh59Wn03LF/z0uu73lV+egr77/bQ+UB4+1C6NmfJQ+Dr45Ql+/Zt+Kr2+K3+/Xn7w26TrzWnEz9OP2xzKU/X0+9Avo2l8v3wF/57gf/r1UR5K71+3sLCw+L6xQcJYzEzWqywcn3FaWGxqkAdAZ6yL1iWULSwsLL5vbLBlLPewbzVZy8FiU4QEsHao6+URVhhbWFj8ENhgYbyB0S0sfnRoSuNWGFtYWPwQ2GBhbGFhYWFhYfHdwqr9FhYWFhYWbQwrjC0sLCwsLNoYVhhbWFhYWFi0MawwtrCwsLCwaGNYYWxhYWFhYdHGsMLYwsLCwsKijWGFsYWFhYWFRRvDCmMLCwsLC4s2hhXGFhYWFhYWbQwrjC0sLCwsLNoYVhhbWFhYWFi0MawwtrCwsLCwaGNstC+KaK1a/z+vbPTza+s8LDYc31e/r4v07fj+uNAW49i0zKbl/Nh5xLra9V3gu867tXH/sfa70KbCWEWn8tVYEVyMiBOnme4iEwwi6GbRWpeGnDDcgIts0GWcBOKBOIqcYsSYRo1Q2nCeKYNpwAnACeWRcdOozK9AVWAlUqhkmVGE3ThKAmUodzugMFSMYCCMoOMiH3JZblydgnAuxN8O8sEsojlgmUlfzbgx1jXEejgs0TX//Mq6bp73CxB2gigIxlhOAmFEEOBvJ+jANfVjGfkIMpEcagKr4OQyaIg0IMEywoiyXp0RyYeRidazPwqYqerLUpg+wDbxC9vJ9gUicDNpVIcXIp+PstwcasMZ9HL6s8QIcsEMQpkIUoFaVAYqkWf7CsPFrFcJYpkwk6fZRQmwJfynBih/fgSYfyCNOqcKtcEKtr0ABYFiFLtFbEMIITeAmmANstkGZEN1CLE/ytxeiAQD6z8RNFgcRyDPPgvyq+egcZBBTb4SaaeO/ZNBwilBcaAdB95F1Clg/inkOHahQJ7fQybN+sDhP1IBlju1iOXycCJVbGu5GWeHtNQcsWwU2XAOIdKSw1GIR6IoynXkALGnnAhpj/kpHeshqNn5fD1WYSVWsc9yuXq2K4dgMIx4MIFSpyNKgp35nW3gOLuiMzfErmb5ck4xP3V9UHQWno9IOgaH5Qd4XfSuDvPorbHbSK/6FeLfIo5hxCni+MdJq6wzrzuku4jDGKwXyZh01dIBliHdhTjWlcElpI0U2xpDhvTusqecYN7QYIC5pcPMhvMuxLGJsD+yiDFPF4l8HlnmH2DeJSwvxHkUYH517mKk1cesf7tcH4SZPqoOIh2zko2lr4GbT5IKEpyfyzjutcwvj9JQD8Q4zqInzkJk8mksDSzmvIqyfuyxcD3nUQHU2gBpVfTktEJ7AbYlSBqKu2UoChWa9rrsc+XaAszDZV4Bh+3jnA9nxQ80jzSWeVQ6lajCcmSdetYggxzprxjtyEPKURAuQoT9rzaqiZE05ybbnQmxfLbD4TyvyNZw3uYRC0TRkXwnxDEMBNknrcBhL2dJP+FMEEsjCxDMc94xXSd0RjqUQyTLOcP+rXKXktXFUVmQ5BTJoChfiESwA+sSYfxIY25NQHrPigDJH0JOhm1NYQnrFiJN14frSOPl6OS0gxsRv3LZS63NsTz/ka4YYuQpIJ2oT/XPIXEG2Ff5QB1qAxnUZytRHawkP2kgbaYZvwAl+U4oCZHvBgpJSVHmFSJ9Ehy/bCCLSCZGgs2wh0nfHIMV4WXMM8txIH/inMmwf2Ose45zK8T50Ryalg47vyBUhlLyrDzHSbw3yjZv7GhTYexw4CakX8aTmbs4wTlgHECHBB2R0Gk5tzig/MNBDZEIEulS7B47FjvEfkmhq4YEEclxQMOcnNkIp2EVPs+9jXfdVzDHnYlaLENNqBoZ3i/MFKCME6ks0AWjsRPz2Asd8oMRIVUExe3cGJIsK+bkOehpEsZK/GfVHZgTmEwhwfxJQG6Tye93oBiDIRBOzqjbHv3yQ7F5ZCyGB0ciFuYEEtNkPfNSEpDEM/X34PPMm6iNp8joOLnzpTit8Aq0C3VFlL9dElI2FKQAaRTGhmOEDdOV0Jya/RCP1d+CqngN+44CvaEdziy8GD0ig9mP7ANOipdq7sAn7AM3FMC2zl7Yo+TXKMgVk1lK4RHDZa6mKY3CnkgHU3i25m58GHgG8Wwpto0cgt2KDjbMMBBI4svcBLzQcB2Fch06uwNwbOnVaE+Gt77C2OsvMUVOa3Etc4ETL7gQ/6q/EYucqZxAWRSmu+A3JZehW6A726tBliTTIFHp2YDJJVE3I/k5/lV3HRoKV1DA1JJWCgwd+UKuKTJkki5pMeqkUcD2jw0fgD0Sx1GoSBlkr+WVJkDG4JIpr8SM3Gd4O/0qZoS+wqr8Ml5fiYZoNZUeKovoitJgF4zKb4Od4vuhR7A/wmTcESpoUijyHFcJ5ADZW42zCo/V/hNz3YlIxlIUJGTwRlirVj6VsUz+i/PTpbCIBsrROzcEm4e3xbDocAr9QgpXMjjOIymT6qfWRsWhUpjm+D1cdSOmBz/i/MuwX6SAFJl+DrD9QZYjBqg5KcVFcy8rgcY8wxQYUkpCFIrbuD/D/sWnkd5yeLDyGiwKjkeAc3Dv2InYunhX0pDoLdSaLGYu9ah1kngieSu+cl5HnOXvX/Q7bBHekXNA9AZMS4/H4w13oCpSQYYf4fSuZjfwBmncpdIpxUHzqjlc0kkgk8B2wf2wV8mhKHRIo6LxcMuKSMCE3HqOJ9uW5RyjIM2xfQtIi28lX8DUwIdU51ZgZagCqSgVxVyYikYEfeo3w4DgMIyN74sRzjZUckUjHDuOUI5zJcL2zHE/w78qr0INtfribBF+0/5KdKAQD1M5awmOL+krx86amfmA/XIjeVkD2gX64zelf+EcLDDCtp4GxhM1d+LzyFuoj7rkEVH0Sg3CL0t/QxobSOXYiLi1QbKVUFNPZanwful8hv/W3M5xrUBDOIk+2SE4ruxSlKIL+QmVKBOzGUSGIn99inZJExKoxhDhtRWYg/HJN/FZ7l3Mj8xGXagGKSowLhXXwnwJyrOd0S06AFuGfoZtortQye/IucCEnEtpTnG1A+p78pr57PtHG67HqtBcc080mGa9YlIASIeRVkSXyYrzakvsigOLTuEcpqJEXvojkMVqX9sJ4zy1vxcz9+BmXEAFK6UrnAgkUGpIaVpGLZAr5OBz8pEY4pxkJ4YuxkHRM8nQqMFysGNkMKKiRdE5+E/yJnyY/h/q4it4L8PJRQ2VIjBASxm08CTBI5zQkXQBBXEfHF50GnYMHIgSDp4ElyyfIDXGcNahxbkI/1d/Kj6PvoskidbTAwVZdWsmdjxHy5carPRGGp/U7Jh3Qyn2S5yBgyPHIBQuIaHIyqDuS6q5qfZsvB36Nxm3rAOHwqc9Tg1eid0KDkcBNfQgiS4VzZKZUVMVMbId0r6lL0jrfjZ1Gx7MXoO6aJ0h9va1PXB14UPoHxnBKiRQG6nDbQ0X4NXwA4bp75U/DGfGbqa9LW1dNo0EoghbtZfmqSsOrel63F59BZ6M3kqFJIZD3N/huMTZtFYSjOfio/Q4/D1/AmoKqgwDuLbgRZQHOrB+LZlca5BWTZXECAkxe5XtkpFPaZiIa3OnYGnhXDhkdgFa9ucFr8cesUPZfjIGTsAQaSZPASpmt36lKfccPqt/E5flTkIV65yi4Cmk1SFh1VSp8pGRxct6hdwUirIlOBC/xQmxS421ETDWMC1JjvWyyEo8kb4Nr9Y/juriCo5phr3DMSKzjuRpLcqKptIV42eO/ZjIFOPQ+BnYPXoc2gc6inpYjkaewoTZrsJS/D15Fj6KvYgU6V/MTQgaweN7Y4ASlp0lDet2jsIlwnulVC4OCP4Gh8XOpOVYaPqGI8t0JET2W3Pk2I9JVOOvladiUuI19i9pkIQVIjMMkBFmOR9zVFzDpCPRTpQmtkurLM/2h/MRzkN+Mp9QpgT75I/CaUVXoiHYgPNqD8K0go85PwtxXO7POKToZMTThciSdFrlhxR4telaXOv8Ae9F/mPSnRW6DrvEf2G8MvICvJ17FrfkzsfS+CyWSctLFjLbFaWykqOVHGSdWlOqYqli8oMQ9k2fgBM7XISE245ty3H6txRUoskwLUVNBtFa1mnAe86LuL/mMtRT+K+icpTjnIvLK8ZPJxdhX9CSY/8HgkG0r+yFI4p/h58ljqTQUUsTvM54FGmfpz/En9IHc76k0K6uHLeWjENXp6ecWy1BduxmpCQG8W7wBfwj81sqvRXo7gzA3wueRnunC/sgguWB2bgueQ4mhl4hrXhzt1ttb/yh4Hpshb1Ig60IUnaRxlK0kebY31R9EV6IP4gQxzLFuTAktTkujz+HLm53MzupP7WAEXb8I6XGCavP5ZmI05JPYxY+w+21f8WX0YkkjCryUBI1DY8QxyAqxYkF56jw5R2HxlQZtkjuiGPLzsfAwFAjQDlinHPyXkjpjmCS+xquyhxPJZ1zi/nIe8gIVKQ596msJ5lXcwSdBOdSEHtkD8fphf8kbUSR4G+T/UaO0F+Ixu9tABdzcl9hQvB1sjBOEhJwp3xvlDudUJbrivJcl7VCh2x7lOc7o122B+P0xLDQ9ugTHsRJFCLpZMlEHczMf4a70n/GO8FnqIkuM8Kvg9MZI/JbYpS7E4Yy9MtvTg08hup8DS2QBlTE52FWagopJYNB0a0oqChYDQMk0XHwk7QwX3Ufx4LYbMP4NssMR//MYPTKDTShd7Y/euX7spzuKHd7kGknkM0lOXmTWB5fibm5abRY2qNvkOWqrmTOdcEajAs8gVlhWoEUDvmIJkQO6VQGOyT2JRHJuiE75ZxS6yQ8AyTSAK/JlqoKLsOzybsxJ/4lLYUGI1jk/t4pehDa07IOMZ40849S4zAnMp2TMIOe7lhsF9qLfUILnoTvuUA5uYxAYv76yT9ZCv1Psi9jauJ9Mh4HQ53hGM1+QYhMmgxmkTML7wReRn14JcrQGXtFDuXISdFQPt+MRuesYSByJDhsV4ba/+v5x/Bx6FVURKs4q7JU0OqpwscwPLY1Cl0qSay1PBcaGopl5WDy+yZI3M3FTLwReJTMoI7972BQdjhKSWftyNzaiaaahO6ZLuiU64WO+R5on+uGwaFR2Dw2kulYPsc/yzospgXwaP01eMl5BA0c45CTJaMsowW8Lcbm9sUoZ0f0dTZDwinFKqcKuUgWNbTs5ma/RFWuEj1Cw1Bk2qQxTvOTYpsW9TvOs1gUmWUE12bJ4eibJ51lSF+5AeiZ64ceojPOkfZUIIO04FOBKo5JAxXGOlqWX5L1F2BQcIRhblQNNaoaYK8jmkCKsDAzPxkZt47zqQNKtGxDS7ud6Jh9kwqTrnI50heFCOdQ9+xgc71jthvK3G6cI+15vReGYDT6J4bRYnPwfuoJLElonkQwMr8jhoVHGxdrljROW9KU2RRSfLKcX++6T2JWZCqnXBzbhvfEQIxh/QOk4QDm4QtMyD6PJIVinhZjn9QoWpadyCva07JqR37A+nDcmvOL8nw3FKMDNsdYbJ4YS3qjMkWyCfJfc0jxyVPBkWDPUYZ85r6J2zN/wbzCr9i/DsqopA/JjTLjunl+e873fqSNzoybpRJSi5rCCkzPTaUg64G+4cHG7W/c/MF6rArMwwukvUyslgIlhP1ihyAaKjVCtTk0JwONYW7+C3xE3pikNd6O7dwzfAwSgUIq+SFUhVdhfPoVLIh+SWuX84dBLvX2HMfNI1vTKJDivDaMCUEFIs95tyg/F49mLkddjFarlCzygw5uF+wdOZpqrmhSru7GhE0gV7Q8JKIvGUDhTIgztxbjyB/vSl2MqfFPqOykkKD21Yc0Oya9O0YFdiCNbM3x6EolhmyWfBahWixIfIUZDV+ha6AHOoZ6slQaIBxvR7TLvFfkaWWTD1VHKk1f9csM5Th3QSF5TpFbzjHu1mLM25lxb8fyyO8jO5v8tMzHL6z9+vGLtkIbW8Z5PO08iHtzvycjqsGAzHb4deEVZILlhhgN+OFXUOuieU5s6eQiH05FElApiSJOKnGwMDwLd9dciXGxJw3/Kalvh12D+2KvIloi1PZKguWIUaNtCKZohVRhdmAinqq5wxBQihOlc0MPHBY4F3sUHsIB7cCJQaJhPlVuJf5SfzI+TrzHiV+M3wT/DyNj25E5k3g4wQ2Nsz5y4cnyzlCr/jTwJp5ruAcLI3MpTzLoXTcclxY/gP65oRQIedQFqnFj+kwqDS8ZQSmHnUPFobShI/6v4CEMC1D4kQmEpOnxnwRAKNBgNL8MJ9S0wIe4vPpkLC9YQmZZz7qEUVbXAVfGH8dmkZFkhgmWUYW7Ki/Ha4n/oiFci5+nj8fpRVeQRZDsZVUwf0Oocr+qg9XXnARJ1OHO2ovxbOIORDipDs3+FscV/sGsC7o5Fx/mX8T1udM5SZZiQHprXFH0JMeiM/t8/YjdZV95LnFa/PyV5XhoPf6S2mMxNTaBwlmMoQCVzlKU0CI4L3EtxmR3YnQyGCpHSu+tZ61veVl8mn4eF+Z/Q8FZxT4uw9UFj1AYl/JuyzzCZGxiTlquSNE6LgsVkvH3ZL14k21ciQrcRwvg9cT91PIDtLio5ad2xoEFxxiFKxgqo9JF65HKUJ1Tj7nO53g8eT2+iHyImnAGxSx3//RJOKL0HArAMtaPiiiFfLWzCFelf4tPI2/RKkzgnNCNGEwlQIxdypW6TBZgjnQWlJcn6+Bz0tnDtTdhdsFsOJEc+tYNwR8Td2FoeBTpSu5bhla6KYV6lhHDotAMlt5gystRIhm+RfpIcz7eQ2Y9LTee45PB3u5x2DP+K1pRpBkqUG5AtC8fT4DCuSNisRKmqcLFtYdjcuJDWrjtcGTuAvyy+FgUZouQj0mVail8SE6ocZeZufB69BkUptrh7NjfsEfoCJajkY7jvfwTuDV1DlbFV6ALGfAfEv9CMQWxFqMaqDAk5FpnTZpDnokMeUw5qNxTKHOKsE9ozWpsm4PJJXSpaqHWrcZ1Vafj7ZKn2RdFGFQ/BMcW/YFK6RganAVUQqhE5SmAA7WYGpyE/9bfisnxjzk+OQyrG4Pzy29Fn+xmVJC1pFRDIf0xzk8dhYaCapRVdcDNJS+iQ3Ag4kEtQ6wNKapavtNcejf5HG5x/oSV4cXone+Pa+PPojjQkXMyhIXRhbip9hyM59yTd87REhIHb7PslqTtJ9nmLo05rkGOucPJmDn3bOZB3B38HdtMXso+QT6KQbnhuCrxOFtcwn5IsJ9aEo63qELlkUpTjnwomKUFH3gW96QuworIIo4n6aG+Gw6NnYEtE9ujONSJI1iEQC5MA6QaS2jRT01+isfyN6MysoB5RNA7NRhnFV5JxW078iV5PRhoCU/Mv0Xr/3Ssii7huPfCqbEr0B39WQPt22BltF+gGaRwSWGL50uoGHVDOip+keOINyqmGzFa8WX8cFDXJHJZTpooCSJGQi9Fv8Bm6M3QPTjEC+Eh6NEYuoeGomdwAPoE+2OguzkJjgwyQGEc1KYjF+9nn8PE0JskpDit6O44rOC3+FXJJRiMrdAh3IuaexkQjSFB5toz2As74wAcV3YBtszshnA2gBXRVXg8dzMWUMOVG1mbBOQWFuuXbuBS49OmkDJqqV3Qmxpdb3QJ9EIX5tU52BfdabF0DvWnZjwUP3d/jQNj55ExFyNCbbgmuAhT0+NJKGIIOUTZZgXq4WRiDgqc9iQXF5lIHaYk3zOuFod3KbW8ziK8jSdaXcxhYuV4rIotp2DX5AgiQqs4LG5DhqANXPJryxGtTU8BMgSHTCtCBizCDHAiadp7w9+cBDQqDi0ZBVlP1NKlcBj3O7VMSiS5M50QNWxqsFrL1kaeDYEsTMP9mI8rRsJ2zk/NonI0nUw+zck5EMNoYWrzy4rwfExpIKNjOVoz9/4yvaq/njCbxKh8RHIliOXlEwigM8euZ2hz0sHIFqEzQ7cgLVLaZ4MwAuWu6CzKsskEUrSa8q/jg/CzFGg5lGRLsXf6lziz9DJq4jugJNyOmnshLR+OR7AE7UPdsGVkN5xU8jfsWH8cYlQeHdTgvcBjmJh+G25aa/Zke4bO5Pp0SAMpZMIuWWJHqjh9SGN9WCd+Bklv/OyV64ke7kDOj4HYJng0jiy7DJ2z/VkXbdirwpfZSewebXKU+7b1jpLlKnrq6vYnJY9AV1pznUMD0Ds0kP3Sj/0wiLVJoDZaj1Q0hRgtst7BoZybm6MX52EvfnYL9UWXcA8UhctJRvIYaHOhtydCm8/kzcmIa2pphoJRNWkewo7c/qQjKj6yiMyGLCoxeaPYaamAWcvLQwU2GSHNce52I3/ow5HpGRjIz6HowbHqHhrUInSKdEfP6EAURUrghik4NIKsR2sQfWmRRu7Rue40zHQ+oxIUQUlVexydOJd23W5ox/6PB8rJF6hoRTugINIL22BvHFJwKro2dDDzd3Z8Ej5LjjcCTnM9zHbJ5RvgvJSwdkNUYEKJxuWsltCcVV9p3d/zblB4Mi9tKNSGQTPV1Bb2ifiI1u+1ulsk44GxZwanYVbuK+P5cPOaX6IE8hwzc+T9okXr1uOL/Ido4DhlyR+09Begdc/RYkxvc6w267UGIwQ1nzhvNROrQpV4ueExLI7OIWeMYmBuC/y25EbsnjgBnQLDUOp2ZV4liJAPlqMbhrrbYL/o8Tg+dBnaZ/qC5ILFBZ/j5Zp/UwmqZ+a0uvNUF1jPDGkqGUuiVm0PRjkb+pPuBqMH6bNrmPzWlxFNQg/y3+6UEeWRLshH0hxvhwJ+4xfEQnNO/INC2p+CJlmYnR+nAJS2rcUUuZdNMBqNF4K5uBHcWleQti83lkvtTGsYizEPrzQ8jXR8JRkNsKt7JPaIHYWiQDtO6TjCeTIEErOsJLk8gmYHcoTCf7iZbD1TQ41FVJVYjLeSz6Kegld6v0MGI+EjW9xs2iArz4blFNfUo7XCHswxaOIFpCmS2YuRBCNhbB/bCZ2yZYzvIBVJYjkWMj8xhTjrLeLQBhT+pckzIrsFovlCJMM1+Mr9AFXBlSSiEmaqzRzqLE5E5p3lZy0t9XfcJzgpc+if6o9CChmXE1bxNHG1q9XrH7bAeBI4ZclYUmFN3DCoLDJ+jn0il1ATYc/v2vmtdGGtrTGdXMImb23oYWXFy8TktU6kHZd5CuWwGrEBkPWl3d7SrMVsnXy9cbnXU7kI5wowPLQjxmIftkEMqR7vOs9iSWgBa6OdnCzbWNUK6wdZAg77LRutYbKk2ZAkQa91OXkfmodwjoKUY83BNMWETD2kmDioj9ca+qgO11GwJ7C1uxP2Lz0BHTO9EKKlqTVC9Z9250fZl7LgtRGve6AfFb8/YPPcVqQVWtfRpXgv85zZuGg6mVXRxh8pO6LrIJmp3Pdioi6ZUp51ETP3wPZ4A4MwGeqY4FgKyf7GsquJVWAF6SzHsZS1pDq3BrmOA6TjMJmc5kGQfRE33gCtGQeZPkg6KeB4a4ex6IEKnGhGfcGY6roIBU2cAjvHCUfdzcxLbaqh+sY2pJi+cd+yvBmiucbACGtg6I9tES2QRjX9ZZ9KcGYp9CREI/IKsJ6mHswzT0teT0rkAgkqN1KtVIT4QrPgaN0+ZsYPtOTN+Jp51xKqc8AIoDRWZWtQG69j2XnE4gH0j2zDStH6Vp9z/igPowCbXyFsFt4Rg5xtOcc41uQTczJfUSmSCi9vl8af48aJI71ItAjNJVPrdYC3PNVFyg37hXlq34CErbwWUm6i7Gu5crXjWkxoCwq5CIWO+NtbqSfMUxS8zT7Tjgmz/5v9KzU2gMW5GZjnTGF3xNAj1xvFaSpTzFk7xGX1atya8oW1wHLlpRMfc6hIfUEDY0r4bVZB+xaKcED8RGwZpnFDqz9GhqQnVcJUQOTyDlHyhjiOiXAJdizYA0eFT+cc8izsSeHxzGsi0kHOB/aPhiJMHh1pNEqMkqIuYwiSToKkbfVF86A+0r4S8SS5qDXcSvZjwIZx0e8YIrc0B0g6m5knZGB6CEUkq52azYMePZKzRQuNmhf6pd3Legzpk4ZxWJiYaZhXSaYTdknsB+liYpAGjO9Ne+1DFRPOGsKVy6lHZDPsGj+SxFPAOw2YFhiPmtwKaqckfFOKBxGogoSRJpo+gyRITZYQv9dEGmjR8DeJRRpoYYaKQLCQMSO8X4SUrAMSWoRpxFzV+RJw8WyBt1ZJKyXH60ud+VieX+BVmLlLG5Wb0jABtmNmfhIqA8uN5jsqtBsZjreOrE1R6pg1Nd44IVVGCkKQzFXK1GJ3DmYEJvC3t7Fjt9gBGBbZEZ0aurJtISwLzMLHqVfYQrFMqkBm/NfBLFoFe4TjkciRGfFrntZXisxD19S3zYO8C044xTI8Yax6atwlLOdkpuBLdzz7OoACpxxbRH+B9u5QsynICenRGzEJplOZjVD6KIV/+0hH7BE6hkymHPloAJ8G3kZtcCmFjeI3AxleiEqHhLn5lGBXfflZS+W1Tl4LXtdub7FobfhLhygg0qX8lIWjq+rjH36Ky62tx3i02Uu1kOWVptJhvDQmUMDLAmJI8576Wf4e8J4ES3odVZY1JqUyQvrRemWKTMMz4GRZs7XNQlbKDOuhvQkiF10za56tQHQhpVMSLJylmM16ymoul0KNW8H0LEiKHMc2ntImIo0JE1ErKXY7YJvo7til9ufYM3sMRgS3Mxa4+IzrMk9vIn8vyFFZirK+W7L8GK1jPTo5yXkbFe5i035ZCZo32usihUeieXbgC1QEFxv3fs/UFqR5ozKtH0x/C+x/9sfLtQ9Rya8xj1sNcrbA6PCe5FHaNCVeJ3WlJeROL8kWYpvYQRhAtTtPgV2VWIIp7svMlQKVdBxm1waNASCBLGNMyqnGW8ZGhuOlcVS/rh2C5IWaw4FAA1ttVCxNkx8F2lQYq4/CxqSUS1S7FXMcQOlxYmUk5GbB7IrmxJMrSexLfMahNp8K1uELjDdalQZvqLsV+gYGkyAKzWMATNwIDY2aTJYu/wgnZ9wtRJnTDluFdkWHfDfmlcfC4HwsDH+pYTSpgo3qvBhyniO9ZnB1fc1Il2SKySi0C7WelksaXwbHYxX/BcV83Gp0DHQxeareel7XpVBRFhFqh+2cjtjcGcsJHsHy4CJMdycynhiJl3dAlhLbnmaaz3IfIh2vQLnTGVuEtkJUuwtl3cjNZCZWE+r7FoT4LZJsGNgu4x3Q+HG8P8m9h5UxKh+0hPoHR3Ls+qIs0AG7Rg9hHyWo4DTg7eyLqNRzz5z0EsQayfWF8cCQLjRJpbKIicagZzM1XVvSmXZuaoExQCagzTHyAGhne97J4MP001iRqGR+WSpQpRgZ2QFFFIQSKKINU54aJjqVWk5IcEdYvjZXDQuMpNLVBzkni+roKkygEilvhwfF99slr4QYORmqEVQK3u/iVMIwq0wsiUwoiRX5WZgd+sLcz0Ub0MktZ1tpQTJNYxV+QMgjQEVCnijWQZZjMB9jH9BKpxXbPGj/gqw3V0shbFOQkytiHh1rCfWx3L9SPvXYU0Qzgp8aRY1R8xAjb5GHR0q3G1Lf0S40Y9MS3k5yjqNbgB7xzigNlKAukseK+HI8nvwrJgfeQtKtJ98hk5cip/GmENG+iyjL2S12FH7f/lacXnIVdi7chxa7rEw2SC4E4vsaB+3Sl+Xf1emO0VQCnIiDldFlmJGezHpS9FJx07kIZn2flUiSbidk3kWKtFeW74iRwVG8R0W/eb+so77ejJGQDWKFOxefF3xg+K6Mjx3De6EsVy4vOvuffE6PvbQG1kP7Y9q77TE2tCf0/HEqWI1pmY9Qpz03HAs9rywjRxtWNc7yOmiPg55wkcjIcDzl2VKQ91Lz2guqY9y0R2lVW6OJ/QjQOmX+gJBjRy6FMDtZGzz0BG7aaTCPXTQPDurNxpOkQ+2aE16CSlr0KizDstBcToCwcXOOJFHqWU653gxR8cPsUjT/yMh5TesxEmBm7YP5dHa7oEugBydYAPUU+nPzU5iIVGWIkhEah1nWeYb3WUvjXtHmqxwnux5Yr9PjKNQIHTKXOcHJeCL1D6TDS1CYDaFjqhyj4lswv5hZmdFzpmKWUj70GQmq3tujPNfJrNFNyI3DquASMgcyYRYvj4HYSgWW0jKbwDRp9M1vYXYiSiuVReZoRzXzbjqPfKG1wfv0WuMerVz6NiDb46TScQ5ApbMcE513kJSGT8Y6tmAvTk49gxnDDgX7sj+0kS6EOeGvMC2nzV3S7dUn618ZeR+kpbObTAjki7HKrUQtalqlswzqkM+nzS56PcuhQ1Dk+pfQnBaYRDmdJgMMoj+GojxYhECo3vBcWe1Ul1ii6qYL/BRxmXv8Qy7SPlaGnvle/C0N3mXbx5OmaREqnoHfLjnlJXqNKCGted/1maVyEtQjelQO5rif4j81d6AqtMish5dkijAiNIrZmYYyxQaO+7eE2bzH/yrNWOPst4bISizGTFRiEft6CZYHFpiwLDB/dah2akjnS0nP9aRgKp9U1LS5sHWIziOoDdajNlRFTrAcVVTQagPLKSKXtQgrGKOG8zNJviBG7a1z+orP2jD9pPnOfuscGIitogejIF2MBFO+FXsKV+TPxOXVp+LJutsxPjyBluVSjkU1U6XhakdbMEqeU2AUrkCQQiDCPjCjrh5R3zB8DwhSeZAiEQ0GsENwd/6Okk6ymIpPjeWalnXJJqt07UeoDK7EJPcTkkYQg51R6BnuwTuNdWsyp9ZZW+Yhwa4lOrm7a2JVpoXRfALDo9sjGGZhvOAEU+xpKUAtofha6guEohhAxbs43478MMbRXIKqwBKWwV7jPJf1bea7liRCAbMhtYF93kCeqDmTooGjkFbgvFWoCVWQf3Om6HllZkEybCxx44copg3hdVKYGo9cWjNDU3BPzeW4ueEC3Fp1oReqFS4y4fbKS3Fb1QV4oeEOTsZlkLIb5qAk8xLQ1dRS0xTsMfQr2px0xellrBqyMrlrODJy96124upDFMfBdsM5xCJFKAuXGy3SCWdQUbeMzLeJRsX8ZBlnOWGnOp/gLecZvJl9Cm9kn8QbuafM99fwDAXwnbiu/nxc0nAqPoq/TeLJoijZjZrzKejhDGC5shLEVsWbPXe1XE16xGNQdATapTpzkgfwRf4zspP5bIfWnVQPWV8OmdtksrYpRosfhO2QCHZEVG5bxpDlbCbRhgreHxja+S2XoNZHF4dmYm5uslkb65brj8GBMRynGGnCRTkVja2cndguB8lQNT7PvWU2KAXIeDZEyIgWzKEyGn1aTA3xOvyn9ircWis6axluqT0XN9edh7sq/sryakxJ6lJttKsgnUU1yR2OF61cEZEYvTRw40rmL+PeNiNBmjH/PBebLoWcInSKUOnLa8lBj4lNIp/2Ns6sDQeTaI294fyX9PVf0tej3mfuUbzlPo6n8nfgxtR5uJZteCvxP9RGGhDOtMPPckdjcHg054LW6Wh9rpOrfn/QRreagio8nr8dp9cegOMatsXJNWNxSs32LcJxmZE4vWEvvBN5kww6ghQndUC75FqB1JPlkVm4s+JcXFtzCm6sOR3/qDoD11YzVJ3dItxUcy6eqbwb1YGVCOY4RhwWbVhqDVoOcagE6zGzGArxy/gJ2KvuCMRyZRzrGJZEZuLtkufxcPhKXF5/JM6p2w+31FyAN9OP4Yvcu1QKllP0yEjQeiY7nUKdpOYpRd/jIATlOhevI+X1dYehc74vDYZafEUeVcV/UeOBEu0xuBl8lH6RdV2MQLYAu0T3RoTWqVc/P/hfxXNag5Q80jX5YEW+0iiAUgBkzBSEuvB6gYlilvGMBd0SUlGkv5jDm9xOKKQgFwerDtZiVW4O66l5Q1A5kMGj3/ODczln/46b6s7GLdV/xJ2cp7dVXugFyonbqygfGJ6tvAmVgcUcaxkm4p2qbhuLufVEm9fSuKU58FprXR5ZjDdjL+B/BQ/if8UPeaFIgb8ZXkrch3HhR/FR4GVqQ0mT3tv1R4YowcaB09GVCVrFAW1GYfM8tzQ/jemiuI3rI16yxmseMy3I6kg/rU9Q6yKRm13E/CWbXa7xoOpJbft59z5cmz0D17u/xvVZhszpuC53Nv6ZPwl3hv+EVyL/wfzELMSzUbRPdsZu8SOxR8GJzFvHFnqdLoYdNG46lS9SjJlndrekdSzLoj62FJ81vE/2Q8FNilL9dFDDx+m3UBdahVi2PbaMbcXJVmwYb4ATTZvCFM90iRlZ6q8keLlPjXLCf9I2PQXYE0zGlUNhLvnhOt5GLSO0GOQO9CaxXEFMZHa+/v/DHDzANqZomX6UehM14ZWIsX8HOGPQI9AbGVmaLNO4dcM701JKsD15fJZ/D6toZxnJaNqzflBMnRSkbTESnelIJT6OvIBXE/9eQ2dNwmvRf+OVxIN4M/wkMuxXbV4Sc3BZ46w0QNZdYle7jQMuA+spbV5dFGCtG78QUv48GjQeCjMm2vnaie1lbqR5hxaeXMqiAFGaYgraPfuYeytuzJyDG7Jn4vo0aSz7W/wtfxauwKm4P/9nvBr5F2YWfmHcwe3qumGP4NE4pORUKqglsruZpxiSKfR7geFxLNv7J9pQT5MF8rp2gzcU1KKucDFqC5YhFa9AQ4IWbLNQF6lANlppmHeUdE5RTPpVnyonb4TNFOUf/aujBf1Rwet4L/4y3o69gw+jr+G9gmfxbuFTLcL4wifxeegNJDlnxWdIMuwR8YWWUBHafGfKJK10RW8cXfYH/DL8W2xetz3Kk52M6z0ZqkNNYh4Wxidxnj+GvwUuxNXpU/HP+t/i48wrtPJXsSd0hCbnrRRp5pfjaDjqLAlq00+ag+uyGvlPc07KGv/JBjVuW/aN+JsRvKQ/k5556rFAPV4Z0+lW0a7okxtiRnyB+wXDbM5r0r4sS/ZCA+v1uvsswkEdm7sZlf9R5EeFhv4ECS4pEOoCz8fWEmaEyVO0hktuwXZ6m21jAfIh/jO0LC8+hXLEEEhLqAj1pfohFipiW2RoaP+IfJ91TOx5vsz6PhmT1r5rw6swIfYy5cOTeL3g33g98VijbFB4GC/yU+GD6Eusey3CrJMmnLi9avtjQOu99YOBrIsWXsjR0OcRJ+EUZWIoThegIFPcIoSDxSS6dhxwnVOsnZYkWv2nheEJFlrYHD9tvBBRaPuLF9RMDsjqMWk6OIrnWTRhTsY8gwSaNmqYQzYaY3ibQhpTaFd1LmommNzWuRhJPVZDRl1v1r6T8Vp0SHfC1tmDcXHsHhwVPxPt013NASKyzk1pJDwj5pmHNGlPMEewXcnPUZgrpaWYxpT691Dn1pqH6GVF1WIpJvKaCLdnfgR6RfoxTcgI4zWbhsTYPRiiZ6WNkCZhS8ivuetdM5HUMP5XWyWYFUOTzt/YoV2Kpg8V/zuABH5Ij3sFKvGK8xyqI1nE0x0xPLwlCtkPOrNZZYk19osOQnmwC6d5DZZmZ+HT7IfQOdueJGiGdVRPrdZ50+E8lTQ1jsyoiOUUZQpJVyUtQjTbhaE94rSKpD2Z1Sgxc/4T83EDpBHWL5DP0fqU6uL1nfenkd7Md3149KW/QjCYRYTjYXamM26WioasGg++KBZNiz7UF1GOP/OMkKmGk8hHdPSplMJC1LDfCpwcdk7vgrMKr8YJiXPQQacnMRPPC6Tcvpsxawk/78aWNU4O0Vo0x5qT2bYjzfduGIquqaHomNoMXRuGtAg9UgPQJd+P7YxRycwwO605+zTqQfkraEe8loVi+UKUZ8pRnG2H0myZ2bBZlOncGLqsDu1qepGXtEeUCpOxDuUpW93XzcDq63lukZ5Z63YKzKNeh0RPx1/L78YFwRuwe+5g1ncYOtUNMHNUz3E3ULFbnpiDt6P/wz+SF+LF5L8ppHQmtcS6lHmOG+ttBKzhSRrXtdvXHJp73l9yIY6vUmgOChLu3n8vlukb0pI4QDxQgMHxUaTzAjSE6/FxwyuMSKOCvEHK9MLMXCzMzzN5jYzuiOJAB/JLLXkwJ/Y7q2fyE9YlwNQqVV9xJTR1GhlzR4aKvOG7bKu6Wm5sr4atQ4Jf+1v0/K+WBk2fcNpkHc56MnGNg4SxooWp6Mp61obYwmS5WaOXJyORK/ECjSg/xDJliOV0wiDTiy/6nfQjQCsc7YdFSo8JsdPCuWL0z2yLE2JX4bzAPbjYbRn+ELgTf4jegaNi56GcDNM8MsAJJrev0YHIKLNRuUc2vGFymSR1oDmJQgNZ5JYw1xTH0dNkzYCSAqO0hn4WOhAnRy7GCcFLcEzwjzjY/Q12rz8YpfWdTZwiEsPW/HdE0W+weWQrFOd1VGTIYzIkMJGqeazGh4iRQYX0dbZgGML7LhbFp2FBVjvEpYHm8KUzHktjs8z6zM4Fv0TCkYtp3TBs0heoLNYT/LKiOaXYSK0je0TLoGhUcPRIiGEChoFoUkhwaKqbDjB5/f8ilKMOHa7CJ+lXUR1aREsxTjqgFRWuxjv5FzAu/QI/n8XruWcx25nEsSg2zyMmC6rxeu3jqAquYN3E0NavPsY6UQZBeVNCKKKidHT4cpwfuGsNfeFeXNIYLgrejfMid+CsoqtRmmvnCTaVx/7RhkA9A67lBeOONjuh179f9FRAjbvc0Jn2SgRQTuVEloCfi9fn8krs4R6FY4MX4ejQn3AULsAR+D32qjkGnVLtKGCSKEsVYSR2x0HFv8fY4M85JzoxP7lHI2ZMJVQ2oGrfGQKhLIVgMfZ1jsE/ip7E7fE3cUvx67il5OUW4c7Ee7gu+gy2T/8MeowlTiEui6s16ES6/snBOKfgeiq59+LPiXtwUeJh/CX8H1wWftiEv4Yfwl8jXri08E4cX3wOuqW7Gebt7alovUMkrLXrO8/x9c7ipnhw01R2OiCRp2Id3w/nJG7E1cWP4bzYLTiSlLJn7hAMTo5GSaqTHrPG0uLZeCx3A15IP4wGCSrmq7HU7n8JG1OGhJ5EJ8doXdC8FX1nKeikDKouOlLSE7mCPHmCxL1oM0/rOUXeVIiR4R0otDrxt4NPnZdQHVjhKaBM+4XzIbLhGsRRSsV3B9YrwbSt9/W64B9fm+ennhvQ0ycqPx+jQq1lEQl2TgmHbdZJfq1BYyD61CJjLqs4VGjVX8wnEepEPsk5xnxEvmq7PFOd071wdPQi/CFyOy4K3I4/4j6OwD0mXKzg3m3C8Yk/ogydqLRKiWEhpqNMB2z08Ma2DSFnZYiEpJ1zJU4Jto3ugW1i+2J04R4twg6R3XlvVwyLbmkOQjeuUxJAIlhuzhDWDtdMqAbzUhJgZJaN2vo3QfFq8/VY4S4xm3H0tp4usT6847m0ZKUYwRQIQydbjQ7vigOiJ+GgyG9xZOh8nBT+M35ffBWOjf4RpZz4GTL9t0Iv4smqm1EbrDGPdbByZlJo97CEQ3PN06ur1kkLsWVkO8QZtyJaganO57SCoiT5HMZnxyETaUD7XCeMiW9jtEqTzjRzTX5mqpr8OH0l9PnVaczfRJVckVvV/NNPl0xIaRRXDqg00q7eTiOrL4SCSKFyMlmanckm1bdHMF/M9jgY57yGOloWefaXvCOP5f6OG/Fb/BPn4DrnLNyUvxB3Zf+KRZhBKgEaqGjNjXxqzvrlVG9szTdPNDHCCBmrcYKSKQezMWwd/Rm2LthrDX0V7IEtGsN2iV2wbWx3MuCfUZfR4QpUyWih6l8JreII6Uw0MSe8BE7es36kwJiO/hporHR69SIwHelAx7j2CvfgFd9l6QkLeTB0/vOugT1xcPgEHBY+E0dGLsBRkT/j16V/o8L6N5S6PVEbq8GE4Fv4b80tqHPnI61d/HL3Mb2s52+qz9fBG+FvN87yIajkeL4c7fLdURyktRIoQ1GgY4sQDdLicdtTcdAz2p6yqFezeHVfu3zTomARBgd2xqjg9hgdGo6RsSEYEdsKm8e2MWGoQtQLvRObo0O8B3KxjHHVSgjKqmoNsl41M/U3G6wjH6k1gkBHRWrfdoxWZ4R17YI+VHx2x8HRM3BW9CpcWvAAjgufi95VfY03oLZwEV7MPMIRnmsEl5RdPXMu4WJyl0DWP3l3WoMus6F6s1cmkDRKn+ZgjGVH5TViBK9XOH/FU1RHCj7twdBeiz7uUAwObmmU1+XBBfg4O55zP4C0U41JgfeMq7pbXgfe9DaP2wXX4bZfJ1Q/dSH5bymNgQQFpepRnVtp1uY1LxXHq+M62kjIkNIRqauwGFla5xr7Alr0ZaEuvBk2ZZiWqn2c/fFgBFvGd8J2sf2wA8O2lBFbFOxpwmiFQs3lvTAstiPiVN7NupsxcExpjZ8bN1qnzB8IYmF6dMRYOdSiHE6COJmyHuwPUXNsHsxGpZBOjMkhb06H0qMFJIpgF3N2rzRnaWkf5t9ATaDCK+Qb4AvshcG5nEDzDbHL9dU9ysnlFpLY2UVGGJNcWC8dHqKdsCIePVKgk4xiuVJav13x89Bx2C94HEqkiZOw3o++hHtT18DJURCEORVDtFtyWjfyGHhrEFMYERqL9qku1K5TmIQPKRgbsBQLMd2dTAYexpDgFiih/mdcMAat5+VpsbKE+ZcCJW0mt3ZvN95X4D0jh3WBfySi5RCXpq1rRjDwn9yqJqLg0/i3RDqaxgz3c7KrL8iMmW+EthCtqToK5Toyw3rSQW0wZdbn61hn7VePuu1ohEbMGuSnzhtocOpYDY4LacJj018HqnpuAZUi9oWK479CWuNmB38jbamN/j+534wngJNZ63SiUVGbjurbHMOYWtMmgMnuBFTKSqd1LLpZ1zg0xTJnIeYH55g2hzNxjAxo3V+7h6VC+XlIKGktTuzIPMzHQPp3iijAOmCn4L74ReBEFMsTwxgTIm/i3oZrkMpXMinrrTYaocO8/DH7ASGBo8cUVQW9DcrbQGmorUUwgsnMf4+J64x1J+z1Zks08gu3hF/1KlM9wpJgX+mQDz1KtXbQ0bEhp4D8QkLLW0P0HlNsCc3tWD6GdDaNidl38Ur+Ibxd+xgy2RoK8gxr6jYuqYWQjaVIJZwX4bg59nLf4Mk4vehvaJ/uQv6go0arsDQ7h2V6cy2unda0bKXEyjpO5pNGOWgNxr7gH63IJp0a0q0UtJBZY9U+C3WM1wJF1D4ZfddYKx5QgGLslNgTBeki5MIuxrtvIBWow6LgV5xzU1j/AAbnR6JdsAPrJyr33N8bAmMEET3Cg5Fo6MJ+DnDOVmNC5h3Wm4oU26ha6nG+1uCr8/Ws16zgRLMpM5hPUEnohw602mX4UH0xY6gJa5ZzqBRLYVMHuVoPZga84gXyOT2D7wXeYHeYZ/LVUfzp1Xbjh0axzWCIU5OGA+Fy4iS1BhPUGignDydo86C3NuW12M8BUEdrjULLxnEy0z7RIQhl9ZaWCDXAcVieIcMjfGGrz+bBh75PS03AKmp2gWwYHQK9UR6ktp5j5hxcaZbeuErDFaPT6rJcRmQgYjZhigsykQKnELvHf4ER2e2MZp2OpPGe+wjezj6NbKCWQZPReHE8QmkFSTLdnoHN0NUdTMUjienOJxQ88zA/PxmV7gKWGsJmQZ1bXci6rYvY13xGo9J8WS6VnOp0FVLa+EbuLprVfS/or+xjXXdQTy06mdWboDTBAyiMyzJWnO8G4UAaMzMTKWhXiXNjcGp7/Ma9GqeHrsE5+VtpF/PTvQbnuX/FeYEbcEbwchyQOxrFHF9t2PvSnYgVmWWs7zo6sTkYzQk0eG4zbazhIIhByQ24mrbY/tVBFohRZGg3UPnRc47aQR0iq9susg/va4MRsDL0JWZnJpA+WmesrWF+5jOswDzWxUEhLcZhid2o9OkEJOVoRsDIT/Pol045o6A265wcPx1wI7ekjk7dJXEQdnYONLtGc7FavBd5Hq/lnyArlO0tkC2yvTpu9IeGFFadAa/d5bIGpdBFOa902EPzoMMoxHhFaToCUY82xU3ft4QEacSV0t6ojJN3aGeBt+bu9V3TIEEja1HKrzwiZkMQlfnWYA4EoVBZyrn2n8p/4MbcH3BP8ApUUak3dMb7rjwkmjuqq04HY345KnhRtwgDIoPRDQONMl0fq2DfV/O+PDFhFIVKOXbeZlBZ3jXJan5qQ2EraKy+4qVyDWbTpuZgLKJ3j1MIsQ/WDCntUClfzNs8vqcrLHNYYAt0cHuSBzlYEJxEq3UJpiQ/oopQYQ6H2TyxNQpy5WwLU1Dx3BCobCkAqlPncH90igxi28gJwyl8VD+OFngK+TDzVJx1eCG8eaYNqWl8mf4IyXA9FaswBiSGoZyWujacah3ZbCBlRomclsqUQmPPwGveEwuNncVx8Oexzh7XMb6aP+agKFZBw+7F3bjRpsJYQlDHumnzFNjRCWq4URJf2GheqlqzQHqWJiTLRjv4zBzk5RCtnq3i+6FburNZ+1wZWYBXM49iRWA5c+WgZbUmkSQDTCJJAtCrEPQqNclS7c5cmJuFZ/MPoyZSi2AkhP7OcFrawzx3Hye+GLOZTJyscjt5L1Yg45BmLguG9ZF4Rj6NPhSip8YvQo8GTsxgGvXxJJ7P/gvL8vPYXq0DNVDLpXXPtmst1mzxJzP33kakTVwxFIbLMTCwDTX1OOrCK/BW5iVMzL9DO3ElSty+GBYaiVLjHmJaTiZp/Zrm3kYOMTfeCDYgQatzs8QunG8RWoVhrIzOpUBeyHqqB8i2OXHTskXZBxHxNmq3bi6H2nwV5gRnciwKkKAV0huD2Gg5/lWKmD07mRNIRq22vWkNWFo6WdNawfzn5HQdCkH+F2NW71fma/Bh+iWkIiyPgm3b0P7YJ3oKfh7+NfaNH4H9w6dg39gJ2CN2BsMR+GXwBBwQPBbdM/2MdbswNBMf412kWa4202nPqjbumXVu9mtzGGZGC0lvo9EjRkFXBwbQspKm3ZzGGMzOe/4XeWkx0BxYwd/aWNI3tCWGpbY1Laxno1517ifDm458hrE5rq5Tz7qQYZDOci5/ywNN+suihv1ag1ec/2BVZAUFVgG2Tm+PLul+rIte7UlmwroZ5ZTt8YK2wUiYcDxJKDrXWAwnRGbX1emPE0rOxZD6ERTIOVRFq/BM+l8U9FNZ7xzSwSST6JGRDQTzF6Mju2Ofccrl2H5NKtWBnNiQP/+J0RmaYzzjKjXaJWcCaU3rvjnSsx670fnrsozdCNuopZFmQe8n9jZmMU8KBx3vqH6WgDZl8bt2WAc5zhK8OqWrKKd9ISHSgk5yU6mqc8sgBSrIesnqleUdId2zE5miJVT/dCSL0kB7OEUpZCIOKsNL8UHyKdTKQnVcKnCitJThBaaGNCJ0fKbL2aTXEGaNq5g8gUaD5rrWheXdKEQXtA93Im2QPqm4TwqNR5a0IVe1TuiircwRy3hLMWxNWkpiphhfYTwaqGiVU24PTo9k1eVHYD+TTiRgdDSw5q12oetoy7A8OmxH+2Bfc4CQJuCKwGzMcCbgreBz7DEHPTIDMDi8HftDlrYoRdyCagvHLUrF2JyfzfHSPpzWIP6nxz+j7McE/+0XPRqFyXbs7yimRt/EB7kX4KYbd4/Lu8Z6GuPH4ZwjH8hTeUyx3fJ4vYeX8VHkHcatR2G+FCPc3UjvBcxL5K705C4sUKc0xnNRsWu2W9s6tZfHo7c1gfEZpDqLG5MxavC9OSxZYeJs3FAL2hQiah16ocPlvU0x6mSF9YdDwdMTfXBA4iTEUuUkowjGuc/iheQd5vVlGd4X2xADjFPA6QAIPb+m81tn5z/C3dWXoDIiYemiQ3137B07HKEoLZO456oVcUirNo9PUevytLJWEImyLUGURLvhFwXHoSDfzrxvdnZ0Eh7L3cIJWMMyOHGy2jhB3k2i12MgOshBk0zMLU5lRO61kQXbUMjxCjXBd5yn8WX+Q8r9EHrkBqBLdBDTSAkwvccyKfqYj9x9eqbVbFbh0KqWg0KD0TXfm7TpYlF4Ef6HJ836kZl4JPhYvogTsYQTXbMmhqrIUryZexp1ESkyQKdAV3OsqM5y1uMVcglGKHgiGW1wU/3IVETr+tMsaD5qeugF8A4FiJbJxHxmYSLmhj5nHVMoRYl5BZ9eWWnWo5sHTr4cBXZpqAcF4TC2SY9qZcgkn0NteCEtkzSZowSYjiFtnZxFU3qcSkqErC996lluj9bWD+prndOcQEfsXnQ4OqS7sHEpTHY+wjP192ARFYQM66V8wT4SAzBCPKSjIZOYSdZ6d+0lmEQ1QuykXao9xsT3RDxKi0fnYHslGDrz3Lzq/dZFqUY5zbI7ur2wd+HRVLpKyYiBxYUzcUfqKixzF3JMyWz1rOUGtNFAg8aaq2QJVHmpJCx5Q3cJFrTWZ0toLVAHNYhxG8VN/aHQCqRweMfd6lQ2lWPEDXP38zc1MTSkT9FfRhYq00gQmvissyzQ5iEflgBgv3Je66ztvNEeW6+HStQZ3SXBIvQJDTJryyla0Q+H78RH+bdJg3Wmj+UqFp2pvtp0pOHWoTDvpt7EfAq+eirb7fIdzcsKpM5pVLWxarPADuZEQB0FOtV5C0sz883jmQ7nakAnqmWj5E05Koy61oDx4VcxNT+Beai+Reia6EPlMc4c2WPsIHNmPv/pBRpa4hF9SzHWHA67xegfG0ZBFjWesBdCj+Erd7JR+LYr2BdhtlHnN5NdcA6Q1gy9eVaklCCzZmss+ZYQdXjPzHtPsIyM7cDZu6sxKOqCVXg8dy/ejzyNdJ7WP8fA1SOXmrXyeDK12TPj1mJi8mU82nAD7+dQnCvF8MxWGBodQ85Ng4RxDc9lCinYmgua88azQZinDKjwbWpQ37YppFWbdVlNKDJKzz3oT8T1gyyAGDWnHcP7YkRgLwRoQaRiy/GEewvua/grZgUmI0NtWgysIVxHKZhDPbWxD5zncVvDxRhf8hTCnHiFyVIcFD+NAmwkJz11LE4QPcQvc9urJzvMqHqt10/H42mSFOVLsAsOwub5bY2brCFKgZp7BR+k/8d8GVGuJYH5eszPy1vrTTlaqsFgBANCQzHAGWaI/KuCzzAn9hUJN4Idonsx/zKSt5iWVAxZEMyPdZKgN+tAnFXeSmME7XLl2CbwM8RTEdSEVuIVPIK7aq7HcsynplnJPqmlSKyDXmw/15mGB6pvpMD+r3H1aBPZlmxJObpzAkr0ajJRuERoE9Lql5YbzAewMrAQq4LzW4SVwQWodpejxqnASn5q7TdDK/ydusdQHZMbPG7e1duPbXXVz61Bk5KKgl74MSqkw/hjVBzymBOZiMnZD0wvqO/MhiUyh9ag/jEbt8hI5c5TH+nfusaxdagitITI0LamZbFT7iAUkInUhJN4LvwQrk+ej2nuRCTztUizjfX5JGmswjy+9UnwHdxXdwXejj5hXOMxWj3bh/fDyOjOZN71hta0aVBHbhorjjAtWVf1KAGipCu9SWvb6IHYsv5nxg0sz4wOCnkv/QrHS/HUOyK49YeKVBWUTgxejN57zIo1MsyQN/1I64AUw9XPtmtc+CnrtTXojvdfMURfUpTUDz5zUrmicyqZjKGxE23VuIuQdFeiFgtRERKtzTOhgvf8sAqLsDI0l9/nqghm5eXYGoyiybLCoQj2ih2JDnU9kKUVuzK2GA8m/47H0zejAtONQp2m/aonL6o4fxZQAD9e/wDud69DFXlOIhfDKGcH9AjrVX9SMqiSUUBuE9udc7HY2HQfx97D1e7ZmJZ+nXWfgWSkhkq5TnyrpfGwBG8mH8e9tX/E0vhCZNw0OjuDyA/GcIwLTH56fMwoOuxXqS9GaWIfSWmS50Tt2Cw8mhZ1F1OHD4NvI8n5ppOuttYZ1lSAJeqkTIjetJlKnEcjoH76mqnE+1IBFEcKFtAh1x77Jk5A1+wAGioZzIx9gptS5+Ox/E1YHPwKtcHGDVo0LGr5b1bwczzRcCfucs7HsvB0aHNru3RP/LLkJLTXccFZGhmcC/IcGgOIlVHtzAZTlSxaJE8UWWxqCP2FaPz+g0OsYrozER+7r0HHSXbJ98Uu0QOQCOj9pGb6rBeMfRgOooDp+gcGYWHDHBL5ArMrci5m4N3MK+bs6pm5jzDL+RCvZZ7CY9lb8WzuAVRHF5FxZcx7VA8In4zDo79FLFhAIUimT81arweUZTMu+zSJZw4nVhG2C+yPnqH+jNOoOJiqcjKLQWky8KOABB8NRTGtfpI5pENb/1c6SzAitA3rWUamnMWH2dcxNzzJCOgR7k4YFtsaER3jqXyZT5YMfbLzHqqieiTHQfdsL5wcv4iCqZhl6/hLubWq8Xz6ISSjq6iQFGK38BHQax1l0WjTiBOsR7HTHrOTX2FVhJakrLTwexhf/yKmuOPxcf5184jRS+mH8XT2ZkxKfIwMJ25JfSmGZLbD4fHT0SHYlxNWzFHtS2Nefi4m5l9lv9SjKr6CVsELeC35GP6XeWit8EL2YbycuwPP5B7Cm3VPIZIKoZha7yPODagKVRtF5dDQqRgW3I6MIUDrvRVt1zAYjzEXRqL4tOENCsAVZPa0BjjBt4rsiqh5LyzZORUh5dMcEixLc7PxqpSMaC30zPq+sWNob+i92S3jrwticjrqMOGUoXuiH1bUL0Sls4pKzgqsiM7E+OTb5mCSaZiAee4UTMi8iSfTd+OZ/K2YH51iNqbF2Oad8kfghMIL0Snfw1gCci265ri/Vfgg9zIWRWYZF+RugYPRKdTHbFDxLFyNAG0XvciA1dYYaymhe7QrptSNJw1Ukl7TWE4FYLPwSLR3ydzY3xJ06wtPeOvwlyzGZ/5njnWVhTU8txOGx7YzY7Q6P3FtMzL8ze8ZptMbg5ZF5pD2IhiV3x7DomM5H+SNYBSOT3No2SNF5eWD7IuYG5xBZStKZWdPDMJwJmBZtJwWuXMwPvcSUqQ3vRP3o/pX8bz7EJ7LPYyXSGcvkv5fzvyb3x9ei/7M/ey/8EHlqxhZtC1KdGa36sz6NIcEm9ltz3nVDh0QDxViXnoGasNUWMPLyT8+xOuZJ8w56lPTH+DT9Ft4O/sYHsv9ExNCL2FlYgFKMmUY3bALjmp3Fto7VGCpRIon6Bzxdk5Xo5jOcOfyetq8yOEjzrsp2Y8xPfs5xlMwawnj8dRdeDX4BOqoBEih6Zzqj4ODp2OL2M6I6IhHdqEEcQP77KPMi1hEgZZwirB75BB0Rk/elpClssY5Mat+GhZHptIAyZBOwhjibIt9o0cwfjvmw1EkL1iWW4hxgWcNjytzumHPyEGIByisWU5rdLPaAKBSIHe9llZKQ53J7dphbnoay6pAJpzCZ84HVJbfwfyGpfgqMAWT3HfxFsfo+bqbMTH8PKrCNawClfFcH5wU/z+MCuxuHhuU0mzIhEUv5bi/z3HX6Xud8l2wc+QAlKIj28c6yHpvSU4/arR9czgJNNn1cnOdTSwCkHDdEBhLh0m0ZtMz0g+nl/wNeznHojTVC8GQg5r4Unwceh3PB+7Ff3Aj3gj/GzNiE4FYkgSeQJ+G0TgqdiEOTpxG7TtKy4a6GPOTtuwRHzuKRKJjOxXf7PJrDUwjtmPcKZzwIyM7Yu/I4WiXbI9sLoX5zhSMSz3LemqNkHmy3pGc3rPr7Qg1spx9oGf0RJjDIz+j1tiXwqMQpclybIEdUOZ2YgnaPKJ2q2YBc65rjFqzDs031SCxamgNr+TE7BcbgaMKzsHo5O7UrouQjgSwpGgRPo68gf/FHsVrtNg+LRiH5QWLyPCSKGJ9t8rvhSNLLkTP4GZGEMhjoYlu3rXKCagdlVorl5+9MrLcuEibhyWF07E8PhcrYrRQoguwIrgIn3KC1lAbjtN675bsg61ie7PH9YiFVoRag0hUr6UMopPbmz2wHxKpUjPms/JfYEH2K1qUUlXIhNTsdUBdFaZVHWNf6sUcmvGm+zYAGjP1tyyJLk4XHFP2Z47vydgsNZL0GyJDXohPYq/hNTyMp9I34jn3PnweH4dkuIq0U0hlsyuOcc/HSbE/ooPTidczbJlcraQyQzNsKfs3QjqLZQpMn5sqtlJPJ5RDhA2QeNa7vg+InWIOTpHHe6E7A2/UPUbhv6qRRtYfiq6RFY3r8IQE6SWSJ32qLuxzQ+SCIa7WkcjESY96baleziFXpZTL1lmNR1MUHhyTKPsoSoET1XhyUD23JK1kh3MkX8RxjqM+ksaiwjlYEVlA5XIJVsTnYHHRLNKa6G3tsCqyGBVRWsiR+cxHc9k0bh3wbmjTmZZkdov8EkeEf4/+yVEIcGy1I7s6VIGPYm/ihcS/8Gr4QXwUfRHLo3PNfC6t64rR+V1xROnZ6J3bzPAR1d50P3lBNFyCg6K/x8G5U9A+qSNsw6gursREzrunE7fjmcKb8X78acxLTKYwk7ckiN7J4Tgx/EfsEzucM81XINQGLUVRESOdJNIFiGfJl6j8aMOadhmov/UCnJ3jPzf0XkSLvIBzZnhwJ6p+HBdWzMxfCVSWozjiCzoUR6usqrcMpdYgN7aMB1nhxutB3hMPJLBDZH+cXfB37Jj6BeJU5OX2nhuZgVfid+G/gavxaPBqvBF5FPMKqeBEU+RZ5RiT2RNnRK7CqCgVavH+RgGrcVe3aS7oJTh6q100G/XayDrL9l/3OP540aaWsYZ2UWYGpqc/M5O3V3YwdozvT8LT8YKNUdYDLgVIlgQvotQ7O4tyHTEsvBNGR7ZFMptCTa4ODq0JreGRzQHpIpZXbHYc/iJ4Ik4ouASjgz9DQb5EJ+EhTOJKRnLU3LTpg4w779Aie9O8R7g028W8aaRrpDfJtlEom7p6FdY6irbXZx0yM2qn3aPdsDA5j3VIMm0RqmprsX3R3ihwEvgi9RFW5hajKNOOlvHO2Dw2UrKTmmAWeuuLGyjAHGrnydxStMt2x+4Fx6JPaAiJNEYGoJ2lOeTzWbxb+4rIE8XMZ1cykfJQJxIsmRgnTChLQRaJoHd6M2wZ3xWlTkcsSs4kkSfYrgQJP8SJkUBJuowKQBH6ZobiVzgLBxb9Bt0p/CJsg9Z79FoHs4TACbMiuwjTGqaSH4dRnOVkT3VCWbITSlId1w4U6u1qaf3ly1HodMAgdwwqMnJZL+FYFWHr0P4YE93d7IbPq4xWLGMJE72bVyuKUjoS0WJ8Wv+JYTqFmRLjyu8bGEHrJc06crKqA5uDfGVVZjkmpj5EAdtdnuqGPRJHoCCg408b46wXtPFLG24omEiv5XrTFmlsdHwHhFNh1KSSiKa1gQRUahwyKdW5kOUNxIGB4/G7xOWMvxvTtaNgUb9LeRIDypDBsQ9yaUxOfoBaZyXHoz22i+6DjuFeLI3lmXp6lrE2LkW1HhckjTIfc643+mFxagmq8pVG+ausX4rNgiPQKdKTaVsXhK1BqqfULm10mpx6H8swj3RWiKHYlvQ5dvXmSo2I13XKW8xRm9SyeD/1AlJOBvFcCWl6BwyOjfGisN5SHZpD46sT1SZzLix3V6CYAnmb0B7oERnE+BLmLpbml2BS7n2jHJfV9UJhrh3pqwOV7VKjOBamSX8Nore1QyxXZA4fKUm2wy5FR6EgWE5BxP5uZcyN4s22mQOENC6kuUGhMdglvA8Vxxiqsg1sHZVk5am3DFFjKGTZAQrufvkROCl4IQ6PnYFuob4IU3ioz7W/ROc2m3Oxw4zPuJtHxqIv53A+nUOdU8W6J1DYUEDeU0phWEqhVIoe2U7YMbs3TqFwGxIZiUhI4+5ZopqCEsbaADYp9S4q81UoyndgPQ9Gh2A3dahRAGQ9lgU74OP0S+QXcXRId8O+kRPROdTFKBtqnzaYLc/Px5cNHzL/ADrnetHC/gUVBfJBM1StdJTGkeMl/pIJphDOhMiL8kxDfhrsha3Cu6J3rDfq0lXIpLSmLje9t88knitlO0mpkS1xcugiHB09C73cweRTRcbFrXqbDajkbfIoVDhL8BmV9xxpvQvrtgMt40KOoVzXOoWwJTX9uBFwW9t++oPBRYZEpZOudByCjrgMmz2v2kHa0pW0QWCztDmgIViNVc5yLEsvREOgxqxF6ESX8khndAp3RWmgnbf+FmopCAxcrZGIzWjnpphxnjUsNvVcH8jKr3dr+VfuMa3JaLVSeq4Em3mAgdc5adlm5alNGiYdJ5UcfzqAI68DK8goSM4MjY9qNI6aDr7PQq920zuVtZewkAxThwN4E2mt4aVSoded1QZWYTkFalVe67iyzAJIoAgdQl3RMdKFTKOEglG7tVuOgd4dZTZWaMcwU3tn7Epf9qzyr4MnSgTPcpfVFKXio3qrdY1Vbgkl4j1TrsaB/aZD+fVWLglgimje5vg1xmsOjYH2qqqvVWf1X5hpjIuY/74N1vSrvAR5s1Gmxq3CstQCjobW4hsMXZUGO6JLrIfZBBfXmnOo9bVxWfYua6jHPfRss/oormfJWcv1gYRjyq3jN1osrlyVbBnnk06M0ya69YbpQ/mDsqbP8m7WWGk68ER7GZSn6eRmfa3+8EOSFqRGRsw+qmUXMlNjGbcyNqJvj54o6hw9VUAlMkgOQAXAK0bPeHtvANK4y0W7vvDWqWXJ6dAMrbfK0yA624BMHNUwaTYnLUtzzjgrOLZJbR0w1me7EPkIFW6Nb5hCR8sC64K6zGsP5xDbujgwA5UNK9k6zl/SkJ7IKAiVoHukO6LBIo5/iel3PQImMeXV28vF0TGZjl6gUmv6TDNfY+3tuWG1yVMczlEtA5hVXqbVWeoKPvzxaghWsF/4j/0UN/0kevma+dga2CGmZuRx6q8G1KAmW4nl6ZnQO9r1tEOcym/HGHluqCNK8x05zuQIzceC8SSUvbnu9RO5OEKkPW+nNPmjMQoYdxOTxm0sjMk6OEpmt6a0If7TZJGg2ZD50ho85sZ8qMXpJfyyutwctTpaER5joGDgh7QwMTIpAC2gDJr2DgnNc6Ho3wZQAieuEcb8a4hPrhbmq7yMS1l58pphYIqvKCaZ2TvMbwoq02MmKtt0j6mf8m3aWby4TsYnm473lB2TsTkmC+PnVcEMmgLSPEX2rSpETOBRjPpBmSgz/WxNaKxdCaVT881mMM4404eaeSY/opXimkIjqn5UdK3v6a+n3CihGrAOKAGrqUdDxCxM2VpwV5JW+mlDICVNtdIzkYEca2MayXI4nnq7lMbWCfvUKHu+FaWlsf36UEzPPSvbo8n67PpAtM50SithbDb0rYMWvgmiOy9onNUM9hcHz6tPy76WYBBtK+jACo9GSasiEb/8Vuqh7jIsSOPCf6Y0/gwqkfmqHtEDOF49tJa+vvDeB95YZ012H19DKs0hJaCxIiybCaUNqM5qK3+aTVQUfFpmoBrBFq9b8VEb1tAv+V2af8NSFKnw6DGcxjpmWG8pUObRRzVaxGsqrcA8zJxvzM8obrqu3l6jKHE4TP1EfxpFQSPSyDlWQ31v3nvdmL8s0tUx1o769dAzfJrLrLfqJeUiH8iYXeLeUaO8RvpUm0JUtvTkUQtB3AjTLv5b882jJ1XIGCIbVLEfD9pcGIs4vc5lYFUMoZq+/v/scG8sDfP1dh0aNme0RVl8ssaMW5NxFAx1tAYRviqkOOY3QyOjWF+02sUq1DBL5d1431REROdhTSqPJP1C10woXWX9zCRWXrrSpD+bwdUhJmynScV+0ek+XpnaKONNVH8ymia2zIK5e7UyyZjefOprKxaBubW6bSxX8VWGd4UNYQHmfmNBrZTXFKbIxujeSUoM+vwaa8SD33tSHzymLnif31DoNyDP8pW3+s7QF5mjGHiAVrDK03Gkpr3sarOJfs3wrg1l0lhP840d643z+tfPpDb/19CAN4brn8dqqF992md6r9f412Tl13IdjZGmKTCuvq2L6Qqqs5+b5okR6Pzu/fXgxzB5GYa/ftCjPKYSTZOY7+ufh+SgKZ1NlUiUdS5ozVWt1/gahYPfzfi2mrVy8NqgkRHUPnlpZDGqb6V8GEWZfadv6n51mxGopmRTgn4wvtrlwZuH+sY/TeeByYA9Z+5x/JSX+dcKmoyXF6HVWN8AdRTTiRf51VPlgjpgQPTDfiLfNYqB2qrGtYDq4dWlaT9pHHVVtOHRoYdvU8uNGW0ujE3nmxo0dq3P3f9/u9o0y5s4Ji/9VPDUxcYyva8GHp2vBY9R+MOvv+sg5m+Ar8l6hTRWhBmZ3FYzF+9a45/1QmNOzNX/pgneRNg1h6uHBJS/ytVvXeQH+9xjmKpn4w2zftsyJ78tXi2b3BdHaoamE6cpxFBNKSpXn41BNv96Qwl8rEeytcfR+63vG1BiqzBkxmDy8bL0GJ9ME3Oh8aboWpGDrVl2jfEMmtao6fdvht+mNVCbNyyPteBXSVgrm9bq2gRqurnFeGtFaS1+k7xM9fVHYV1U3JLO1gnRmZ+tfjaW1agerR90YI0B05jBVlrmZiSvfvv10SfvtbLvwS93rbHgJSluElLeHf5j/o0zw1wzwfArL72HJnkI67zlD0Kz+K3Bb4L6fq3o65G2EWuqwdaS9rWrQMlTtJA93xUVBQ6GUTD4u7Wc19VPq9Hscmt5/JixEVjGqoT33YA9/F11tNc0WSsaZtkt2nQi4hYxSA/VBFBMirBW1kc9eJTqsXKvVhtcNwmwpm4y5qafhuiatN0w8cbv3g2GpunMzTWTTDHMJfPFK2PtPNaG1x8sm402Vlxj2yQGTV/oryYMr7SquAq+ki6YiN7XNTO6KXhTFWoGzw3rofVp+Q1Y3fANxJpiv136VuDNHlGHPDDeM5jqV991rmK8Z5sbC2xKBo1oWi3hW1eteUbCd9TODUFTlvJ1VrGH5nODMIpds2t+lq0ofeuCb10J34rOhMbiNGfkZfN+emJDM2X1v8bxba25q6ve+Ln6gm8rNAUj6eUU/g/98/pCiRRaIaBW4NdQWFOlNdeaYsPGax3QMIqvGN4iAeypGY6e8GCWytavvSmhlWL8Wqy+1eLCpo2NQxgbEve++ULvu+h/07AmrTMyoDFj7zL/mosq9euF8drw6ri+kJN87TTK0/vdVBP2HZMe/HJJvl5lGWVNXC++4PWYD+9u0ytr0HykTXaNMLxk9QXl6ZXRAo2ZmL+tF9ME64qwpk/Xrus3Zbimwk2q3iTVutOLOa3d14r7/09nHtNjbk0rZOAzTS+GH6E1v4WfR3N8jY9jHVAeTVvk57mhrfTSNa3RhvSURJYf+5vGd43LdU1/KQdvPjatgYeWV74Oa2KvXfL69+vq8VUaQ/tr5yQB1PiNQa1trY0e1rrDvLTu7N1VKfrnpffieb9aYu1rXv08eHf81F59POi77zNrmeeGjNc6YarBUtkfa7gbg9bZda1RiVrTwtbzblprA9NPzWO3nvbHjo3ATW1hYWFhYfHTxvqriBYWFhYWFhbfC6wwtrCwsLCwaGNYYWxhYWFhYdHGsMLYwsLCwsKijWGFsYWFhYWFRRvDCmMLCwsLC4s2hhXGFhYWFhYWbQwrjC0sLCwsLNoYVhhbWFhYWFi0MawwtrCwsLCwaGPY4zAtfmLQGbkeyTcepwvzzl//vFv+1gsBBO8K/za+BMB/14N3lroP7/VuLvTOqcaTfTWlvu2B+xYWFj9JWGFs8ZOCR+w+yXuvi/DQ1EnUVNg2ve6J3abwruiveeeVueb9tMLYwsJi/WGFscVPBBKZ3nubfDFpLFySv+u4cBR4LRighRte88Zbb3p4wbzcnL8dx4Gj6zSVHVrVwVAIIVrT3nul/ffj2BUgCwuL9YcVxhY/AXjCVK+opMxF0M0jkM+ivr4e0776Cp9+NgnTpk1HxaoqDBkyFHvu9wsM3mwAIiG5nfVu1jwFcA6rKqowdeo0fDZ5MmbMnI2amhp069kb2++wE8aM2RLl5SUIM43r5BEORryiLSwsLNYDVhhb/ASwRhhTUiLgZLBq0Tw8+J//4oabbkNVdTUaUhnkaenGonEMGbM9brv5nxg1fCDCbhZurgGTP/sUd971EJ559hnU1DUgmWZ8SvZIJI6CwlKc/JvTcdbvfovOHSiQkUXICGPrqrawsFg/WF+axU8Dxq3swMlnMOPLz3HJxX/GFVdeiYWLl6COwhW5HKMEkEol8cnHE/HMi68inc2jvrYSzzz1JM74zRm45/4HsKKikkJbDm8H4QDt5lwetVVVuPue+/HCq28j52hSWSFsYWGxYbDC2GKTR6McBrJJTPz0fZx/wYX41yPPoTYbwqixY7HX3vtgSJ/2jCAxmkcwW4sv5y5CbX0dXn7uUfzlL1diwqdz0LH3AOz981/i2F8dj9EjNkORLO6AMk+iZuVSvPnBx6hvSPJqmHlZgWxhYbH+sMLYYpOHNjY7/JNOpXHvzf/Aq6+9g1y4HAcedBT+9cCDeOSRh3DG6SchEMwrNiKBJOorV+L911/F5Zddiy/mrsLI7XbBNddfgwcfuB+33ngj/vH3q7BZ/x4U8lnPCU6Jv2zZMiRTKU/6W1hYWGwArDC2+GmAAjkUjmKbrbbGkKGjcNRxp+DSv1yGgQP6IRELolePzmZHdICCNMuwYNpnuPb/LsOMhdXY46CjcevNN+AX++yNkqICBMMBjB07BqNHbo6Y2eTlWcFGBivYx5osLCw2EFYYW/wEYLZuIRKN49BjT8Z1N96A/7v0IvTp04VyM4d8No0lCxdQpFKSBvToUggzP5+EiV9Mx9a77YtL/3whthy5GeIhPbzkIM/MAuEQhXjMOLZ9hHktxDgWFhYWGwrLOSx+AqDAzDtwA2GESjpj+x22RZf2/B7K8FYWmXQSU7/4Ei7jCGGK3Hwggh4jd8R5F5yL0QM6UARrZ5aDIK1eilwkkxksWrYcmXyesSXEA+jatSvi8YTJw8LCwmJDYIWxxU8AAQRCIUPtoWAQwaBLQUyh6oYoRuNIVlbi40mz4QT4Wwd5uFEUd+iME08/DTuPHYloOGi2ZHn2tUvjOYvlC+dg2fLFyCOCKK8HIxF069kTxTHmYb3UFhYWGwgrjC1+GqDlqqVcimR+8gut5KB+USAvWjAfCxZXIOfkzelZbiiCsdvuiMN+uTdiUcWhKA5QFFPKeoI2i3mzZ2Dp8gr9MCgqLkOfPr0RC0ugN160sLCwWE9YYWzxE4YOAMli9qyZqEumPOFM6zhelMCee+2HLqVxWr4EhaujR5jM1wDy2SymT/sKi1bWSnRTQAdR2qEL+vfqrhVlI/QtLCwsNgRWGFv8ZOFK1GZTmDptKmqSSU4GTYcwOvfsj6223hKJoOxkD8ZidvTpIFlbhRnT56Ah593J0RQu79gdvbp0NMJZwcLCwmJDYIWxxU8WAVq7ybpqzJ07Bxnt3TI+6BA69hqCPr06IkQrOaRTu4JZBB3tm9Z0cbFq2SJMmjyVvxvFLi3j/kOGo11h3LizrZ/awsJiQ2GFscVPFg4FbWXFCsyePYv2LeUoQywWx4ChY9GuLMb7tJXdPPKBPIL5gDnqUjunF8ydifmLlnHyeC5qpd1iy7EojFMY65cVxhYWFhsIK4wtfrIIUhgvXzQdcxYsRz4SoU1cgMLyAuy2dffGty5lGCmMCOJwww6v5RDJ5zFj0peoaEgzfpiWM6dQSX8M2rwDAjEKZyeGIC+50FnXeQZeaxIsLCwsWoMVxhY/QUgousimk/jys89RXZeWmYxsIIuC4m4Ys8UoEysQ0N5rD2ajFmdLLlWPCZ9+ajZ8UdzSDg6ix2YD0Ld7dyTMbmtZ0hK8emyq+U4uu7PLwsKidVhhbPETgyeI5U5ON9Tiw3fHI5sPIegEaB3n0K3HEPTq0Y1i05H4Zbw1AlRLyrUVSzF/yRJkcw6YhDEi2GabrdCprAQhvSyZ6XSkphuQYA6aNNpercep7C5rCwuLdcEKY4ufFFxtyHLzJlRXLqOV+zlSOQrPvINoLIEhw4YjEQ1Ap1oGg1oPlpWrhPzv5FCxcA4qqip5HdDZW6FwIUYMHYzSghh/8Wo+i3lfzcC7732KmroMBb2SemLdwsLCYl2wwtjiJwVPLFIgU7AumDsDC1bVGIErRAIFGDq8r542NpuiDbxTPvSFk8VFzdKFqKmp409OHd5KlLZD3949UBCSJQwsnD4Tl170Z5xy6m/w+BNPIZVJN+ZuxbGFhcW6YYWxxU8KxlXMP7lcFl9+PgW12SyFqKOnk1Bc0A79+nczk0KPPTVHQA8a5zJGruqxpgClb5rXqqsrkaquxmeffIxzzzwLz7/wImbNnofxEz5GKpVmStnRFhYWFuuGFcabJCRIWrHEXJ0nJcFAW9B14TDkHblteUWfDGbHr1y5+s4bXuB3vRBBQbebBA+rv2ykYP3UDn7kjFUchFNXjy8mTkNDRsdcerHa9++N3l27I0yBbU7j4t8gvxsBHtTrIxi3cw9EC4p4Ub/jyFUtwj3X/Q2///3vceKJx+G59yYgU9QFRx9/HK/9DuXFxczJiHfvNC8LCwuLVmCF8SYJY/55X5vAe9GBN+Suk6dll+cvF5lUEvX19airq0NtbS1qKaiStOgyWYouCqqAzEa9RMEEiiRjNfpBaFnWRodGS1enbAUplWuqVmLewiVsAdtIaau29ejeG506tTfxWoNLgTxoyGgMGLQZQsE0BXUK4XwDPv/kAzzw0MOY9NUcJNp1wQkn/xqXX3IRBvXtQcHevK8sLCwsWiJAS8hyiU0WsuU8QSBx6Wr7L5HLZlBRsdKcyfzlF19iybLlqKyqQiqdMcI3HA6bwy+KiopQUlpKIdUTPXr2RPfu3VFSXoKCRAzhkGc1Srht/MKYlj1DwKE1G6B9mncwY8oHOOusP2D8F1NZ/SiCoTh+9evzccmfz0R5XO9oWhvqxZyr54yzeOPV/+H/rrwCkyZ9oV1cNJpjQKIEQ0ZugWOOPAaHHHgA2pfGWaw8CTmE2J/eirN3htf3BU1l8xIMi00ePtvWeNtx3zRghfEmDbmh9eICTyC76TzmzZ+HV197Dc899zxmzJyBRYsWI6WjpUy8xoltRI9ZFaXwCqKopIQWY2e079AJvfsNxCknH49ttxmNWCRs1k1N3I2YGRiVhO0KunrUSGu+ITRULcXUr2aisqYeTjhCIRlF9z6bYUDfTojq1I5WoN3TQWoruWw9Pp8yCRM+mYiKylrECkrQi/0ydPNh6NWtCwojQfaHyvXWir2+WdOr3xe0tCD44+h/35jHxmLD4S8nNR9X7f63+PHCCuNNGhQc+TQnaQDZbBYfvP4GLr/iSrz3wXjkKUQdTd5ACPHCInTt3Antykpo7bqoXlWBpUuXo76+ATkxeOOeFoNnlpEOOP/83+Hii89FIhoyLl9G2KgZvieMaZWyrk6Q1r8TQUinY0FnTseQi5Cx5WkNhxz+plJiTt9qCU0V6R4B4+I3tjZy5lli5U1maLqAX+Re0LNRjdCp1rzYKIa/P4YpJp3PeyvTIb2/mbDCeNODr3T5Yy0hrDG2wvjHDSuMN0E4bo5CJQw3mKfQzSLfUIUnn3iWgvhqzJo9lwKWwiecQGm7zthzn92w6447YsTw4ejUoR1C5NvLly3FxM8+xnP//g/e+uAjNOS1yUsOaQfR0j646vrrcNqvDkDE8Hsye0qojZ3hi8plmzoBuY71LmMikKMQDlFAS1DqxCwKZ0nbYEs3tQ9NFgliZahULiWwWm52WptC1EvqDxPdwNw3KRW+C4aZ5nhEjWKgMs3IZNJYuWIZZk6fgQlTpmPL7XbEVqOHIMYB/X6d4xsDJJw0Jmqn19Pq9CZD0MYwNWoC1kzV1Rlupp7yMEk5pMUb8BRBHdXqtcObX/yjH+aannd3s2m8N+5NjJ88E1ttNQYDBw5Ex44dEG4UyAHStJalRIdm/E169dOaU+UsNjJIGFtsWqDG7LrZnJt3sm4uX+++9fx97rA+PcyyZRBhfkbdfqO2cf/1xMvuqup6N5fLudS2G1N7yOTr3DkTPnB3G725SyPPDQVCDAG3W/8t3CfHfe7mmHfezTDkW6S1+D7huPkch5fjo/HN5/Lu8qXz3P/+5373gD13dbuUFrhFZd3d4866zK1o4H2HtLDJg/RLWnTYVtGiHzYeqC4ahzV1Uv1yuQznUQOrn3ZrVi13p3w+yZ05f7mb0pjl2QYOdF5tM23xxtF8Y/zaFQvcc04+wo0lom5pu07uz39xtPvYky+7SyuqmT7nZh3OTdJJjvThug2N/WOysNhIsamrzD9JaG0UoayxVpctmIk77rjLvAxBrlRdK+3YF2effwF+vt8uKI/HzTWB9GA+hRCi6DF4BE464Sh0KC2idp2nVRmnNd0J/Xt2ZQyl8ayujd0q3jTgWzZ6C7NLlSqKfE0l3n3tKVx4wTk44aTT8MLr45CkNdSrTx90LC8F+Tjj/xTGhtae2+jNCHh9ZAzBjQTeLgxvA58PfQvxb0NNFca/Nw4X//GPOO6E03HHPY8gm+UIe9OrVWi+ZR0XHbt0w8A+/WglN+CF5x7BSScei7PPPh/j3p6Eyho9JaC4YvHqjI2oQyxaRegvRON3i00FFKp6WUE+m8Szj92Ne+95AlWpHKK87hSV4IQzz8VJvzoS7QuMKNWi02qBukYwBziZoygM1eKl/72O5ZU1cMJFGDF2J5x41IFIxPxJzvj8sAL5+4TWvL0d4QoINKBq2SL89+G7cMVfr8Nrb05CMh9En/5DcdyJJ+Dc886jorUXyoqjZulaKtOmhqaKo+hP+wKMY5d0KEEckCTyFvHbHEY90DKGvpv9BvzuOJg59Qvc/8C9uPKq6/DKa29jwZJK9BswHHvvvZPZHCmolRo/0xI2zG9RnEr0yC22wM47bo12JUVYNG8+KlZWYMqUyfhw/HgK8xgGDOqPRIHc3szLpehXejtPN14Y+9hik4KTz7hZJ+cumfeZe8z+Y9y4bOVg0I3Qnuq3xXbuq5PmuCnj70orspeoGeTSyuRz7rLZn7g/GzXMjQSCbryki3v2lfe5qXTOzboODS/+Y3q5xTcut+CmBse4GfNOmp8pt2L5FPfPFxznti8M0T4OufFYe3fHXY5wn3x+nFvP4UzLuSmXLdP47s1NDb4r2oRs2s2mU246k3UbRJs5tpqm48YCjYTGQ37jfLrBXbV8sfvIv+5199p5ezcelbwNU/WNuQiVucee/Gd3VVLLC4zONFoOkvvdm6de0MxzOb81z91snZutX+G+8MQD7j67besWxZkXpW5BaWf39LOvdOctr3aTTJvNMUM7RzdqWMt4E4RDDVh2wpwvJuCff78Dq2gVy2rIhxPYauxuOOn4w1AYc8y7eL3NHa1oy9TcA4GMOX1r9pTpSIWi6DtwIA4+/kwM71HEMpjG/Pe0dmncVuv+/kDOy052UFm5Crdddy3uvvdRrKjNIV7WDoceeRT+dPEF2Ha7LTgGWdpBDLS+tDFIO+E3VZB/mR3FM6ZNwfPPPo1PPvsCU76cgZKSUrRrV7axGMasKMeO41FfU43xH7yHG6+/FrffegsmfjkTFKtUlbWhMEDjNYxho8din312RTQiz5MH75txcRhoxvlvBUu5MYQiIWy2WT9sMXoEamprMWP6DDQ0ZPDZ518i7UQxfMQwlBaFTXLPbW2xUcKTyRabFGhBZak1v/bE/W4RhzgQ1KYtSuNQoXvQkWe7K2lB0CY22rUJ64Qsj5y7ctkyd+HChe6ixYvdFC0Os1GmMYbF9wdj3Mn6yckqpsVbV+Hefc1Fbs+OxW4gHOKYlrn7/ur37lfzFjGyRsuMmPnrha/DGktrTVhXGl1vLX5bgX3SaBVnkqvc/951pVtWUOAWFBS5ZX23cO99cgL77pva/33Aq5NnCTfOk1zazeVS7qyZk92/Xny2O7B7R7coFHYjnJd6wC6mnRyRGC3juAuO6VGn/B8tY9adaXOam41d7Y1rS+RlbTOu+ZdrcBfO+sw9+sBd3MJ4zA0xz/Y9+rvX3vuc2yAnGOPIp5Xn7DfWtTG/v27+W/yQsGrSpojG9TTyA7Ne5e0GoVZM7TxDSzebkybOO7r+tZqyrN0Q2nXsiG7duqFrly6I0tCSdr2xGB2bMsyw6ZEXmnh55PDRuNdw690PY3lFA/s/hL5Dx+Ds009Cn26dzB4BY/k0/vXC16FpvO8j/g8DvXfayWWQTCbRwJDKZGhter3QltDjbwE3hxVLF+G/D9yB3516Jv5+zV2Yu6IG5b16YMd99sPwwf1hDnsz89Wbs9Kavbrztxa/vcvrhPewk6LpWwjde/fDHy/+C8aOGEK6cVCxbAHuuOkGvPvxVCT1qlBl6f0xqX2726LtYUdikwQnpplwclUS+k7Zq2cZF5I5LF5SQ308Z+LlvRjrDeuK/uFA25czVEd4ukiuWoz77r4LU+csQ86JoKSsG87905+w7Yj+CIZyRmBvGBS/tdAaWounsPFhjaBpC3h9IhlqlN1cFjdc+zdc8qfL8fpb76GgQxccdPTpuOWOh3DHHTfh8ksvQvcu5ZyLmoU6wEPPun+7fjXCOBihUhbHwM1H46RjD0WX0qg5+nXWl5/iyutuwLwlFUZR4ST29XNi4xzHnyKsMN4UYazdgDZJa94hxD9BBu2snfbFp3jjtTfRkHGQJ9NQ+Cb468FWEP+wCDpZZNwwnEwDnv333fjfm+8jzXFzw0HsvMcv8fO9x6AoFiFjDUKnX38TJKj8oLVWx2Fe/O5/+ic6+fCvN42jTz9sHBBdrmFjolD1xHqQ9fcK9ZVqod3TyxtSGLr1zrj8mhtxwz+vwl67bYMBHXtixLDB6NOzq3RmE3f141kbgEDjkxDe+TtsPQVyKFaI/X6xP3bfcog52tXJV+ODca/hlVdJPzn5ErS72iS32IhghfEmiiAZVKdOndC1SwdxBu2nppKcRapqMW676Toy9o9QZx6zaExgsfFBChBn6PK5M/DfRx7DsuoUL7ko7tQVhx/2S3Quicj+4hiKua4tSFtDU2UqGBT7lgdFf1kITSXRTFM0je8JPLl/Gz+bxbUQGieTEYrs31AERx17PP7y12tw25234PCDdkf7gggi5hwAIBKPI1oQY3z15bcTxt6YeCqIjnv1TocDaaQnTjz1RPQsiyNMxSldvRQvPvc8Vq6q55jLFc40ASpY5rlsi40BdkZtgpCmrf3Uffr2wa677GyuafJx6iGST2P2V5Nw2d9uxoeffeqdkWCxUSJJhh7K1+Oj997BR59N4xWdg+2i52bDMXaLgQg5IWSDLsJZXffSfBNqamowbtw43HXnXbj77nsw4aMJSKczIhBSx5pMfIt4xYoVePnlV3Dffffj/vsfwAcffohsVkscFq3BV2C09usEQhg2agzO/M1x2HLIABQHAwi7aThhB6lI2FsioiBWXG/8PLG6IfDGzDipzTKUeS0qhW8gXIiRu+6G7Yb3QwHzD+Yz+Gj8e/hy6kxa615apbPCeOOBFcabIByOqtzSRR374JgjD8agnh3ghLzzmPUOg2C2HlM/eBnn//5i/OelN7GiLgmHDNbNZjlRXVrQYsReXpsKfOHiuQ9/HIg7OdTVVeKTD9/DqgaOnqtTlQqx7357obhDGUIhPZ1Kph/luAbCa42ZvpqgTXtUwKpWLcWzD/0LJxx8KI4//mRceNHF+PMfL8TRvzoR19/8IFbWVEEHdmUZN+OmMPfLybj2vAvwiz13xym/PhF/vOBPuPC883H0iSfg6N9chAmfL0QDZbKjPmU9/TJ5xfz9YSBBJGEmez1k6DvPSzkqKOa92z/4WHui1NSKf4JBzrlwDJFInIYyrd5wFIFQgjUNIa44QU8Qa1wDZi+tl35D0KREyvWwCSQMjkIIsZKu2GmP7RBMyAsSonW8GP9+fhwaUixP52K7ivdtrHGL7wOiAItNDDpmz2jb0RjG7LgzDj70IJREHaOp58m0zWcmhSnj38GffncabrnxJsyvrEE6FCFT4MQWD9twvvCjQVPB/EOFbwMJmdqli/DBhMlkmt5JSsHCDhi79ZYoiIudE1S6PFa8NnTNs5YcNFQtwm23XonTzzsbL457Bwvmz0RN1QpUVKzCrFmzce8Dd+PTz2bADeZoQeXw4bMv4g9n/RZX330Lxn/+BRYtXIIVK5cx/gosmDENzz36IK674UZU1NSabUc/tMiz+CZw9EkXsXAIQ0duiQ7lJbSWXSQzDfjwjf9h4TKOGwdNL03REbkWGwesMN4EoeVDMeIs/0bKynHiqSfjwP12MY8lmV2e0ps58kEng0VzpuPav/8dhx52PN7/ZDKSbob3GwXyJgQJxJUrV2Lp0qXG9fpDBrmGv82GJ73VZ/bnn2DBsgqOmEY0jEGjxqB/754cPw3Qmjw93alx0Pjhighosa5cNgvXXH4Frv/7PVhanUffzTfHfnvvgZKECIAEoX6pWIo58ysYP4l3XnwWF55zAV4eNx6pWAF22nUX7Lz9WBQnaHnTEpeCEEhW49VXX8DkL6aa3bleqdbduXFBa8hB9Og7GP17dW+0fx1Uzp+O8Z98Cc1ykL58krFoe1hhvAkiEJJtHEAoINEbQ49+A/HnSy/BKb86HO1LYrSxchTY2hFLRhqIoKGuAZ+++yr+cPbZePz5N1Gflgtrzc7ZHzvUloaGBhx11FHYZpttMGbMmB80nHjiiab8De7LfB0mTPgIK6pqOJoZWq5hjB7rWTp6CMa3uI0g1nqhdChd439t5KmprcQdt9+Cu+5+GAh1w4knnY///Pu/uOWmG/Grow9lNIcMQC5Svfc6gwnvjsNV//dXTFq4CNvvfzAefPC/eORf/8LD/7obfzz3tygrKjDucLlV0zUVWLxiJbJqk6cJeB86E/oHht8PFk1gNoUFUdKhE/p07UR6ybKjAkjWrMRHEyagPqtxEsFYJWpjgRXGmyA0z1zkEc6TYeeDtGgK0GfwCFxCgXz6r09BWSKKWCDHwScT01x09B7fNCZ/9CH+fN5FuO+R/6I2ldqkmJzasmTJEixYsAALFy78QcOyZcu+lWKTrluFz6bOR11KQpO2cbQIvWnllBQmyEab5qVxkmhtvKZxY1mhgItEIoFcqBBHnngqLrnk9xixWVd07NDZvNVJsz9MOgiTVS+cNw1/v+wKfDBtIX5+5JG49pqrsP9uu6FL567o1qsvTjnhWAzq0ckzprX1yM1iCYWxDpHxy7fYuCBPSrywEH26dUck7CLgBJHJZbB44QxU12vOa53ZHz+LtoYVxpssKJHJjLV1w2jJ4QQ6de+DP1xwIW67/VZst80YFESBSDCLcFCbtiJmvXDxrIm4+qqr8eB/n0Y6S2HO5HkyeU8uc+Lqi76bT1rQusvvjjRsJ9+4k1tiQfeVThf4SaatdSr9VnzFUjxPG/DKWSf8MvX1G1cp/XvKk//krm28pp2uEso/dAiFzCis3mm7bnh9YarLfqqpWIHllbU6t4Fpw0gUlqJ71y4UoPzNKDodbQ3MFfPN7MwNBlBYVIJfHX8W7vnXffj9+ceiU3tz+CKzT3Lo0uZACG30q6muxf1334YPPvgUOx5wKC76458wpF83RIM5jhVt52AU0ThFdpZWdC5nRgCBCIV6R9KO6rCGjXi7gtcf7CHzV8izr2Tha5PhOmHu+eV5qdVs9Zzffh2i8XVZcFBMMGkMfXrxveB/+3HDPOJERKIxDBo0AOGofGXsH9LMyhVLUFWT4l15OTZwwCy+N1hhvAlCW32CYtTBMML8ML858fJuGIVlHXHAoUfg2htuwNFHH4Z2pYVkPWSvev+xecEAsGLebPzj5lsw8YvZyFKC5vjP7JqVq0txxcUMJ8vAyTWgetVKTJ8+HZ9/+TmWrahCmkw+7/KehHA2ibqKpZg7i/enTsPshctQn86a97HmHL3AQqLeiHtl2AIe32SZ5pAKla585UbXdU/YNQ38w/9SAsTUvYrqnwRhWVkZysvLf/BQXFxsytfu2Vaxuulsp2mDPnKoXLIMVauWcFwcjkAIxWWF6NyxzOzEDcldbISxmKnHZIP8p3ICZisvRz2YQBkt23332RO9KTgjis/7qYY6rFg0j7FDyLlR5LIprFiyCr2Hb4OzzjodA/r1ZY6sq/LREdjqP1pQ0XARItqBq7KiZehUWoqo2mXqr3rQ+qICuCEw4y5hyKHKis7SNaivqUNtbe3qUFdXtybUM9Sm+b0e9bXVqOFnXTKLNPPRenYwz1ySK5mO+dTzXtO0jaG+MdTUpVBXU8P8apGi4iklQPVZoyT+eKFnjvXcYiAQRceeXRCJF/AilSmSwMoVNVTAGpDXY03fche3xXcPKlAaNYufAnwrVUEMvray0rw95rbb7sDc5ZVktBR1bowxeT8Ww4GHHYub/nEVurQrYny9D1XbPoLMRxo1kG6owKcfvod//uNGfDh5BjLhPLbabh9ceukVGDkwgXRNBpM+fAfXXncdJk6fRwEdQqJjL/zuzNNxyGGHoTwhfu+Rnxj62pZeE7hZ8us800fghjIkWq2JryMuobblJZhYyRyFVoi/AuS0clOn0+l1C8XvCTH2ZdeuXY2bOhz2ttKsBXWB6QdtqGG7yCBdpDD+uf/glDPPxVcLV7FFEfQctiVuv+8u7Lnl5uyr9WOgxubjuOrRGSOoqSTN+XICfn3ssXhj0gLmG6MClkW8Qy/8/fprcfSh+yIR0cM3EsBMap6DJQOf8hZ+tvdx+GrJcjgU9O27DcPjTz+AsaMGU15TiQt5Z4B527nWv39Vv5BRQCjySV+T33kdd9z1MCqbPMvcYrxkzTGJBH8mk8Tkzz7B9HmLEKDiGIqWYNDwzTF0QA9EjNW+NkwdmT7IOZCjoNISTS4Qw+/OPR/bjh7CPOUtUDuE75dOls2eglNPPQXPvP4x60OqDRbhyJPOxa3//CPKYqRhebbyUrrUPWbrXGPKb4Z5y5cmlZPBVx++ij0POh6LVmojYQRl3YfgrvvuxS93HwV5qY3yZtHmsML4JwQNteHhGnLzbKhrBPLD99yJy6/9B5atqkPekb1E4ReIoLTXYDz44H3Ya7stOLHJwAJKQ9uBgjFJC+WxRx7Dddf9AytXVSKdbEBtMol4x/74/Z+vwjlHjsa/brkfdz74IJZWViPHNPW0YvRcYzEF8j2PPoV9txmMcMR7aUVI1i/LbA7V2ck34KupX+DLqfMpq8gsWX2dIiQbpiXE3B2kQwmEyYiCpV2w27ZboqyIkn8jwLqFqNrC/nUkrCXS6vH83bfh9LMvxLKkbPswho7dHvc9dD+2HNDbpFgfmB5qnOLqyyD78u2XnsTBh52ImpSDbFDPwcZwwPGn48Yr/4wu5TFa3YrsWYbGLqaVPv6pu3D4qX/EIp3gROE1eocD8PBDN6F/j47yuYijm/jeWva6FaXmEEVpvMxztoEU3n7qEZx26jmYVV3nRWgV8gGoDE+p1Lq1fAdh0S6VmUw0SIuddLNOfzeVDbbJkTAmCjv2wR1334kD99yOgp8tZvu9UfrxCmONn2Ms3wwWTnoPO+5zOBYsq+SNOAo7DcDt99yFI/Ybaw79CVphvFHg+6U2i40KniBg0IcOIQhFUNyuI44/+UQcc8g+KEjQSpJNqXiczNUrK/HpZ18gTYtDhpvYgZHj2Qa8+cqLuPjiSxEt7oCb7n0Il1x4NkrjceRrq7Fw4Rzcc8fduOHWe9Fvy13wEIX2I3dej6F9uyGSz6CmogJTps6GmyMTJ8Tw9XddyNL6eeml53HmmWfg9NPPYtDnbxhObyWciTPPOB2nnXEWfnvGGbj0qhuwYmW1afvGEL4e/nSUmpFHPue54w3IMGXBbCjjVGy/bLnus+kU5syYgZq0GU1aRjmUd++DQw49BJ3KJIgb8zefDBp4jvf74z9lmnpP5lIwDBq+GdqXFrHGcu96apH5u7rC64s18eW5yVGwZviZzWa/NmSyaX6mzYYk89IT41GgpR2ghe5QIGcyLdKsCbzHvs3wM8f0uVzasyRX131D27ARogmt6ekKQz/6pzaa5m0CbdzEYIXxTxIado/ZOpykehb5zN+dgREDOpPZBpGhSNYTKm46j6WLV0JbPYySTe1dLmonGEKitAw7/2wv/P2a67Dv3ntgxOb9kdMmEacBE958Hg88/Ah2+vkvzWawnXfbHXvuewD22GEMEoqTy6Kqup6c03va8Zsgd6RDK1cu5myKTDSdNUc4iuG2CGK0GTLpLJk642XyIeNq/fFBFibFG8dBYyG1RYZebp3W3tegMYnOns6kkvjy88mISvDRwhUtjNl6G2wxpK8R9Nq37SlH6jf2PZl3sqoC733yFRpoSev85FisCP0GD0JBQcyMjSjJRPYS6Nd6Q2lNeiLH+nXq2Qv7/vIQHHnkkesIR5nPI444jOFQhoOwzRaDmDrKegeQixdhzHa74Yijjm6Wbk36o448AkcecQSO4OcRRxyCgw7cCz27dzIKy6aC1aPAL1JAjFfM9JBl+hsrrJv6Rw0yR3Jqw6wDOYS0I1rXJDk58byp17hGGcjzV2vuQ1k2ZPWZSvzl/HNw/e2Pop6Ghp5jDboJHExL87qr/4Ju8RCFMGNTEMsSyVAwVlU1oLy8DOFQDs/ddz2O+f3VSNYn4SZKsfsB++O6Sy/BgM36GzbpOrW47g9n4bq7HkUF8/+/2/6D3x2zNwpick1LY9eaplejpjC7r50sZs+aia++muUxTMP0VfOW0DW5sbN6ew2tnWhpB2y75QiUFDaeWLWxgtPQWJYMep2e66bw/G134NRzL8KytMMmRzB86x1x70P3Y3S/7usvOJQvo5rRd9NYPvNzHHvsiXj7o8nISBiHyvDHq/6GP55xGIVsggJbq+0sj7TkBtII5sOYPvFVHP2rM/Hp9DkkrQIU9+iBW+9/EIftuiUFuBkKU2uvRqK99Wf3arGEhP7K2ezS2k1R4co2e4OUD68M3RMts6ey1Xj6oTvwm3OvRY60Euk2CNdccyuO2nck22sit4rVdabyIGWtoKAIEZ2E4ysXjX+/L4jtLp8zGaed+ms8/cbHCGoeBwtx5Enn4dZ//uk7cFOLNcjaz2DexHew835HYuGySoTdKAo6DMRND9yGI/fdgXNEewOseN4YYEdhU4DRpzzmpXUyBU/H4kTj/DXB3G0FhmFREIaj6Nu/nznvWGxR6bUNSo8jGQYrhtCYS4DxY5EEOnXuCO1HcrMpzJo+m4ZumlmF0G/ACJz1u3MweFB/hElhYu65dD2mTpuGejJaB3H06EornMzPvFFZAsPk3BJe/cPoP2Ao9tt/f+y33z783Bf77rcfv7cM+zPsu/9+OGC/PbH//vtgzx23QrGe4dqYocabDlgzStpkpDEwwyhwTD1X8zpHch3QODYWQSVq6eIFWL6qCto7L5S274IhQzbneHIs/DqoUPOdKZ0cvvzyCyxZvJS/ZTXnUdqhGwb06WGWMzwB0VRMbBhL8dJ5f81KMOmqoKjI7HxvLZSWlqK0rMR8luh7SQkKCxJm3VmVdlmnCAVrMa+3lt4PpeaTeZQwj+JiREmo3jzx2vPDQePqfXrwP/8/sTqbxqUNKR2NrdM1jyq+s9IsvgNYYfyjBieVYYi0ZjIpVFauQlV1LeoatDklzOmmqedNN8/12BLmbuOMLCsrRzQqwcUL+h+MorysExJRptVOZwoCbzI35kmmrd3QesTkC1qt2XwW0ZL2+MUhh2PH0cPg0jTRTl0xgpUL52POgsVI0wIuadcX/XqRmZsq6U9rFrsHCR/vXyOzZXxPdDdWuhmMrNKOWBNF7jkpKR7j+XHA62F9BsMhr9sb25rL5Wn9td7udUEMWDuHxX71Np8F8+ahorLayFt5TfoNHIRB/XshRCXKPC/O/tWjSxoWCWc3V4+Zs2YjmdSSgl58EMCAzbdE5/KiNVX9juEpHWz1ugLb4X1n/fTZmE7w40jA+QetKPjXmwcfTb9vEvA0K0IU4P3Up67Kk9Y6N7BoS9gx+TGDM0uPhrhOBjOnTMKfLroAf7r4L7jjnoeQ1Ol3q6efoO8tYa423qqoWGnWZQ1j0oaPSCHi8QRoNHkT2GwCoWATpzNWrZnaWLF0MeYuWkqmF0H7rn2wx147oliPuSofCkM9qTzz8y+wuKIKuVAMY3faHT06tTOWlRHwjOYJ29Zh3goUMA1i3SSM1w2XFTXPGavCzFhr3BnPvN94YTqA/dAY1BugMtWhUweU0Ar0UVffgEoqWxuExjyl7jiZDKZPm2by8N5HHEKXXt3Ro0s7892UrzRSeLRznn2dbliFyVOmIaNj3WidB+NF2GmXn6G0oOXO9+8Sfl+0GqjFed8b43ofq+ELVsXRY1EKa6VfR/ihoXqq3O9VEaAiUlNVZT41X01JkRBikahHdrKaLTYKWGH8I4csY5cW6cfvjcN9996DO+64G88+/6rZbOPt9fHdUV8/4V1GXrx4sfkUe1P8aEF7DB0+kMKYZGJmLhm0gZeXyZOCcu7smZizeAV/BdF38DD07tWJOcjtSUFMpp+jgJ/yySQsXUVBEopj9PZj0b4oQmHcaBHTkl2XMFZNnHwK7777Jq648nJccfnfcPkVV+Lyyy9vNVxxxVWMc6UX76prcMtd/8aqunRjbj8GiDlqWgZQXFaMgqK4uSSmnUxnUduQNLHWF2akxPSpoDRUV2H6V18hnfX6Ol5QjAFDhqCkMOzrA/zkF/Nf69YBrKxYhkmTpyFN5UDryeHiThgzYhCicmubXH5gtBCabVKL7wRGAWgUyN85TJYaSBcVK1cipyUkgddLOrRDx3IpYJLRhkIsNgJYYfyjhqdVZzIpTPt8Cqee/gVQl8x4TNuf5FpPM/7bdYDzsWJVBd5//33kcjmTTPK3V59BGD1mGMIUqF7Oeg9qE6HJiJrkX039EouX11DLzmL4qFHoUFpuYupErxwiqKupxuwZs5HOBVBY0g6Dhw9CIsZC9GypgfJsXRircrl8Gm+Pex2XXvoXXHLpX/l5GT8vxSWXXNIiXHrJX7x4f7mccS7DzXfqXb0NjXn9iMDx6tCxA8rbl3s/+VunUa1YUWF+ry8MqzXj72DZ0iX48osvPQWOdFNW3h6bjxxBZYujy4hGBZBbXz84Hno37vyFc81JVTp7TYendO+zOXp1LzdeEuXhB4sNh3b/p77nM+B1Ct3SJUuQazxERUsR7UVXpWX8sa45Z9EWsML4Rw4Jx1R1NabNXYisXI+BBjLQeRg//jNz4lVOhxvwnzfdfaHn8J42ZznI0rLNZ2rx1L8fxuQv5yFDlqsD5lHcDYcfsycGtpc7WYxY6bSerDU4WrQ5HTfpIl2zHHOmTTIWdaC4F7r364liClpzqhIt3wg/K1bMwcRZs8nQw+jdfwCGde2ErDGKPQEv5TyzLmVBJpsEU1l3jBy+OUaN7IdRw4Zh5IiRGDmyZRg2agiGjxiFESMHYvjwUejXtxxR7ZLdqMG2N22+PAahKIq790BJ+1KEOY4hpJHlOC9buBK1OY0fxyGXbRxXwdvA1xwB7XznGOSp0FTM+QJT5ldrhwHCFLSxjl0xom9H6AEnhNLQi/n12BqCOp40yjFlmq9mIU2Fi3Y58qE4Bg7shoKSEgRIN45Tj3oqce+8MgFLl9ayhhnSkyzqNbX6YeCPr8rld6Pk/fCCRqV7pWq+aXlGSytaa5cg1BXSOYld6/4av1TdSlRX6iCOqFmnDwXTnGt6rNBB2tEc4q1gzujRmin62TT4f1tDXuXkwwim6zBvwSIk0/JVuXAicXQuLUFZYRw55q0jMc3JfBZtjo2dS1l8HSioJCSr9EKBFSvFSckkA1i1eC7++58HsGD+Yt6NM3Aamo1MPuRQdoylk62vxivPPIF/3vIAqqpy5ni8UCKBvfb6GY454mAUxMKNckJ/m0gMftXRgRUrluPTz2htMccuXbtjYN/eZCgqj4yC//V4xdJFCzGf2rkssl59BqJL52LE8kGkaytRS0afJRWG3HWsQZITRSIF+MUvDsK9996P++97APfdfx/uu6/1oPv3338vP+/FvXffgav/+hd06eBZlz82xAuLMbBXD8TCZMTs03w2hdnzFqA+lWHXBsx635oRaTI2TSAWHAoGkU01YMrU6WhIpsy4aCy6d+uGrl06rYnJ62L5og19KixZQiUv471SU8sJXTu2RyLsnX9V27ASDzxwM04742Rcdu0tWLYqg4ief/sJw2u9/mqZxvv0x0bCMMQ+1Glz2thYX59DQ1o+JPY157JEeE3NStRrsxzHzDHKtda7vbRSvBVXA+h9tj7mgihDezZqG+owa/Y8JPN6qQvzYX5duvdDcQkVaybXrv2vy8fih4NHOxY/ThjrKI3FC+di0eJlRpBqAgZpsbz+v6dxyy23Y+HiCk7CICehHM3+cPM7raolC+fjzttuw3l/+BNmzqblGnKQC4UwZOQ2OOd3v0OfLu0QJvPw9H2fqehcaIF5OMpjAabOWGBOPurWoycG9Oxi7ge1wYsMRTZW9coVaCBDj0Qi6NSlKwoLwkjVLMLD99+Fh//9DqrqqAToFKXWQIYWCiXQuUsPWr5bYDit3xEjR2DUqFGthpG854VhGDNqBIZv1h9F2g3+I0QgnMD2Y8agfVkh9PakEC3PiRM/wfJVsm7FbtefiSbrqvDeR58ahqw1SicQwaCB7JuE99iXFDbBZ/aUvgw6OMUc+aIB5WceVSuXI1efxIrly3DrTTfj0suvwMzFi7Fg2XIkU0lay3Jo/zSxuu/03Ziz7FNzMpjGqfEehaK8FdXsxyeffBFzFy2XTs0gd38eUya+j48mfGysaG9MmtOuL4i9HNcJFqm5W12xipbxMurpFO7MqqCgGKO33AaFCdWPFGTqZrExoPlIW/yowImUdzBr5gysrKppnLrUnql1J2urcO+dd+C0U36N6665Hi+9/DI++OADfPTRBLz68qu44YZ/4te/PhWXXX4lZi1aBrPhOF6IUTv+DH+8+EJsO2YYIpzM3osc1pCJBLo0dZdWWT6TxJwZ01GdZJxwDD1690GPjqVmvVmcwpGlzn+1VVVm7Srv5FFfvQLTv/oUN912Ha657h489czbtATqWedGa7o5VBhDkMIgwODtjmWuvNZa0HGO0v5lVMgxqPp7z6D++OAGohgxfDR6dC43lqge1ZrxxWeYtWAxtAdr7b03X8NUOY56HePEz6cZC1sIRmIYNGAA4hHmbJJ6SpaXS+M3xo0VFFAO67tc3Xm8+fKLOPvM03DSyafi71fejqRTgp8feiQuvfC36NutCPko6Y9j8FOF9zIWEb9+aEmHyvKihZgyeTI++fgTjHt7HB647z784Q/n4p77/41anWqmyaKxpGCcN+tz/PWSi3H1FX/Dc88+jw/Gj8dnkydh+qy5qKqlstOoJGmufN1ygNmISXpZMHMW5uhJBw6Jniwo7dAFW24xFGHOobBxjWs+/3THa6MCB9TiRwoKN7eueqV7zZ9Pc4sL9HK7sBuh2kzBRdGmV4eHGSJuUXGZ271Hb7dPnz5uv3793J49erglJcWUp9SLGT8QCrv9Bg51Tzj9XPftj79wazIZN+/mOJ/zDJz+JnjI6w/LzfFf9aq57h9P3M+NIObGS3u5F/79fjflZFkvxmfELD+cTM59+d83uL07llKOh92i8s5uv80GuJ27dXb3/+VJ7psfzXDrshnXZTxH6ZrD5MXMWGZj6esB5cO6sy4O07WW7Y8BGt/6JXPdM4/e141zqhr9IlzqXnjjve7y+qyby+VMv6jfNFatQe3P5JLuey886PZoX2RoJBAIuUWd+rv/fu59N53PmfFKK27eH+2Mm2G6XD7tfv7av92hfbu7oRDVpUCQY1hI0yzMz4gbL+nmnvy789zJ0+e72Qxr4NS5yTzH8nsHy1CbWdlsstJ95PYr3ATrpPpFug9zb3niY8bQ2P/QA8/yRKvsR3YeP9Nufc1S95zfneEOGtDf7d+/v9urV0+3U/t2bjwccKnmaHsGx1WqaIj9GuPYcE6Gom5BcanbtXsPt09fphs40N1hz/3dtyZM4rio6ZorHDczWq3BMbSRS1a791x2vltWEON4sW9ipe7evzrHXVSdYvVYP/aPmasWGwXWmDwWPzroWVEdYfiLgw7G3669Duedfx4OPuQXGDpsJEpKy1BWUoCS4hineh6rVlVi+fLlWLZsGSpWraKVGkBxaTl23HFXnHfexbjpjntw7d8vw45bDERxMEzN3icNOcUaNecmiri+6pnk5csrUFLWDj169sQ2Y7cSb/Fjmzhawx615VbYfrvtUFRairDTgOqVIRx0+G9wxXWXYeut+iIaiJAj1XuJmkOZ0bJzjbtc0Mra18BYBN75QrICZcl/bfx14Nuk+a4hwydR0h7bbbMViuO0YLWTLp/ESy+/ilVV1WYZwMfX1ZfzHBUVFYjECjjm3ulVmw0egj69urF7m/anljL0t/E8b4bNx2yDU045yZyYVpgoQFEiRpoqxOgtx+LPV16NSy85H0P7dzGWVsAtRMS8Pfv7RJOWmq9ejeVtFeUZcmka54eGb2WqPno+nvK2oaEeK1au5BisQk1tg/FqFBSVcSxKUVLuvWO7jPNVc7ZdaTHasX+1stJQX4/KykqsXLnKPBueyXP42TRvhjWWsw6oB+rrqvHeW+OQyuWNx6igqBwHHHIISnRei1g/69GmfWWxFuzZ1JsI5EJMJpOoqqoyJ3GtYtBk1u+GhgYTcuYF6i7i8TjatWuHjh06olfvXujWrQsKCwtNPt/ksmpKLnosY/bs2aiurjZ5Dhw4EEVFRavz8OOqboo3ffp08719u67YbLNBrEOpeXmU59NT+L4ZeXOofl4dxeD8lum7Tm0y7nC1gZxebaKpwztqG2OYNVQvtUSYud6YQTPP/reG2XKXz2D2lLdw4nGn4MPJC5h5CMVdB+Ofd9+Gg/YYi0RjHdOhiLcruhlo/ugvli5digULFlAJ029QsJZxvPojFo+xnebS/2vvOwDsqOr1v2m3bUvvCUkgCSVUKdIFQRBBEOzdZ0PRv+U9nz5FEJ9dFJ5dVMQGIkgXqUF6DYSWhCSk97b19in/7zuzm7K70aCJS8L5ktk7d+7MKb/zq6cNoYJvbn+1n46Otg14auYTWLx0uTHSQ0eMwh6T9sS0yRPZ7llzz7/jHdGis6G12kPtQgrVqyXc/NtL8ebPXoy8l0d+8ARc8qMf4F2nHQaXNBko9NBOh3h/3bp1/1C2/h4kX5MnT0azZrL3m07azj2IqmU8fOu1+ODHPo1Fa7vMTPlDTjgdv7z8F5g6YTiyajPT3Pwjx8tiwGGN8W6CnmbsMSKxXgnXjR6loDFcs+sVD7OvcPchgUyf+8fjR1uyS88zPekLer5HMad5br5H5yk0KYvXGMWa8cgBghS7/m5Vgu7x5bQ+rAcVlepkvvNTVRCJFIkJ+tA4vUEanvFDdE0v/SsI+c9nM8bVdnzjG/+JH1xyLTZofN1rwls/+El8//sXYXg+zdbXe5D70amkOv+k7bNl22pPLi1/Sdur++IW0P09z8hNET+lhpz3y4NSWvzek+a/zRirTPpnxmYjFiHEkjkzcd0Ds9GSyyD2Cjj6+BOxz4QhLFPqMA0EDL90f/bQUZ//LJ160hO2SkOXt+I1XaADtWohPvux9+Kqvz6Oes2F3zwYnz3/QvzXpz6Kghcz8uZDjI4Tyn66G5vFQMMa490EWzajzrdUvEKqDHiyZWtLHrsvGqXb65n+0F8+adqbr2+ZzmYD3Ot+5al/Pffq8X+c/Q6GJsJ0GxSWTe+53bhxA9atWYU1a9Zj7bqN2LChFcVyydzT0NSMkSNHYtSYcdhj4iQMHzHMvAhDy8uMcTDQOm3Vq/vrv4AYNbghM3BjLF/6LD76no/irkeeRBgFGDZqIr75iyvx1lP3Q87NaiS4f2O8RbtsC5vaoBe2fFYT8IzSNm3Yc32zo7KtNHY0espk2s2c6LOOCo1wJqmzMlpb7yLo5umBxOaybqbjv1ompbW1Maa3xnZJqcE68/ckquGG3/0In/ncV7GslbxLx3f6kafh8p/+AAfuM44cquVUclS0fIrp9cc4Fv92WGNsMQDoMVxSIKlyEhf+23VnEppxvY0bNuKRRx/Fgw8+hBdfXIBnn30Gba2d2tcENW2sYZZdyRhl4AUBjXILXnXooTjjrLPxhte/HoNbGo2CM0E+FaPU2w6pigy8IQwVbN3B9X/6Ib7whW9g0aoNzC/A5KNOw28u+x4O2Gsss80g85ICwS3F/u+XVndufUdP+w2UEpcrJ5dHkGOnDmvHrN0VEseMffDKDmmFlzfEw2wH9caop8KlIV62eCHO+/D7cetDMxGxqYaM3xff+8HP8bbXHZ6+9MUMgOhFMjzXiokBa0eLLeF9heg+t7D4tyB1/6Qoe6IsHd2R178R9XInrvr9b/Cl87+E3/3hD/jrbXfi+TlzzTKxWpggyOQQ+L4Z1461XKxYQpFHe3sH5s6dS+P9IDpKVRx0KJWcxl5ZpR71v0MMgdajeOlGlJpQN2HiKKxfvhBPPTcHZXoKrSsWoRY34bAjj0RTY2Bine1Hj0EV/n5ZU3OnY3Pt/tEzOxeGgVgCOT4qHc8MU6lMitbTX18Rxri7HVVXlzzatWE1LvzC53DLXQ+iTEucaxqM933ss/joe85BU4Z3kTjpaEo3t9AYi44WAw9rjC3+7ZBCSA/zzRybz/99KHasw+9/eCluuuMebCwVqddodYMc9pi6Lz796c/g/C/9Dz5x3rl473vfg9e+9iR4MaOOhfM37fNbKnaZSWkjJuyDffeZgqx5k5VejtGzMcoOgEmIipNKM5NtwP7Tp2MFjfD8F5cgqdUxj5/FSh37Td8bTQ0NjIxYNkZL6n6UmjZ0VhL9Qr/0HH8PW/6enm9pmgcCyntzbKzDmGRzlvKSOUtPdhOk/gb/8CROxGfdgz38rhUTa5ctw7e/+Q386Zpr0FqmkQ0acM7b3olPfeo8jBmSJxfJUVE0LBqldBKN9M/iZQB1U1tYvBLRvmFR8t9vOjrJe9RqWSSBPzg55JjXJzNmPpO0Vmq0ddUk1rrZKErq9TBZs+SF5NMfemfS5JuFIWa9ruMGycRD35DMXLDMLC3V2tKdsXQz1ppQlkOfL86blbz5jScleddJfBSSXOPI5Ox3/0cya/6SpBSquHX+KfEYiLW2FjsDasctD61BFz+EUTkJa13JkrnPJG8/89RkcEMm0e6pXrYhOeed70ueX7g0KYZxUjfr7skcFi9b2MjY4hWLWqkDD9z8RzwybwVCBhyjRu2NL150EU494dXI0trqpfyada6OPEUUjU0FTJwwHk8+9ihWrl7HZxSLuWjtqOCNZ5+OPceOMJNrTIS2g4MNyqo5BK3rPvyQgxnZr8faVcvQ0d7KCP0FPPTE43Byg9AyeBga8lkEptyKqm3ks8ujezjHRLGaxR5FiKtVrFu3DDdc/2ecf+FXMOP+R9BVd9Aycize/b734/wv/g8mjR8D31XkzGcMb1peeLnCGmOLVyyqpQruuuE6PLu8FUGQwUmnnokPnvs+DCvo3b0JD1nk1KBpgow2HhkyqAXzn30Cs56bh0oo1SYjCZxy1lmYPnk8Jap7W8mdYACVpoy9Sydg8JCheM0JR2P8hGFYuXQZNq7eiOXLF+Khe2bgsWfmoD0OcMD++yJjtrK0CnhXxyaeIl9qu9tS5wZc/Ydf4TsXX4rf/v6PeGHBUiR+A151xHH4wpe+gve//90YM3I4MuRZn/5Y+u5w8avlhZcrqG0sLF6ZaGoejE9+8Vu44YabcdPNN+GCL38GIwZnU8VnoluJRyoixujCg0ejPXq4NivhXemOJUBUQqgBWkYfiqJ3BtIxvu609fIBL0bDkMF48zs+iN9f9Ud8+cL/xAF7TUah1oZH7puBp2bPQylmVG917+4B0zOi2DhJ5wPQID/97EzcetcD6Ko4GL/HVJz/pQvwm8t/ibeeczpGDBuEgDyqPQdSHtZhmeHlDLu0yeKVi7gG7Y2iV9VpOa+nrTRp8PweI7sJ6h7UixJojuMyfnjBJ3HRj3+PDaUM3LguIcJlt87Ae197GGLNwFaXoDHkOwt6T26qXBNWIHZCFEtdWLFkBZ586D48s2A5TjjjLTj+qMOQpf41+thi14ZZXke/jxFuHEZwyLszbv8LrrvrMfNu76OPOhITx49FQ94j78Vkj+7lXUnqxNmI+OUPa4wtXsEQ66dKavNZz7n+8ugRD35ox6o4bscXz/0gfvG7W9Ae601SdeRye+KmO2/B0UdMRY63muG9nWoBlcGW6adllCjHcYxaLV1vm8lmzVt5LHYvmNZWO9frqIchMpkMo+BAfmTPr8TO5D+LnQErqRavYGxWWFuqrtQQ64rO0k08FD0zfsbS2U9g5tPPoxRRdHhb4mVw9InHY4+xI81LMswaTmONdyZ6K9q0rIrGtQWk9jHWocln1tfe/ZDQEKtVZYQbGxrMWvitjXBv/rDYFWCNsYVFH0ixaXROY66bx10rHetxw1VX4Zm5C82Wi47jo3nEBLz9vW/FuJEt8Gn49KTG9AYKm8aVu9H7u8WuD7WpmbVvna3dCtYYW1j0giIPvd1KmwZGUQxHL0mol/DgPXfh8itvRGuJZpoG1/MDnHHmW3DySUchE2hDxp6YZGDFyowRdh8Wux+2bFfb1rsPrDG2sNgGpN48h0Y2KmP+czPx88t+jcWruhC7GSCbx0mnnYZPf/RDGN6sV0XIgGvZEYVKfdUWFhYWLwHWGFtYbAMaMdY2g8sXz8d3v/FV3Hn3g4yUXTPb+sCjX4MvX/RVvGrKHsihZqJodWlreZOz5bbPFhYWFtsBa4wtXrHYPNom62k6pc0ROp7Z49mp17FsySJ861vfxR+vuxtFGtp6Jo99D38tzv+fL+OQ6XsCGUbOTgtyTsa8ThF6h672V7CwsLB4CbDG2OIVi3TWtKAZ03oPcXoEISNdBrkd6xbjFxd/D1ddfQtqjHojrxF7H3wELrzwCzj5mIPgMQSO0XtNsoWFhcVLh11nbPEKhlhfM6D1cvYU8k6jMET7yoX4yXe/ge/9+LdoTwrwGPZOPfgofO3rX8Gpr301sk5oJnl5rs9n7BixhYXFvwYbGVu8gpH6ofoba/etKOJRQ9v6ZfjRpT/Ajy7/Myo0tH4ATDzgGHzx/C/hlOMPQ8bVrlee2VBDL5OwsLCw+FdhI2OLVzBSQ6rIWNGw70To2rgWP/n+t/GtS3+JtooP7bI/dfr+uPDbl+D0Ew5BztOyJgqOlpPwOXVwW5/WwsLiX4XVIhavWJhNPdTFTH/UpdGVIf7lj36IS35wGYqVKtzAx6QDjsZ/X/Q1nH3ywWjwQziu9v6lGWZErA7uUOaYzyuwNsad59a7tbCweKmwxtjiFYtQhlNWlJ+1Yhtuuf5q/OqyX6Gj4iL0Chg37SB88cv/jTNPORpeEsF1ArPlpWJifjNjxtrAX5uEaDfomKZZJl7TuvRpYWFhsb2w3dQWr1gkNLBaE1wLI8y65xqc+6nPYfaCNTSuOQzfa39c8I0L8e5zToVeqqgtMQOHhtfMuCZixsRhBXPnLcCy5euRGzEOh+0/ETk/Z7bDVAe2hYWFxfbCagyLVyxkiCMeLz77MC646Gt49sVVqNLwyrB+8v99CmefcSINcN3squXTcOtNOfJddbj83rFxHb77rW/ivPM+ie/96BfoKJbSbm8LCwuLlwhrjC1ewYhRLXfg2it/hYefXoAwzqC5uRkf+tT/wwfedw6afQkII2FGug5q6s02vc8Smmqlij9fdx1uu+0OLFy4GBUnB3i6V91NJnELCwuL7YbtprZ4xSKhIb73zuvxof/3GSxc1spI2UPLsKE45wMfxPhhTQiqmjkdI/LqNNs+PL2pieJS7OrE0sULcf9992LFqvWIkixOPe8C/Ppbn8CQhiYTNetVhhYWFhbbC2uMLV5RSLR3NMNbvZNp/ZJn8LEPfQK33PckqlEdbuzAcQMEDRl4jHDdWNt5xIhpkDUKrIhXndBxHKFWrSLUG50cvSQiwNs//01cev5HMKghDz+u0RhrpNnCwsJi+2C7qS1eIdjC56RBjsI6Hnzwftz30KOIIhph/pw4NL1JiEpnF4odXejs6kBHVxe6Okso8loXzzt5FEtl1GmIlaJ8WdpjjBs1bPNL3q0VtrCweImwxtjiFQUtSzLri+MEa9d3IGT0a95cbMZ6/wkrykcUbeedCOqYlkApDwsLC4uXAttNbfEKgdb+0lSS3bUuWMuaFs17Ds/PeRFl090cw42zSNyQ59vvo8qoJ7x/6oGHY989xyKgRU63ErEvkLCwsNh+WGNs8QpBaoy1lbQZM9YaY9PR7CNy03M3DrqN8fYbUm38oUhbKaVRcXeUbeJkCwsLi+2D7aa2eAVga38zdT9pQBOXptNM0dJVXfwnoOdieDGNOBO2HdQWFhb/DGxkbGFhYWFhMcCwkbGFhYWFhcUAwxpjCwsLCwuLAYY1xhYWFhYWFgMMa4wtLCwsLCwGGNYYW1hYWFhYDDCsMbawsLCwsBhgWGNsYWFhYWExwLDG2MLCwsLCYoBhjbGFhYWFhcUAwxpjCwsLCwuLAYY1xhYWFhYWFgMMa4wtLCwsLCwGGNYYW1hYWFhYDDCsMbawsLCwsBhgWGNsYWFhYWExwLDvM+7GlmRwnIF7RfzLpRwWFhYW/wg9+srqqn8du5QxjtHJAjfxLGLJq0jg87wGBzn+5vAAPB5upCox6Pf6Bv58knfyb8I7nZDPeHBJgiR24TGBMIj4e8JzH7EbM5V+Og/0OC/XnQQZZRV1MyKvRW7C5x24sUrDMrkRL6ucvaCfUeX9Hk/5DMvjJaxF7KDuh3yS5WPaDvPwwgDbSsJN6vwbUChixA6vsNyuV2YRVe4MYqbnsXhuzDomLBfqqPrMi3f4fKbuZPj5rwtSbNojgM98SErmJyozXZY/pqC6ognrI1L1UxUDcWLIz9BRK9VZRv6LRYcYERtHKSqPIPGZrHhAD+l/grragxQpJBkl1Qdpm/MmKQ09o2dFL/O0rrGEorduFun6Q9qkPFRK3mxuVLr6qh8Slt3nUUOWPGnS6oWYfCEeCaIq6ZJDzXWRJc0it87yi6Oz/I33mfqm/3YKWBcVO3JLPCXvM19H/PFSsgtJO/JqkgSosf0zMfmQbSfZCT3KJdspIY0d1k/tGHuUN8dIKHmd9OZ1k2E/eUZqfz3PMkVqNpbSI08lPBx+D3mo5YJEMixeoCyhCUGNtCQBY7aD6hWwnuK7hDKBJM90ary3Px6h/DA9NbF4VUXS81V+FpISnwnIm+Rvylud7e+ybJ4YnechZZh/SUPJknhiaziO8hbXq0w1yoDyEsX7liMtQUo7yY3u81k981t/bdPPNbVrzakgV6f8G+GXPsiQr1g20lvll45T/Xze7GxDIvu1ryqeBNUj//J56RlSnCkEPOtbdxXdlV5T4dV+HltN+SsdNmTCTPSbDvGOuY11FpSyUuhXf+6G2LUi45CCLyGj4lLDO5EMqlqVh4yrOJP8EKqxeUo2No9tiYiMbhS8lIMrpuRTkY9y0Ilc2MjvFADfmEcqA/6qG3pBzMdcIF3iUKREQDF4wHRco9GlJiSoSkXOQtY8tyVCphFT1N2kwHz4jJiR16nO+aTHZ5ixLhvm7Z8hJdISV4mCRyUvAxVRMaasLDABGUc+WqNToNLmSDPjLqSZGedj8/3/JCRMFPSYki3HRqVyQwmXcmTbmLxT5SKT6bIN9UtvSK06VHBSng4FWG1r6Mg0HWlg0YhpJVQoDpWeFL2phGrE/PVsIkvWC1Locgd67k2foyrZpOzTdKSEXXkL/ThxgprJ2ZSnys+Dp90lMDQ1P0v5enme9IWqFZHvfCqm0CijKvmGxj3JsV4sQY8yF81UZ5PPzkCFjkGOTpPyYVlYZ4fXPDoR24uQbSkpM0ZJdeefxK3xr+pBh4l1FNSKbCBTFZdyKgWsR8S/lJh+a5gkFf7NdP/GZymvSrfmVfiMys3kTIMwFf4mnglptXRN6Rtj73Qwhzyfy5DnSGMJgmTS8OHWkNwxCVNulVUSDMqzrslJjymHEfkukDxJvpW+nmN9ZWjT8rA9eyznFpCZVkt6orV0D5GwwE6/no+oIt0QMH2aJcp0YsrNew1z9YIR5F4Qv8tbIer0RmTUZOAC3po4dVaPzr05T2XBkKO/ovCpvuAzklHpI5M16yTdq2r1Xx3SrcYPpSX3WrxCzce8fTpvgVESTMOl2yN5ZL11STC6g3k4xoHb/bFrGWO2V0Rmr9Ercyhg8pypRlIGYyO7UmRsOBlJcZh+7QMKhBjTJZOHnmI3CZ4YRB49hV/CyK9iIE9RVn9JmD8yOangpzpHZj6W2DN1ibbOGBEY5a7fe4EevUgv5nOpkPV8RO+7xkrKw5YjIROSeowy0CxXb6jp+HuN5TVRNXOtSdnwJx2ehIRG0aEiqZHZXaYrAdCPEs+YQqB/2aSvs/DSIDror5KWKtEXUpbtonIFbJfY9XmdtSD9HZ73B7WE2kFpiDJyQlLVpn4CRcPyvnmFyRvFx1/S+2RYdaeO/oyg6iqniIQyB50dKVM1pLLkh3ogEhpJOQuOU+BnX6g0cpPSNFKIjopkepSNS/oaI+H1r0D0k+iunhDRRz0JjFVMG/oRjYwUjwomghoF3P3gjgbppRI7xsjxKy2OcQpfguJT9KqWMS6TeE2K3fArW5oGRIGYcqGk8Y56GjvxPkfKl0/GdFK73c6+YNQdST5JI3IP02C0zUO9OZI5X0aNsiWjVqclzIT8Tr2QOlYslQxYyCg0UE8Fo0LWTfnIIey3hvw9/SepFr/UmR/bhDpA+iEyMkhejqQjRCbJq1KkMTYpkxZ0rPurjTF4hl/1a8rf5hnjlPaCGoO6pcKIVr1XHtPVX2kVo9+2C6xBwsiVt6vsGek0k5/qp59ZE7UTdZzaJkNHMK1Db5i7+8DwvKk7ecfcIgdbLdm3fCEdvDTyZeurQCYbPl8nPegopDpYT6pVRJdUr6bQzfq1f32xu2GXMsYRFVdCpZoqaHlZUgL6QYKYGheX0YQUnWGM/viLElZh5JthWqbLNCQ7+vRdqxQ6n0Lnl3itEa5bJrPKINJ49YYR3FSkkpieuoQkpPIJygxoKJCmjDSoLFNYpRnpzz4oGGLZ63QuAhmoiKbIo/HnpyLMVCmoDooepMD6USEsgNKQcBgFwUvGgDHfRJGiDA7rpBv110TJTE8KUV1lxg3huYnme9DDDkbY+sE22CV1iHJUfIxoaJBcOhaOU0qNEz1xY6wC0oyCyY/+wVtiOg0mkpJjxO9yMFSxRFGkfmGbpOaD51LIjABM3RRJUrC7a5qiu6j6kG1TjZWonpCjoihVyjmhAk+pLSXOG7fpLKh7knkysTBmHM88zTNKnKmbchvFQyPTD9sI5Aj+Td0N413WGxgssUxsNw01iG9Nu6uMKsq22uFfRBipV4Z85rGuVP7014zydt3+u/l7Q2qDTc6qkKaM6EUbRfKSUZ8FV8+P5FDRl+rgqdqql6G3un1lsJtFivTohZBtY+4RzRmhileZNB0WGv8s6Sb+MunLFDDK5+3ZGnmGbRKJFxj1q31NPyx5yqc8is2NjpAT35uuvFd6RRyUUVRJOazl6EzSyIdMQ+3iq/dHsiVZjOiAMQk5MF6UZZ4sg6teKbXr1pBrLh5J82T5ZAzdrDExfcqhxyNSj/kYI2bkmHX268y3171Cv/KY5qVSq5ARysw/TwdCaairXGmzQUyPAitOx3FTKtuSbx7KXWWQrMcxdZ2ciThPyrDe/agnIU40LCDdwHKQ7hpBFD2gXknpTZOw3BxpdNFTtNUZ01aDUcF75K9XAnYpY1wkU+UoHA6ZYFk0H0trz7LNXGTDBozOTsQodwINW94oSXXv9tdNTb2DKgWHehtPVf9GJtBYUxUZdzAO8I9hehRAKokgpkFl2v2lATJYSAZTVOvXfRS9VsyuPk1nfh3TyqHRyWFK9igUqDAiep1BP7wkqsunltessZwuPvt8+XG2CCM4Ksh9/EMxCKNQDorI1AtU7n0FUWnUEwmah8XhbKzCIio4+dMxxjmTsUcwlQKTpb2ispfhYjSUUDF5TG89lmFB+AwVmegkUehGDzf0I/cG/XELhcankE4NjkcDBUdjiIujxWitz0eNQp9PmrFXfjoGJSNRI+EDV85SX8Qsnxlrp9B2oAsLup5m/UlT0m9Esgf2zhyIGh0paVmNSXd67VhSmY+2ZC3LQKfFdJ/1JXaaFw2gse4eWy2PBr8Zo5zRaHRbWHwpUVlPGVKqXVnBfpAoapcB4HlIHqqihJW1pVhZX8Xv6oyMMNYbiT3cg5H1++/u7THoirycesg6+JhfexDlpMP0XoxxJmDPYH/eqahRBnnnKKI25je76wkGKHSY2HbN3lBMyRxAnu2/V2BL9KiM5bV5WFSbSzMXoO7VsJ9/BFqCYUbGIir+XK1AOZ2HhfHzpnckkzRhYv5gDHGamaecGTm7/fNCNVb3fYbOagnzS8+RH9bwaoImbxim5PalM91CvtCT5IWwjsdKt5O3mQfpWpUho1M8KD8ce+AgNEQ0Hn6GNKcD3z3HorcRjGSUyGgJ+XN1uBDLKi+YOrmU35C5Tw4OxATsQ53AiJkGIuLt82tPYWOyhHVrJOuop4uOooxcL0S8lmU7N7qDMCwz0chDlnUPkgbz+5ZlEWkTyrSM3pLaC1gZLyTPaTzfeD7pTVsWvR95lIMiGZQuichrIQOLV2XPRhNlpsbyB7zmkCazKo+i4raaNtiErdLbIiOeqpxZ8uQgpwUtuT2QZb017q3eAxMs9KKpENODUs+PQx1Ujdk2dNBXV1dgdvI0NoarUHQ3kr4MaNQ2bgEtzgjs5eyHPf19Sa/hLI+PnNJ+BWCXMsYhI0i/5qGY7cD15ctwW/VybPDbUajncSzOxFuHfAKja5OoCOhF0xWXkugN9WbGLs2604Uvb3w3lvkLeK2CyfHR+GLjj9Hit5BhchSYhIZDneH9gGnUvQqZjN5yJYM5/sP4+cbzMS//vGHs8Z0T8JGhP8D0YF96dpl+y2GiVHm+FPgaC/WUMwM/XfNFrGtah+baCHwy9zUc7Z2OYtCFhiKFPZXbraBIKnKK6OTzV2z8X8zIXMnvjELjLhzRdSrOHfO/GBXuaWihWCWkYnGdTjoQTfhbfDV+U/km1mY2mK6/fw0OhnWNwX+PuAJTqnugK1PGr4o/xhPVa1ENOlmG8XjvoC/g8OgNvJfKKiPh6iu4iqq8kEaThu0p/1FctuwCrBk2l06Lg1e3nYb/Hn4pI32yKx2ybC3AC9nH8eu138WcxocZvVTpqGWoeDYbr026QdpJupaKWhddPs8WRnMyAlNpOF/f8HbsGx/O1syiEtDh67ermxCZpCzpfFTJQ13YgD+vuQz3+TeimG9DUI1wSPEYvH/sJTT0Y1nqvnWUqlYUqnjOqTpYlVvBdv8oninMNTxxdOk0nDv6i2gKR9O4UGn2O674r2MRZuFra9+HjUErDb6D8eE4fGHwrzHCndJ9h0jVN+8edaHP6zt/gJurV9H40XgEHj4dfBdHOCfRUY1Rz5Ypl1lcU/4pfht/n4FsGS0dY/CuoRfiOP8UFMIc4oy6KNW30E8d6Syg3ITlhYX42fovYR75wYsCHJScgA8NuwBDq2MRMg9F2+vojP3PyrOxsWU9XecaywM6Ajm8rngc3jziuxhaaUZccOl4MD6WFdWcg1510/Q5r+qjQn3y+65LcHvyexrwmDonj1xSwun4EN7e8t/IqjuNhq7LacMVG/4XDwfXo+zXjJOb0GiKN3ojqBaoLyI6FjUMiYbg0PC1OLH5HEx3j9pUjp5P0TVmIFCmzF7Z/l3c5vyC6Ts0oKJVf+jPWWOYoGrSXXSYX0u9GRcMvx3jisPQ1dBuhqW60I4vLn03Fg+djYBl7rcNuqF+Ok081D3qodIkwxGVYTiQWve1w96OCcl0SoxkJq37lrQ1I//SuXTOZsX34ubOKzDHeQSdmTa2VIX+D0MSL+0NCmrqv8giHzVjQnlvnNL4dhyZPwUtGJEmtptj57jdOwssbZLV6JHGPEKsLyxBsWE12lpW4HbvT7i/djsjxZKZyZnpVpzpH31JT+kU0tvN0J4ysvJDtBVWYM2g1Shm1qCeoYL0qKhNBEVD3I+Xa0BtqkkkPpVDlKWCZ3rt+VZ0NK1BNbcaC4Y9hT/WL8a6eDWzJsPR2GkWpQRNKepcnjR1LYvE6Jr1UaS3rnE5WvNrUcythOvSm6dEGcOwDdtAV4r/M1hVn4un8neiXFiHrvwadDYy6ml5DPPrc+hYMh3KhplVrQiZ0UnMeqtraUN+HUqsd2uh79Ge30D6bMDKhpU8X4cOKql2lq2V6fccbYW16cHrHY2tiKjoXFYqoDHNxiFWNy3B2sal2JhbT4EkzQPSwHSbb0Ot8KeIDafur0KcxfqWF7EhozKuR7lxNQWa7cpoIvB9alt1/WWZ/3qsaVAZNqK1YQPLpfKuQQfzbMtuYN4bsIF0Wd/Ie3SwbhvJM2ualmJh40z8pXAFvlk+D3fXrmOUSsck2vYEJtl0U3Tyhk+FvD5ag3sbb8eywQuZ7wosbtmAJ4c+hGVVRpzksBpbO2EEop4UsaDaX52H8gjrrGOSlbMXYlVzJzY2riQNV5GnV9IA+Mah3FmG2JSDEcdqOn4bWOa2xmV4MTcPF9e+hNVYQadN8bsm1JBbeS6nTxVIB0+MSjbRlmYQr2l5AcuHzEHVbyVN+EuOEW3gSjoYRdZQCtopo+vIU2uxoXkxfUrVmfKbSbspt1XD2KH3mdf0qwJK2XZsaFhBOi+iEl/L5xtkD+n2qteKUSNp3dm8Cmsoy+3kFcnQxoZluL/hQXS6i1AvpDM5GL/zIUr+FsaiB15MJ5ZWoyNZj/k0FuuaVmFdYSlaG+fwcy1C6QZGp4rm1XWqnqDOhg6salrP31dgbaHNyM3Gwmp+ruMneY8ytJH8uXLIQnQyrWJuLZY0voCbG36G/+36D1xb/AHWk+IIaa1IalFdvTeaM6Lu465sK/mVcsjnOjMbUc61YRV5d0N+NbrckjnfWFi16Wg1eeuQfK7GuoaNWE/ZaM+GKCRFhA1VfrawnbSmAlg/ZAlKrNu6hvWUs3a0UlY6s2soLyuxgTRvy1OGeLTz6GA92tmO7Q3UDdkVmD/oSVzX8nNc2P4u/KVyOdriNSw9+aOezhIgi/EvSRXWGfisw/2lG3BJ6bN4OP8n0moNStQnJqAhj2uo0Y0oE3TqKn4Fa/JLMbvpIVzqfA6/KX0bS8IXUabzkJRjfibU8Uw41jyb3Qu7ljHeBor0SjsbV+Av9V/iOWcOG1fzcnui0R7BYwuaU7XkzoGc4pCRaZUR9VzMwD3Rn4zRM8spyKqRQ0VAvebSMKWa/V+DZquGVBDPRY+hM2wzHe5G8VOQO931eL42A1E6+EbDFaTjobynTm9Uk16CWhNylUFo7hrW58iXWtCRkbfvUR9rHDyDXJH30rvuOZqKQ7uPIchW1B3WzoNZxE3MSx3GEsedA7lDpiUZ7fr02gNGu82l0dijNA17FKdhIo9JPNcxubg3JnXujwnF/TCytA8aiuMYrTSwrTQeFWN5MBe/CL+Fe+u3sMRdJv2+oKJxNI8gbUuphSfrd6HdWU5y08kgmT0NN/Dfk8mjiOs02GoO43Dxj8ZWZZFfJjBj8SyZWKJKbVjOlbGoPgsPVW9iVFVHUFeZZRxofHcAr+5ckK50SkXjUL1ibEXNWO/yS1hUeW6TBjDmQVa8P2h4iLK0KpmP5e5i6hDN/u9vBDhFrDkMFGZNMFNHe7ZewKD2kRjcORiDu4ZgiD51dAxGS3EM/HAwctEg1EjTkBH3KjoXVznfxQOVm4yUSG6kG8RD/aHo0TFnOqPaJ2BY51gMKk7EiI7xGERZ7TlauoZ2H8PgV8ciV5ZsNmFQucWMfcvh7w+qdyHOYVx5L0wqT8fk0n78nIo9ylPMMYHXdYzrmowh7aNY1wbS2EGFsrC8cT6uTFiP5CbSVmP5pBmJpjkpmsio1QIzS3/Dj+sXYEV2PqpBnfrPQUtlHKZXjsUJxbfg1NJ7cWL1bTi4/hqM7mqhD+agnY57JdOBu3AZrmr/LjqTDlTpwGVYVp8OYuT+q5NOX37YLYyxlqdo6cGS3Cz8tf4rVJwSr9JD28R7OpFY7VxlKJ2l9Y0RPb719CTvqPwBz8YPmfK5YWC8XdNFqaN/uXhJ0LhSu7Maf6tfb8aW5d0Pi8cgS8VUyxXxBP6CVm81mV+SzgcMQdTllcER7gn4dtPv8MvCXfgRo7vex/carsPkrglopPKKGN1MS/bG15t+gx833L7p+EnDHenReAe+NvQa7BMdRhOptbNZGnspK1PMFP9Ufbf9kLrLzFIpOmIFP0PDl8Vk/0B8h+X6TtNt+G7THfgu63Exv3+38TZ8v/kW/DR/J36WvwvfaP493hydi4mVvak0QnrkCSOhF3BX9Uqs9pZ059AfJC7qUgPaGNPcU7kZZUYvmgA3vroncl6WdS/jkfhvaHNXUxmZqTK8nwqK+WzLqCm9fz9UMoJKU4agyy9iY3Yh7q7/AQswmz9r7TojtFgK9eXjRPRFKtdObOJtRq6KLFPZ6KAyf56OUYgSlfffp7LifU2sepr3b8isYjpafaD4MYUMzJYwE//4mU5cBApRE97W8iny2W34XtNf+Xk7Lmm5A5e2kAfzf8YXnZ/h3bXP4NDy0TTMPjJ0HNSDc138Myzzn6deoAthytg/j4yvDscFzZfgx8134P9absTFQ6/FD5tvxQ+a7tx0/LDpLnP8gMdPGu7Ezwv340ctt+ELI/8PLck4pizK9EW2nsHB4XG4oPGXuLTwV/ww91dc2nQdZedOHneYz+833o1Lmu/GN5puwDnxJ7B314E0mgWjc8rBGtzedhV5fpUxwqqD+lH0d52zGDe7v2M0r3kVETL1PI6vno7/KfwQX276BT5f+Dk+nfs/fKrxElzQcAUuHPwXnFT9CAbXGzWhntF6EQ8Ft+Cx8p3GwZIEpqnvftgtjHGe7Z8jg4MK+qnkRqMka6ZDgx5UN1ukTN4/o+8waDoqBVhqThHxWgr1VaXvYDkWMVJSV7RukvdIpSFD8i8iZC2fiR/BAvcZetsVRjMFHBadhpZwOCO1BEuDhbijfg0VScgIjVGOT+XCQkgoGzEUk5MDMTbZD+OcffocY5O9aMQZ1bNOMY9c2IA94v0x1uVv3ccYZ+/uQ/fvB1+yTiXmMzrXkowtlbjp3FT36HbWW/elt25L7Bh5ygunIYxriekeH8R6t2AwazacfxmdOMMx1BnGsxFmMlyT28TvLTgAh+GdDZ/BB7MXYFTXREbHDpWEh0XefCypzTXl7AsWRhNpYo1Khniq+jiWZxabyTmFWguOxVlorrewXRlpey/iofAmVL2SiZiFVH30FTfRpY+m/zcgHYHUSJ0mlGnZmFYTxFjoP4M/VX+G9VkapJil1oRAE9XvGJh27T7fXqQl7U2j9Lv4XLFwTEJrYpI6vguM3DK1AiO3MmY7T2JNsph3sMaso7q0+4ePjV4rHq89DG3aokmNOTqxJu8tst7MvjHzIm1kRHlNrD66NhnjsS/20JHsi4nJPjz2xd7OwTgi93qc03guLvB/gWPDc+g85s3yrPXeMtxXvZO8ohnhqZz2hzjJYxz2xriYeSRTKXOTMYGf4yl3Pcc45qVjAvOdlEwyn2N4jMIUpssCpgqoD1zyv7rGhzCHRspMC0YbeRmBkTz0OZoSpfPRmOruj/dkP4tz81/DXtXplHkNVsRY6i7A05X7aXDTJYSinOqzOF6IF+PnqHs07JHg5Np78dHGr+Ng9ySMoIOgiWwZz0dTPBiD4rEYF07Bexs+h3dHn8fQ4kg+EqCU78Qjzo0I4y7Kl/R8yhG7G3YLY5xj1KluIhnejcE6XFf+GX37J9hcGsXo8aLYgNuITHYY6CVSg6Gh3IJMnEXRK+Op3AO4q/Z7dASdFFqS2yg2RVf9e6nbCxkMTYB4tDYD1Xw7a+mgicbo9dm3Y0x1mhlP7QxizCjfwOh5rREMCU26bIaG0SgQKmAWQ2PovQ/j+fMm0c9lXTTi5jLN/u41y7+YXpXCHjs8Z4QhL9YsMdlJ0LIcV+VjBTQKqQk42nRF3WSir5whKUtNN9E3OWQRNMFGA/A5RibDcaj/OrzB+yC9ey13C1H0u7A6WWrS788gG4MgujvteDy6E5VsGx0PH0PKE3BM9o0YX9/TKLaq34l76leizUlnqipiM3R/GekPLZgTtHpXkVGm2ogMjU85U8EM98+4q3IVfyFfkV+lXPt3UF4eSDevqMPTpjss5qB4KJrDwaybhyWM8xd7c2iINShLvtQkvn4QOVUsjJ/C8mix+d5SGUXnbrw57w+KZI3wMJfIVbpV5KmDAskKD59Om9Y6a2mfVw6QCbPIJAWMrE/Byf45aAybUKLhUt/JM/XHjXTKaTa7kvUDh8a4QIdY6+FTmRNnafZ230POlcv8DL+RIFkt82Ibmk2S+kGGOsuVA837a5Rbdc87WntMOdaRrsnXpxxkH0ngY3//SLzafz28WqORwTBXwdPxfZTCspiLedHNI++01hYxcm5FZ1KhszKF+uldxsBrgp3HcmmJV9ULUPF0v8a2A4xKRuKkhrMx2T2QpY5QTapYRIO+Hmv4jWWKZej7dyx2ZUgz7zLoMaXGpm5hV5uoWEfFU8nwGWjnyDX5ebij8w/QpAInSn1q03Q8MQxlrhhr1J3YP4meR5UUP9RdqS7gQ7OHo7E+2Bijil/D/fUbMS95hl603AVCzKoimHKk6CnVtpFGAFKKZkIYy742XI75IRUNr+vpvZ0jMYle8P6ZV9OT1nIDH+u8FZhbmUkmDlk2jV9rXJtuikdP1aNioqCJ4Xsfoo12u5IJ89wKU6eQen3v06FdggLSWd6wugfFVDKMUkgvBVu1BIkhemybJlJKdGmoeCLWR+ZOm0mkXcHdXeTdD4u2ml2qDU+kJLTrlLY1DBjSHJA7Hvmw0Uz60zK3jfH6bRgeXVO0X8Oa8EUscp4ykwg1keug7NEY7jEmcg4xBkEO1yI8ixerirJVMpWPinDblenGljdsRY0dDi2XkeESH2q2/17egcjVh7AEDkq5djwQXkfDNM9EiTJium7okv7fdAg9nzu2yL0TYy7m0pbXdU2tK47r/p30VlQ3KhnP6JN18brwRPF+0l8zryV6aXuozKqOGV8mb6snbWbHbTQMbbzoYlpyKBrjEd36ojf0tCRZOYsulBJFhJQXbWuaaPIlPTytX4cc0hxz0MxsOuNhLsFofyKanaH87qGU6UTdbSffSOaYE/kpTb/7UAPx8Jwupl2msVRPheRKPXDMXTzfz1HnLSHLIMrIOMsOb9lVn2qb9Htrpo5KQBmmI62Nj4yja3hdikpHxHPSjIdomtEkxziPPbAfy5VF2a8YGVwbrDXPqBqpYXGwjvKkfRea6aBkWX/XDxDSeJtdDrV5k1NGlrJIEvFu0TFgEzJKD0fi1ZnXYFDnqNTJqGbQQRqYDXXYYtvqct+VsUsaY6GHrXStqdaCN/kfwOSu6eaHGpnuUe9WPFK/zfCymULPvz3P6Caz4JxeslEyfaVtu6FnTbrmj7xb4MDqUTjFfSty9Ga12H9ZZjGuLl6MDncN71f0zKxpEFLd1hO7MyFx8d+BlEaPQtRs1+eimVjnLqGhcZCPCjg1fybyaMHR2ROpWIcaj1dLCB6PbkclpjKSYqWQqUzpTFQytSqgaLLXoXvoU7O88lh1p4RaEtP3Xh3aolJ7RitONXSlAPOEx0uB6JAeelJV1daD/UFdgyKkdiWqeFprTUGXB2+eVfvyOZMAlQMVtG7X7kyhugE9KtFIuzI1Ga9bv2v5hdYfa6eoHmPc2yhrwlyZdZsbPYl1zlLe69OQN+OE7Fk0aHkclT0NjeVhRn8p0n64fiuqTptRHaZG26hLCv626fedL5ZazqZ6axMGrZ0+znkdDk1OMb1MOdZzQeYp3Fj+DWpxxTht4tKe7mrRRUNAcQ99upv579XuJUN82ZOwSbnn6IahlajKf+Q73S5DGLJMg53RdEwPZDuwrakLZtbuYXutYrkVFWvTC5a/OylTL0rTunAj5ekBVDMdaKAjfUz25E3O65YlMeMOfDbd/EJzQLS+XTKQ8qq5bxPfqN0J8Rdpqpy1NLMeax93OkG82Ql9DI7yLLv2KKehUjeNHuG9PXU0CoNpah95OXWKYLXCT3yW8kqvg8QIFO1qYZHKwojTzFXhp2Dqw+vdpTNL0Bpqqa5S711IWWZxeY/yZZvrXpOfnpQDTDljlSPe7zC61Vpj9Qxo/wLTHpofIaeAEpXzmlh93pwU2AZrsaQ+l3yjVOq08QwYWPeYdFbScuxTh59loNE+ODgO7/I/g/9yf4zzGr6NSdE0BHVTMFOH3Q1qvV0eWkixt3MY3tz0cQyqjjUs1pbfgGsrP8Nz7pNkYE3GUPdL6hXvLGhzDZmtpmgwjfE7MTU8lJ4kvUBen5OdgRu7fouOuERGE7Omz2w3jHKix0qvXY1WRREzwxkU4ioo3xjHmHgvd3/4TgP2cPfCAXgVeZZMTo/9OfcBrI1XGsEx0RApIlHVdoS7KrS5grr6ta7YvNCDBsULG0giEsN4zaKS1E03i2tCDmmoKEGiHNGbl6Gc2XkPir4WIql7L8Iwb1J6fx8wLdKz4lQws3IfSn6JytrDxOQA0nsqmpIWM562V3wQMow6kyDBHDyClcmLLCvdGuo0bf33coEiEk1ci0kPabZxGI/3ZT+DPSoHGBqVgjLu9m/EY+HNdFgUVUq5KrrjKeutjRyMhn4ZwKhmGgA5Y9qWMcvy7Zc9nC2qzThcbMwtxzOlp82dZuhCBip9kBGpOMXFC+HTaMutIT0iMxY7xt+Lz4uP+q+jqq7tMLUBiCLHbI2GKNbYuwjk0gDxU+rAfJfjI6eB5sYr4flkJjYk63lZZW3C4d7JNK6MNlkHrQzoD3XyqPL0u8uuISZ9T03q1oeGmMqMOrUJSayhM/E2k9XQVX8oM20dRVl37ZrHPLTrmYYytCrFfJKuOuraXY11LjqteNG5Hx3eWuPQafvNSfUp1D9aKaL7RSMPk4JD0BC2MOJmHsEG3FC6BI8l12G1sx5tXhvqjPaN0+C2klSMfE1EnpietUnxfjiz4UM4NTgHh2ROQSHIoJ7RSy+ypMPLR5Z2FHYPY0wmC8kkRzun4dV4bcqSZOplDXNwTekHKMWt8Kp5cYxYtfupnQAKWy7O0ji4GOtNwZvdj2FwZSi/11HKUrl5V+M550EqNCmy7mcIeZOpiP0jpIId0rNegufxbPKg2aEoQ8/2APc1GOKMpdD5aIhH4hTvDBTCgtlYf4W/BLPie1DRuJm8VEYMaTwu4Uu95R2OHoXXg+769r78T4PpmZnrFFwlraNK71xKwXQna4kXHTBF6el4eQ+NQ9STTpSoDO8M/4g7gt/yesKIsICW+hAzMcZl+6UTyLoLTehZjWktDp/D057aMGL0EWC6cwya3BYKEqMAKv9jmk6jA5ZjWWpY6S3ErOQhKg8NB8iRUm/EwMPUy3SHavc6z0Qukorxyd44I/goctURxn3tzHbiqtKPMC9+wfCNr2nXJrrkVzOmKJoqytxRjfrPQ5G6AT981mlv/1CMqexLmnsoZjrxVHg/Sm6J94kTVPS0Z0o6oZIU6bA+iFYahyzrdUjwWgypU5b+Tr1SzmCuPJEkeTRCRb+DdCubNybJyNTcSnpOI1d0O9COVtyDv+Cv4W9QDFqRCQPsWzkQR2bfRHOX7qFt5LMfaBw63Uu6E1W306StdbkRnaqeI+w+dG5eHBMxDNF9lAuzjXB3z0ZvSA/IkVE9tD+Dxt9D6g0FMIpWjc4k72uZEpKK2TDkkeo9eDi8G2GQTnYbVBmBAzNHmG5ukybpokh7vDMN+yQHslratdDHwsb5+HH1v/CT8nm4sfRDPFV9gBHzBnTwmZoMP/lSQ0bGhyGfahcGtacfygDnWc6Al1kP1nF3w25hjPU2FHmdWb8Zb8i/G+PKe1PQ6NcyinzOuRMP1W+RnaQ2NaojfWgnQJPI5BGKmTUSd2j2OLw2fJtZ41dyHSzPvoDbOi9HrV5OPeduGJ2/HQpNY57aPL/qdWFGx3Voz63mxQiDo3E4CCdSkZCZaWhlGKY6h2FytBfPY0ZzIWZUrsNGbwUFgkJqBF4GWYZ4x3uYpjrp6SbI4UixY+gvYZUZVneb/H1FnR2NK7HBXYX1WIn1zipsdFdjo5MeHViLctzBiGQlHo9vx8+7vozLw69jfX4xja80UIzDaq/Dft4hWxnhzUgYbXTg3vIfsTGzhoomg6Z4KKa7h1EZ0QGT0Xd9TPeOweh4D6PcypkS7q/+BZ3uOipP/r7jSf1Pw7xViURUN6s6UGtUgFrHeXz29XhVchzy6sanQl/aOBu31C7HWm85WUX3pr06UpoGO0+cthtqLUXsaVcnDxqEpmRUOnxAJa7la4v8p7A8XsRf2Qgss0OzaUC5XEteeT56kG0U0QiPwAH+sSg4eoObXJT+eIFg+6qr37zWkWmU/DIeKN2IP264FFfrWH+pOf/jhkvwx9ZL8f2uz+MLbW/HpeVPYZH3PHI0jmMq4/G2/Llocoay3Nr7mobIV559UY7KuKt0DW7u/AWu7/oFbuq8Ajd2XcbPn246bu7oPjp/hhuLl+P64hW4s/RHrI9Xs8oyq/03Vp75ulGIjViErmQDje1afq7FBqzgQVlCKlP6Pid8Ar8pXoJfVi/CsuxsNMZ0PCmDBzsnYkr2IMNXcnRMQMS0h9NRPSv7cYzonGp0nvqg1uVX40nnZlzpfRMXRe/A5za+AT/f8Cnc2flLLHWeRme8Hm5N+yWElFkPHdRxlaBCFZm+MkO9YIm2IN3NsFsY45jCoC5ZxjfYK3kV3p4jg9cGUzgTlDLtuCX8LV7wHofe+LQzq1zTtnjqOzLQ6E4eb27+CI6onGxmrDrM+ungb7ip+it0eK3d920fzPo9MrMm1HQy0n8C9/ErI0Ey64h4T0zx9yMdKAA0SqFbxCBvDPaKDmJ0TMb1EywK5mJu133pGmxGOGYMiUpYI6W7IjSyJHFXBKBgTcZkfuVxfLH6Vvx3+Wx8vnQ2/qt4Fj7H4z95fKr0Rnysejw+UTwR3y6dhzszf0Zrdh0VUQPy1QIOKh2Nk1reg6ZwUHcOfbE+WoFZ0e1wPbk4LpXpntgzO41Gi4pUk8MY+Q7HRByAVyPPqEdR0dLoebwQPkqFTd7rHg98OUAv8YgcD2XzyklGRJqJTKci5zTh7NxHsE/pVbRTLios95PJX/EYHVpFWWbOA/nYNQ7nywMSOXWnqtvY4xe9MlEx1TH+iSighe2TGCdsWTKbvymOUzuo50SikGBluNgsf3JZ19HeFIzFJLaXuvAlJP0bMBmEQJMAKX8R27+LeubRwi34Q/O38bumb+P3/EyP7+CKpq/i7vxvMHfQfWhvXEfHMUSm3oIz8x/ClOAwllSTpjReqjL1n592wPq1+y1c7l+Ey4Kv4Ofm88v4mX/h5iPzlfTg77/InI/LMhfi+volWB0vlAIxdOoPchSf8x/BNysfxifLb8N5tTfgs+Uz8F/lN+I/y2d2H2/EJ7tejy+V34mbct+nE7uESdKhqwV4VfU4nNX8ITSS+9N3PGtPbzlu1C71PPbNnIDPNH4dR/H5lmoD9Ca7UsZBZ6aKDflWLB40D3c3/hk/8b+C/2l7By4ovwM/Sy7Cg8ld5LlWNEYF5PRGM+p506PBhNNNa3Yv7ILGWE28xUEPVTymLhWNy+UcTaQ5Ba+P3okg9E1EujDzDK5u/S7aaQAr6sbh/ZqYJAUuYUzHef45iMHN06SkupEUb8p/k1LQ1Iah7iS8Pvs+DIqG8LeIQtuKW90rMDO8H7WY9zNcMq8z04wIE773DzMLlOWlyuGzj2BddimvuMjXPBwXnWJeeKAIXF56xLs0M/Ig/zg4EY2LBMSt4t7oNlT0nlgaBUVyxsPcYSwgQqRdlmoPqXbKI69pTFKCo25fnetXHX2hq6Y0SofOh6eDV003mi6be1KPW36+m8igBKibGaaRGfNbGMxme8/GgtwcLMg/x+NpLM4/g2WZOViWn43VDUvQlm03jpNDA5qhcji5/h58YvD3MdWnZx8o5ZBtQqGnoY/jOttIhapgbu1RrMu00fBGyNIxOip3NpqdIZuaza/TKJOfDnAPJy8ONQa6nC1iRvE61BjZyADIjKv86sIT36VDBWmdVH9Fd8rOUGk7ekv+GShdjSsqKtZmOS7pzGKb5XiaiLY3o/3TMx9Ac2U4C5OgLbMKv6leivmuuqurjG6KpuxaZqOCq+ybexPStjP1Yut1zzfmP31qPFMTKTV2n95tNGs/6ElDqxN6ot6UXjSmjJiUlqIwKX0Z4RyNoiJVTYTSJCDx33B/IvYJD2EqTWj112G2WULUybIqDtULVGijwgoeqdyKIiPbgI7Z/slRGOTrBQXMX/zKfFSn9NgC5rJmKdeR5X11TRN1O6EtHkOmpU91I+vwqZM0+qpOZr3sX13nJfLZI7UZeD5+Wi+I4q/kN8qvaijuFt1S2qScryGRildCxS+hGpRRzfAz04VKtrzpqGZ5zRw89ysoBryf90nXaVmTPk2SpNfm9jLMTcO4Hkuzc7Ak+zSWBHOwKDMX8zPPY0GWziRlaSmj4JUNi7CxoRVdrHPgZNBYy+Gk+Cx8onAxpjhH0lgyadI+IR+p+15DORqjz0Z5vNp5Hc5ruhDvc7+Kg2rHY0hxNBqqLfDpBNaSKuWRgVPQRflchSfyj+E658f4QfU8/Lj4BSwInzYv45E8OnRytR+/aL+7oVuN7IroYSZCSstofrIWlUeePtqxTadjYu1gw3QhFe8ThXvxQOkGKiApH4o0GV9rDhVx+tqe8l+EmFy6SSrEiBPz1YQhh8bi4NxxOLV+DvL1RgpFFmvcJbiz/DtsdJbSYSCDseixMVip0eoPRpVR61fCKmbTKJht9Vj+XDwE+7Ucw1+pXKgUKO4m6tU2j9PyB2NkNIkKqkKFWsPiZA6Wh/PNpC8Z4nTsZUd5mKp1WndByjJlL3WJ66q+b3n0gzQJYyjSJ1TrFJue4InobNJmm6srUfvbalVxrt5Mp6cZLfEgDIpb0By1mPWcGlMXd1QpzF1uCJ/KZCyj2jOq/4Hzcz/Hu1r+CyOcscbRMRtgGFYSXcgrCVMmnUtJDTOTB6nc6ED5MYZGI7BPXnTXW33oCsp4yJ/i+fjcNAxi5KNZtjU+Oz95FoujuYxARB9T+M314Vl6Ja3+vwtGQXfLjHLu6dGRI0JrgSNyJ+IwnIwkEJ+5aM+sxi3FX6LT6zCbwZitVaXUVZPuZ1PovLt24v/0LAXv28whfx/GPeGtPRyg2cvmzPBGT7l1RWXvdm7MuflrfgkSvT3tILYf02Ednq8+gs6kk79KSng/+X+dvxzPVh9g2+ltbXnslz2UeYo2Pemn6F1qM8uf8mhGVOkcNFHnTCjvh73LR2Dv0qt58LOo88Oph6Zij8pBmFY8EMPKI+gExCj7G/Cs8wh+3/lVPOZdZ+YYOL7eZd4jj8qbR3c5NPNhojMd4+vTMaF+ACbU9Lk/9qoeuOmYXD6g+9gfkyr7Y2r5QIyv7YsMHRoNZ6XaqTfE43TM1ENUG4qmpAktPJrjwazTYBpdz3Rja8VGhk6oz3LuV9wLp3a9FRdk/oDPBr/Antrwh3RXa2mbUJVX67qNoxRQkhTxMwDYw52GM4JP4NONl+PLDVfgPdF/48jyKdizOg0jqkNR0Fus2CZZ5lPNlWiYl+Oe7HX4Wsen8VzlQSSRHK+QSemFMDtKb718sAsb4y1g+DZlM71H141zGO/ugzdk3oeGciN50EdrthV/SX5FYzSb9+rF4RUznhSEORqnHuHeOWikcTij8EEcXDsSeTJ65IWYFdyFu6tXUkEXjfAb3WYq0ldcBNPDSW2/ylmNuXiEDC514qHgDcf8ytN4nI7Gg+Xb8XDpTjxQvAsPVG/FvOIsjHHGmB4C9RxsyCzG0zEjcofG2MysVho7D2mPA5UjP0zxTW5/j+V6fpdClReffvZc23wI6YxNvZlGS7hkcMfH++Jc92Kc63zHfH7M+R6P7+Pd0YWYUnsVWup00+gMaUnFpHAKXpM7C/t7J2NEbQQNZwvpoUkyepk98yM/mcjPsEaIlckS0v1+2n+WiJ6+thdc3fkiZnbOwKOl23F/5RY8UL4Zs4r3YnFpDgqZPEsa0OMPsS63DLPiO1kXjdoxzZ4qbDrZdGHAoRUHenfOkHgc3pj7D0zsPIARZ44iRGfEvZV8dRvKmjjEyG9bvJpii7rJUG5xq2EL8+y2nzeOrPk5vSf9Lm+nN622nUaW/6a4B6JJe6uT9qsyC/FM7QljSDWmryh/Zv1BrGlYQC8kwR7YH5O9/fgb86MFl6O3LedBvGfKQmdN46CN1Wa8LfcpfLPhyvRovArfauLR+EdcnP8TvpL/Iz6f/RE+6VyCo6JTkK82oL3QhnkNs3BZ+0VYkjxnes5Dlrk/jCiNx//4P8RFud/gf4Mr8NXsr/n5B3wl+9tNx0W533Ufv8c3cn/A13KX47yWb2OStw95eduyrt6cSeF0vMc7H+dRdj6Bi/ER73v4ZPwtvCv+LPal0dc4vJ4PqDdGJnviqOY3YD/nUHI4nfqYEkO5UP+VnBO5DmbVhxxZ0si8O5whkmiV4dnImI6sdwTekf8sLmj4Dc7PXoWPZP4PH4i+gteU3oQ9ynsjX8mZIYCqX8eCwY/h99HFWOS+YHoiRHu9unZ3g7TcLg91O5nxHTaSvGBNqAlQwJG5k/F6vAlZRktaLL/EfwF/Kv4cXdholEmgiQsUSnWn7CgoEtc/UxyWJaGXp3GOQc5kvCH7XjTUGlAPaugKOnB99QpGWw+hQqXgkk1pUpRCd0LpxybQKJSSEo3pI1jmz0Pslo2xWOfOxa+jz+PS+FxckvwHLg0/joud8/CN5BP4Qf3zeI7GV3yr3oCufBueDO9Bh9dGhmYGWnalLuwdDNFAb3DSZ7pdIc1Q91KE3tXaEpt/k2DzYJmNMiQxI23eIr3YrRvNBDiXTkbarWAmv4zFXnidezZe778dp3o8/HfgtODdeFf+E7gw+z0c0HkiFXPebM33cMPf8NPOi7DQmUXjQhXC4mkP79gofOXK9HmuHotKUsfMym2k9TrUGRlreGNB8CR+Ff4//F/4YVwc8Yg/iu/hI7i0/nFcFp6PJc6LRknXadyL/Pds/X6UozZTH/3bHKP0pb+a5t8KEba7OAGVriJfrQjQ6yXfm/usMRxyIzYW1uHPtR9jJRaQ7qKP2iR9cMsudRlRVSE9VD+e9ciomazA59S2PTf2B5Oc3BflzGiIgq13O5v3424ikPGUtoLpyjS/8z6mMS14FcZXpzCSqiKiYzSjfiO64i6g4pqJjTNrD6CcKSJfb8ZrnDehQKcsw/orndTu608q01tCbag6ydgoo0w1wNDaRDQ5o9DojOTnSH6OMJ95dyRGeOOxj3sMTorOxKf8b+LYyvF0IgPkmd/SpkV4qHod62amx3XnsDWSbA2j4onYg9Gxed+vMw0TI0bKPO99jHP2xSBvAkb4e1ImaNjQQlIFpks4TcwQdxPq5PMh8Z54nf9enOK8G6c6b8Mp3tk4LvgAzvY/h88XLsMJlQ+h7OShTYYfaJyB75e/hmfiJ80QjV5ZaejBtjabfugb86rzt1jLllgrtaSnC6S5eju0r3Xg+GaL2qn+vnitfwbOzH0c/9nwfXy98fd4V+1cNHUNZ8DUSDoBc/2ncGd4DTpDBRI07upw283QVxPsgtA4kgTCyAW/m/Ev/mtOhtC7/7DpwtFUVkVaD3h/xV3l61B3yjRSZUYuMso7z8uSELv1HHKMwPfzj8dxmTMZxanr08f6hnW4ofYLrA7msvjaAUpMu7Wg9EC757T5q3Ff5QbUAo1K601FmjRUx0Ya2Q25EtY3rsKGxhXozPPItmF90xrKYAf1H1UaBbBKGi2JZ+Pp2oNmfEtaP1WWOxaS9SBIJ4ap10pbKsqo/b36pZByldGm+qXQyZs33YEspe+rW71HUZnYlbdpvgAFU0vbeG+GhtZc3pSHJFa84WM0o56PD7sIe1eOg8MopuaUsKBxJn699ttYQZqofKGv3cSYB9NN4wjGRl7VzMq+r3oLlY4MQ0S6s3xuF9Y2rTLH+ka9Om+9MVbr2AZrSHe9AlG7fqkEkedjabIQTyfptodpnVTOFP/KnIUdgS1bRGVRz03ahe3gkMzROC45HX4tj5JTw/LMbFzb+jPz+sgeOvfS7URKO6OpeY/5K2eMbVSraeJXnwf6gjSKXXWa12kseFB+5dB5pKVR+puIp3L2n54mOGoXLY1X6l3ISucF5ymscRbzkRqWxguxhLKnTSxG18biEMqn1/02oLQburcJ3gxFzRoXVSyokd46aSMHy9M/M5adfppzhgaaICf/Mcy6GOyOwZty/4mW4lAmVKZxqWNO8jTaMmsQmKV5fSGHRG9b05azcu71IgtNMksnNG19pF29dKpUNlZDkWqdEWWkXfc2YTPNtMmL5xZ5X5EyoA1JcjzPMZwBmpI89qhPwjsKH8IRxROR42MuHeN15IPf1r+FOc6jdNa0FanaW/TiDaHHssZYlbyIF+qzMbP+KJ6ozCD/dJhpc5poqkPLEvWYImpRzqccN3tNjLyn4a0NX8YHgq9iRL0B1UyF2tzDs6UHKI9qG229+/KZQLijsOM18QDBsJYRTB5iGLaa9j4dneyDkzJvwojKSFRpfDtyG3Bj9Acsqs2TLSKzUqx24viDGEcvFs/QKrXQaz4r8zHsVzqcBlrMW8UzwQzM6rid5+0sdIXM3D+0heXy8jzMc59iPbVsK6Dn3YJJNDL7Vo/E9Mrh2Lt+GNM+AQcUX4ODiodgWn06plSOwMT6vjQgDfT2mU6mHQ+0/QVVtNGg1AwNdjwYKWRojI1Cp9KKaqjzkCFLr20Limqk0iKUayVUw+7ZpaSdr3cYbwEtaTJd2RTSxM1QGWrJDZWB2p6/K2KRU2a6N7W+N8lgdDQNZxY+hrH10VQ16u6iEmx+CDcWf49Ofwl8vSaGKaa+PSF6MbWlxWewKLOAzluVEVAWozAZU+pHYq/oEOwVHkH6H4X9y8fzOBb7sC2mhIdjbLQfhgWjjFKs+THasuvpBF6LMFJHnqkV8c8R30yS6z52NGI6JCaCIiFdKvUcBuGs4IOYUJpC58IlDSI8krmNEebNbCU5Tv2jp2aBT8dT67ZJR32Wy5pQpF/EB9suvyIspV+n0ayEjMck23xOxjit9z+uuzp91Gt2eP40GuUC5T+kQ7rRvFYxYqS5OHoOa5JlTDaLSZk90OgNpjGkMRYPqoyKwNKk+sDsXkYGk6GTMa56NJS+JraJ/1LO1LnKKT5MN6ahY0Ze1DDRuMx+aMwO4XMOajxaea0e0QE1vWN9ka3loImemykuw6s8xPN9D3UNa3xVr3h06IjIGdncKlujwrJpe1yZbz/Wy1BUIxY20c5drInvMtqehA83fgl7FbUZSogceWRB8Diu7PgBVmfWitAmddVRIXGNzv6ctjvxw/K5uLT2WVxW+gpedJ41PSq+lCLz0rCD9K/m8WgyoV4uE9Pp0vZeeacJJ+J0TE4ONnWu++1Y4S3mM11Mw0U22m1M1ybsUjVK59RKVfIwjE6Wofes9wVrfMh0iVKByHvSLD5N7/OoDF4bnI1jSqczIs0Zz3JJZg5ur/8q7UahQcr/kw0rniIvGYFVecRi5tOUrfu6DoWHZDjNpxwdT8Y7B32Jyno8n9dSpSquzP4Uc6OF8F2fXioVkN6EYriaykcTzdw2epXr8HD1NlSyXcyziKDShE9UL8HXMzfhW7mr8b+NV+PizA34RuPv8fX8H/n9D7g4+DMuaLkWn/N/SiMxlUIUoCtbxMzGu/BsNIfCLSO1bYX6UiCDpy1HtRd43QkwxT3AzG7PksidXhFLGY1oC1CzxllZsq00A1UH1UrqKLDKCV1ljY+v9GabbkVtvJCrB5hYOcAoH0HTbzThJsd75VCEfhuNhqZfVUwwpm0qjbB3N4bIb97w5OdxuHsszvQ/SF4YRrrWzUvb7/NvxMPRAyj5fD4il9F5Mu/H5UdMY/AQbkHFa0eGyimImvGh2jfw3ew1+D7p/Z3sdfhOjp+Fa/H1xmvwjYY/8/qNuDRzJS6s/RpTi/uxJAkVdYSngtuwIO7e05ol1GxeL2qiotG2hZoZX2B9NVjBJ1Re8odq3PuoSsGquzaUJBS1/Del6UuB+vkMPal4KRNGFdAIGbnRf829cPNowGBMzE7HWbmPIR8ONWODbfnluNX9JeZkZhneNv0I5CXzmkjxAdss0uY3/D68Ph6Fil4KICmN6Xw+hUjGVTP/FS3yn3oLtGWteIHaWHu2mP2LRYNV7gKs8lfSQWiiwg4wwZnAthykoqKiSFAlZ376lDwaPU+oan6cNw7FWG8M9q+cSQ0RoTW/Ec+wRUtJEU9HM9ARtKKxazSmOa/BMIcOK8sjvaHd1mSKjXwbIU7T7ZF3DW9p9YQmwpk118xQDoNkOtVQvG7ajw+wbTS5UlDcLYOrHbTyDBbk7sUMEuQIyvCFpFmawxZgphrLh1Mh/fl7KMOsuJWlVX79HSRioPGpWqD/iIKqMYJSK0o9XRrINmct1YMjpzalOZ/1NW9CfEFOZLlNeT0Pk51peEvweQyujkI7y1wJSnik4S+4u3wN2j3qJaajWc71vFIDWumczG9YhDXB81jUOBsL6gwk2M4VRvXaFVGU0J3qhVCfmcaYtWua5qYnrGsuOxgj3AmGZmXeJ31dc7RHAwnKcu5uUGvslpBQpcsjPGQZQb5p2PsxrfYq5KhkJWaPe/dgbbDQCIVeSL5ToTcYUS4UH2gbt33wKhzpnclvDfReY7QHK3Bd9beMzopiST4gL1MinWrYhCXeEK3EXOdpXtFIJDAyHIP9Gg7DIEbb2hi/JRmF5mSkOZq8YWjmtWZ3DAoYipH+ZOwbHsu6ajIbY0J68c9X72P6VORk+h0H1VCm0MWgYCQaEhk8RrmZMvO7n8qzYpRNbCZhMAKj4tahKFddklKC2mB/Y9KG2fETqNLx0BaeWtqyZ8OBjDKpgKSUZHGZ0/aDSo7p6tWOGqc6pnAmjoheT+HPma7truw6XF/8JZZFc2mjpNiZNstXzURYHb9Auj/LEE8GMIu9Sgdjr4b9UXCHoMEZgiYMIc0H9TmyzmgMz++FqTiWdQxYX0VSNTxVuhvlRHs9U7FSe9UZkfgK4ahwtbGB6KXd49LNOExJ+hyBDB6VUeSTbqyDjGFqWHcO/KQBxxdOx+tqZyOnMbyogDXOMiwM56DMtpSDpb0qUn5NOVjt5PFkXDBZnhCv0VmiQXjRexKrnJXGiTZOJ+9Xe4pGooMMehJoBym6XHENM9rvQle+lbQpMt+seSGHiay66aO2TanSF1Lyir40bWh6w8F0pDSMEWJRPBvznFmYGz5Jh85Fhn7XZDocLChTkxkh2P5MIT3vB2ZNM8uh6W6KQLMRjaveqqSymOKkbSfUaNwy9JjkTCp69lmm9fEzWEeZ1nwV7c+cdZtZrybyRHf+vRB5eWTiZmRkTc2blV8sTw8AACAMSURBVHiNNJTjuukgD6UHS84L1cCl8y7jLlmjSZPT8BJg6KtK6GAbqQ2nNxyJI8LTzZ7sWsJUY1vdF1+FFfHzjIbLLJtcZYlyBnv5B9Jh1Ci42r6GJ+NHsdpdR1EqsDxyObXFJ+nEqF15SbfVRXfN6yAdKlEn2pM1yIZNaKjlKGsNZmMj9UZohv/uht2vRt2Q+MuLlXBlqMRliN+QfTeG1Aej6HfSI9Z2hV3G23J73OmdAckO/yRuOiYixh5cG44z3I9i79bDjMepyRUb6UGmqoyaQYxPo92zsF0dOPPjWViUfw5VKjAp41f7Z2JYPMYoG+WgrptNBxlczK51BRl6qi1JM45t0EsMmowQq7t1tnMv1mM1FUnqse8YsCxUwjnmKQdhYqSxejoAjEC1heTfatdTiNKxNbO0isR3aiwvQ8TUYy8hivRe4Zl4JnmA0ShjJXrRIysTMTnYnwpHgqgNBSS6fOAlQBGYZoRqWcSYcBJOy72fDs2ejLgUDVTxfNNDuKZyGYpJJ6sgp0KRTUxD/ASWan0taRqEeZyQOQND4tFsSyoTlkfRmurS+/BooDQZ6FD/FDOjX45h6Jcwy5uBdbFeGMI6s8UVE+ilFcqzxohcJkZMwtsNjFPZ69DGCorqHUfjfFRmMlw7MVJQ2RvD4Tg1/w7zvtlsNWMcizX5RTTGbA86THIsZMB6ei8UVerFAiOccZhQm2aW7lTZlsvd58wLNPR6wZjt7dAx8WkQ3Tr5oaZlZbouCsSYHz2Dp6LrWc8S78lgSDga4zCNEpIaLGWVxmD9I53USWecPLivdwgG6S1MYUz+eg631a7GsmA+04owKdwLE7zpJu+0+CpBWp9tQaZW0bHW9KtDXS9J0Ru8Uida+aZ3pQfdFOoZ9XZl6R53OOtwbe3HKGY3mCEyjYxPdqaikJEx7l8la7xY3fPm/eKmJ0MlSLvKNx1sJx1yQvwew8x79JIKvbyhu3IvAd10MDCaFMPp7L950EcwqjTejB2HbPe5uTm4pfgbynYHIjpQ5sUZpMvUzMGYHO/Dtg7hkZYPZ27DbaVfoxhsZBlpilmeslsxEyLT101m0MW27tK4Ncv+tH8PnnceMA6LnPX9nGNZAjrkrMa2W2bXxW5rjNVghvXIwFKtMb3zQ71TcFh8EjJUqnopvDpEzKYC6pbcwZBuNGLIaC8dvyaxKRSazFPL1DDCH4d3t3wKIzv3NEJm1ncqKqPQqHvVUTclE6hTWDuwEU/U7kXJbSVjhhhdnoAT82fCp/ep17SZ7rEt/iXynE2UqXLQe2ZhZMwOiKRwKLCs+9LkBcykpxpRgeyQsUdTX3rexrkBo+KhmKLN+iPSmId2EPpl+L+4tv4TrAmXo50esnZHqzH6LXvtKLOW7dU1mBH/AT/u+hI2ZFaa98M2VQfjFO/NjPT1ej8qexY1HZ3aDFP87kvbqov2/jWTWyjk8rqnegfjjcnb+RgLzGuKVh6loXw4vJURmbrC0v2tHyrfaRScxuBGhGNwYOOhyLlpF6zZ9pS/mbx7HR4diTwdnf3z+9MRPIDGJjXuL3qMtPE4alRi6TIiNZLaSkZNnOqh1W1Du7MR5Zh06ecoehtNt25UD3hfiQqRUTwdin8W/6j9Fb1IFY/x9sPJ3luRcXLMPzKbUJjuU8NzbB0ZEvEuz1PVQkPoNuCM4L0YVBpBZyZHfq7gpvjHuDK8BGtqL5Lri0ynlTLRgUqOPOCtx8ZkA+6JrsYvq+djTfNKGtMsAhrqvZL9MTaYwizYjppdzTZJeSE1GIb0WzglqbsjfsxidDIRE+P90VBvIN+14QH3dkSKWMljJ/lvpYqnIWRrbOnTyNxtEybbVH3K+Gp3sjbybDFuM21USXR0spU6aIVb0Rm1Y1U8D4/X78Afyt/B/c6dlOUqcnREWyqDcLh3NKlFulF2+0M+rKHorjQrLypJF8K4A3FYQZV59T4qPGrk37q5r4gyy9HmtKmhu1MTnVh8DQn8/aY3MK1JfST6aOnoyGQfnNX0cYyoNbFt5Mw7uNe7GQ+XbmWdKrxZzgDNpt+MM7wPII/hqNEZK9EI3xj9DJeXLsKs8DZqtRXw6iEyVWq/qEp+rqKBBr6zthzXx7/E5Z3fQZu/ERU6IoV4KI7LnIWsM5j5aaxZJdu94H2F6D5/2UMipyhT3ULP15/As+590CzB4bWxOMY/A4Ncer7G+5NnlsZOWuqkCQ013qeN/PfwpuLp0qOMjtciR49Ns/m0gHxUbQJek3kzGhzteSqlqAelaFOB6wtJI3PhPRsY6TwU3owNwWoTkR6evBbTgkP4qxg4VVBSZ2a7Sl7VKJkU/DAa5FqtiBeSmeiigfaoOniX6QY83nkTRrtTjEe8Nl6Mq8o/RJHGS4vwDyu/Fqdl3gqXiq5HIW31j0KnaFo+urr+5EG7SYH5d+DJ2uOM0MpG+ZcrNRyZPYXCkt9KiQl6K9RN1SuM4lKX8tj6ZBwfnEkD09x9x5YQpWVcmJeUsWpBmrd4g/Bi13NYl1ll6qsZp/MStlv5CbxYfx5rq0uwqDYbjyV3Ygauw43VK3E//ozl+XkqMcuYYO/aq/DO/HkY5AxluoGJMBR5qjusM2rFvfF1WBesovefxaT6vqY+eseqytBTpU00YTSplzWY7VNZznHuJMyrzcEqf4lxGOo0bO3VlTigcASFPocXolm4NryMbcNomXU8LDwRJ2TPZl4NpL3GutReqTLqfeg3dd+K+hrjnRU9jDCg4RR/0jAfGRzPJ7Wvbxl3h1djg7eS5YoYmXdhdulJ3BVdi/vrN+Ge2nW4p379VsfdjBbvia7Eg+Wb8GD1RuzpT8cQd7hRmNuLdqzDrdFvUA0qyEZZHOW8HpPd/Vn0vvyuIrtVzWgPaAwnYk20CsvjBaQBHQDNy2BdM3ETjnDPxHh/PO/3TRSoKE88OCozFEtJ17mZ58nbLjqD9Xg6fAyz45mYHc7Bi9FcrCi/iAXVJ3Bv+GfcXL8MdznXYpW7kJGTurJ9TOqagg83fBlj3KlMV84q0xZvs5GLdFxurf7OvIdZsjsp2p/64PXG0Ra/pJODAqyrr8R8PGm6vDvU7c2IflxpGt7R9Hk0kq8V0YlXxMs0X4b+azJLmZ+PA+OjcaB/NGms6FlzFap4tH4X5mVnqbWNU7ymsgwPhH/FvfUb2W434m+m7f6MGdENuIt8+rf61Ty/lhHfoyxDJ0vqoaVrHE6qvxMnNp+DQkjd44lXPSMrT0QzMM+dSdlJeH8X5pTnss3vwt3xn0wv09/qf8IM5nMPz7c6xCfhTeSra+hM3kgeuQmr6ABPyx5keE7DCSUazVuqlxuHWLw9JpmGY70zqAm08YZaTbwkXhA9UqSTw9S57GIMddeaymIsdeYjYTBT8duxsdSKqXnyojOawYfmutQxEuOxgm2/IprHvPPoClqxIHiOgcAMPFm+H0viuVhmhoJm4WH3bvLkL3Fb7Qrc5d2ATnet0e+N1RF4XfQ2vC7zJhSSQSY/E333ZdVdGrtYdaT00w8pCHXnikHSy92/CTzVmBTFxlzVO07NmAlrO86ZircVzkVzOJzeLAWaisRs9t6thNQRqATS7rbNjNgbaW5kWubfc6eUj5m9q59ULoGMLQWs7mFFU5oAk2GEoLG3XJjFawpnYEp8BAq1nPH20nSYJgVSXTVV/ntm3WP0ujfyRxeNlUZMyx2IHI2FOriUTe9DUHCiU5VGCiuggZriH4ZR8WRzT43/FkWPY1n1Gd7FWqubcQukrozqRxpT6aVdpGmt+4URYD2nQpDero89473x4ZbPY6/iwfBqMkwhKk4Hnm24F3/NX2H22P2J9yVcnfyQyuMaPFa4F+tlWJmEFzZhfOch+I/MpzHa24PPSvEqBbUVs2NR0jkBKb3S7r3UEdgMlSgtlVn2QUWkYMalovOpVJvdcXhz48fREo2ANhNI/BIW+k/h3rab0ZVsxEOlv6DD76QjV+H9DZjGaFqvvNMrO80MbZ4Zevd3mOEGn3TPYb/8qzHUG40oUpdmDXNqT2B9faGhqJxBjYEJav+ivx5zcw/hmdxdeDJ3G57M397nmKUZ+Jm/YWb2IcwM7sVGZz1L8tKWeqQRLQ2mGJO0S93E/ttXY5O0oqSBg8HJOLwl+H/Yq7ofsnVtzKDyM7JRMiyF6iSeE7XVde5RCgM6wec0fASHlU5GoT6UtCZvZ8t4PvMIZji/wTXRt/CL4Ev4SXARrvN/iydyj2BDZg0VvPiyjj2rU/HBQV/DfvGrmJZ6g5g2CZ86W2pbFUJ16ZG/Hk41N9BwajVDDtMLh8KLMvTjtCSQP/DeaZlDkYXeutVd9/QRcb75YmSan+I3pWxoZB6W86m6qqPaY1nLmBc8wfa5AzMLd2Im2+mJwm14gt8fzrGtcnfi+eyjpmtfk0jrPp2behPzPwrvHPKf5KthJoI3bcH009xTXlf+CeXpucyjmNXINJnuY4W78FjDnXiigfn0Oh4v3I7787fh3sIduK/xr3iw8SYsdRewlNlNdFF9RMBUZ2lohYLBaylfyL0g+D29fwtQtoMkxJA4j6MK70ZDOJj0ZRkjDwuyz+H+zr/QSeLzJsJP6OQMxjsaP4JDkmPRWBtmeunq/H2lt5p8/CBuCKgH3G/jV+FFuBqX4j7/eryYfQL1zHpUsx1m18KDw6NxTuEDGMx/2j+cxUuP3Qxbaq6XPVxNGzWMyiNm7ESDliVDN1aayFyayk8hpFFRN6kiKzGb6Vwh42syiXbe1SxRvT/0mOh0GsA8va5GBGEzghojL2pGze8Vw2kPXdPP2x8oIYZZnSqNBs8ZDTeVW9BQa0JDVUuIupndMLOcAv4j8wT8B40Ra/IlPzyej8c0vMX/MIYXxyBTa0Cu0sC0yHSsj2LbUq0DtwfXMBUKTpjHmPJI7EUPPWR0luE9PXy55WE2w2B9lScT4UXNigSGOuNwRHgkfBr+IGpkmsD9HX8xXV7pS/X1cIqQD+aqPmnbgqZqCwVQqnZb7KKMNBNS2alipDkNp08HYJr7any0+Rs4PXw/hpdHkC6KpDTWRTcj24VSoYMRTRtKQTsG0VGR4mkuTsKZ9Xfji4WLMd0/kaZvGI1aI+vkosB8VLeEildec8zoR+s1G4uDTJe4XjVnaG9qp5Kl/zT5RNNX9KxmiWqXqYA3HpAcg9OjD1JRDEKm2owiy35DchUe7rqDUduTNDYRDUgOYzomYD/v1VQ8mrXPhBJ1K4vfTDZ9oPct9/TKjI7H47D6sWgqNSNLno2ddtxSugEh+VlRqV65mGPb5qh4AhoLca9eYKHdjgLWp/eRIw01mSnL/HN0WtQsJuLeTsg5kyHJkV8LFaYZtjBHvfHLcHU/YMuqzeiAhE4XJsaT8Lrcu5CLhiBLns1WBqOR/N+sfYPF9CRyjs9I8fou+SgZjqnuATivcD7OSN6HiV3TEYc+DRCNcoZ8kC+hM7sRlWyrcYhEuxx5dAgdz1Prb8PH89/Gwd5xTLeQpkm+8thOOkRjw3uk36DSIBSqBeidv2bGBaNMvR/YZ7nUJTwJ0zElOYg0a8bgyggeQ3CwfyyGhAW2ZY5OgiLekmnfGvmjkXzfWKV+oY7waHGkY4zTahQMHdx6gBamEdTYJkwDHtuSn16deoYGX4ZfR4HOd6FWQCGivqkNxrjiWBxSPh7/4X4F5xYuwuBwFOWL/JytIWE+aktlkas3wOGzeeopzYzO6RWLlKtMnd9p/LQTnPig9yGeKtDRH0S92MCyq0zadTCCVmKwhZh4EmtmNu+rU2/VC2bFgpYy1VFmntSlZsay+b/p0B+tn/fpZDpJDvtTHs52PopBndRX9UH8PcFj9evwaP1e1NgGSkfMOY50/0zhZ3iv82lM7zqSNNDwIOnpuyizvcs0upVckRFvkWTNoEj9pZe3HNB6ON6Dz+ELhf8zE/eSVHjJH6TDbthP7SQ7ZMDw3wQ6W5p2L0aZVXkQ95VvNQI5IZqAEwa9BQ2u1gmykeOAnmcoEe1+cDNqjDR9KqBF/nO4u/0aCl8NFS/EuHgqTm15i4lk9Po4Ew1pYooYoB+IatqoQ1Z5RbIBD3f8Cauc+TQODTih4Y3YPzjMMJZRyIaTt4YiCL2ywmN59N7Rhyu34YXKLNRyDjI0yCc1nYU9ggmMoFbiL+2/RTGQ8vcxKmrCicM+QkU1RJbPBGDbC3WJzq89g3vLvyWNNLO0CRPDiTh56FnwPb2Yv2fMLEE1ruHP6y5lZNhG/ncxAiNxWsOHkc2kG2tsD2oUbvUGIApRohJb4y/FrM6rcU9yN9rpZGj2pBF4tpmcj7H+COzrHoJjC2djgnMIApcRKD1sRVe9wYAJbe5q3NX1J7TGK6hrMpicPQivaTwdrjaGUPv8g27bOKJCotJfxHLdyXLVoI0s5L5lMTwci5Kj98Z28aiQ7hPxumFn0sgMN5PitMyEamkLmvWClqB0LxuLqlk87dyPx0r3odNbjwIN29jaRJw27P1U1nn8ufMKtIfLzb0ylD1DBsY29iOdYdBFha29uBUlZvHGhg9gWFZLfrpv2A50RhtwbeuP2L7r0BCNxHENb8LUzHRj2HuDZpiX6fjQaQAVplNzsDEo4pb2n6JCntIyqYDO4Rvz78HgPKMftltvGENPB0pzI1a688jvt+Lx6v1YGc9nXTQZTd3O0rEeCtkCDk6OwrENb8HEZH9j5FSsPOunF1n0RiXuwpVrf4yqv5Hy6mBC5iC8LnM2b+ZTSpOGXy8i0H7JD0d3YE6X3ketqK0RJze+HWPqe5o9lMUuRqZJ83U0XA9SP6x2X0CFhu3VuRNwRP61NGbiDzV/HXdX/0qH7VEalTL5XBPraHR5b2/ozVc+DT1DB0xo3BOjvUlmz4EhtT2YJx1/Gscq21z7P1NtkZzKIcRDpdsxM/ob9RCvky81yak31EPQG+rV02RAVV4TBOUgT3D2xuta3sq0NCRVZ5lKuKL9e6gnWsEBTPD3xOkN72BZ5JxpwiF1kwKHXjAyyyBFO2vp5RUb0IZ7in/C+uRFlCkLXtKFfeOTcdSgM+mAMGW2Zz2vPry0z2SduwQL4mcws3gflpWewgZvKR3xGtsjXZqaZ97T/Ok4IncUDsmdiMZoGvKaT6FaGFlTmdTzodT6YdZdGLuUMVZgHEk5awaspw6/TvNqraJbRCFp5m+aOSgFSQYgM6r7qDe0ltHT+KCntW6MB+hxVoxHpj1nGkkRyjCFV2890Z688sT7IlUsxoVmebRUv+50MOoJ6OnRE6bn5rOw6o7TJhZipD6g5qmw3KJ+ntG9Ng3QRDI5fHpjkMam9FLItIuYKoxOg3lxNz8Rt6jljKHX7OnthXYg0gzTirvGvGBCr8MLWM7UZlHJ8HsKEyfTeLcbJaAXe2tpgpc0vSSFz2KzrPKwZZT1Jhem65Ypxq1GqKVExX4a4/WpBDKkdyGhJ08nRkpbXaiiArVCmt6W0CYiLAtTZrvznNlo9yRNxJIDJab+R8IqWmj8kZRnfnSC6DSouzqk8dX4tEs+cahI1b+i/axTx4pKw0zcCtkE2q+XZeuHJtQrrLMi/RJZJB0D7KKTkGW7F8IM6jRmYFpBNYNSNp0r0Bs9nccGYpRuKO06+TITa1elOqMIRtsZlvcfOB9bQpP4Qk3woVORY1SjjVNiGqyemcpbQ3mL7/TCDXEGi153zFIl00/FepadMoZEw4wTm6Ek9YGqx6PG/MzkRFK8qPXzNHoh21LElVOWU/QrrosHkxc0W51tqC5PEkLDNhr+6APKYZFcpbHhgLSuBXq5AbOTKiA/kER0YFwTJVd5j2YWV70y72fUHsvwqBuYEXT6gJGxGn+r0RnL8bNEfmQsyrRZZxl13q+ZxJ3iO0bcBT3D+7QTXH8bCKWbo6S9M9IFhkd5RZO+1Mcm508z88XPchjUzS5aaG6MVh/4jI61K1o/dpdkU2t0o5tH9JfFMzTWEIN6W8SngclHifBHfnZmNxh9WeV1j+VWFF0TL2rsnPl6isR7g4KmNeK8iWWS/qI8hKyzeqlMuSk5UQt91Dpl3ad8sfz8p/KYeQRkXr0nu04+0Ksby04X20RzKSoshXb9GsrfpQPYXkzLo37XckMWiHmx7UxwpBpKNrZf9+0K2LUiYyqfdEyDjcDGEVs5NJxG0MkfMRlWTKxmkneYsvzWMB1Y5B29pL8mb5aMkhFzseGpe5kshYOyI8MoBu4vDaP5KVDmlEysLlMtzzEM6fI6vUrN+Ox5BVt/xliMa7o6a+lypzBTpUkIqch4Pz1s1VHeqRlTpPMBOg+K+KW0Yyoz0UHdxurW3W6wqeUp63mVWUZHHd1pB67Qkxa9dVFRCoaGx4xfy6AyN3Xwbi+khLSO1Lwpy6SY0kEevtLVeH3aoSih1YQP5klFoPu1HEqblGm+MU2seW5LVPmcfhVFZE7Tssp12H4B1SYjHnlKuymFjEak7LRsSFQQzeVvydhp3+s6FUJGA6Mso+YjiEJ6h7bhQj3QCwoKzCxslY311TibsQoJIzv+FtL4aOmJNu9IN/fgxV7Q6zDFy71B95HtR04hj2mCkp4UrfJsne2FHFGJUpURklYXqCdJ6ei1n/3BbGcp2ZKcUBFrjbrr5MmrbBs+aN7XLGeLLZPRJKBeEPfIbc2ybbV2XByRkP9UDlNzkbabD8QD2i9cLZmJKdP8rYc6coZ6w7QFG6tK4yiDqrciqcdJE4ZUUpcOodkcSN486xoHzJNyq6U04kHJmGI9LZ0z6UlB0FgZuWOasSLVrWRaJVO51Qb6RqeEJ6anREzTC54aSXWQw81/Rquod4XPShYF1VHRY7pEjc4JfxQ95IxIp6Wy0hc9c116w6f1M6sqmJ66zM2bk1RCOtaJq/BB+aoA/FQlmL4EoOcVjybQ6M8JZvvJXdCyS+Mo8RmlbaSbtE9XBDBv6quQ/BEk2s1aVyjzlFYj2vqdzGc2tlGS5l+dNJFMqWSUK6VNqFtcciKkH+kTu5shFnYpY6xdWxStGGFQW6h1WHot//HFtLwoQdRFeZ+80AfGu1J/GO/XmJLgG4+Xwi9FoOcVzZF5ZBy2ZYwlKmbhP9MTI8mMZiTVFF6JthFvMrkOsqh5bEuI6CqGUYrKR0xstII8TAkg05ACoVJIzW6q3FVLyU7qzadk2G4oQ3nzjOgS0UtNz3Q2y7No1w3+JpUmT9YQUqSS9n4JkbhJns/XaVTk5QfaR8c4GmpD5saKGN2j+/SHSkBOhhwpY751ndnJ5PWGJqCZjQNUPBZL3rNRPFvdqh91mMLrwlYQOaR0NC0spBdvnA258EYxeUbJ+IxiReTI469GVEgvKRGeqx1MBfomzWTpZmj2Nnmlzvv18gEZYPV26AXJctrMcibVVEZAtO2NbiXUG5EMOZ0//WzWnJJ3tHSOiW8/NITA9pVxpd1DqF2XaCDUzdsfVF/xn1GWNC7qWTJbR4oGBmw3OsOGPv0URBJlcmQ6KQ+L//QL/3S3ueFFGTNT7xKrpRnuctV0C89Ztv5cBaXtsTHNBElGgUpPM9PVu6RyS8a0UkFtqv3Zs+qTJuNIfjV5zqwvZltpyCEiw6lN5CibvjXJpekJEd/L4WNEaEjE+1Tk7oP/Tb7dldoKNd6vRzIycmontlm6PaaMUmqKRBNFAzrTJkT6btpUUJImI9W0F/rlEUoTrytKF2+ZLNOraZ3NftikpJwEI0BCer90jsld6+f7S5qJmZ18WR4ZZI1dm3MeMemo5vPU+yHlpDRJQ6OS9ajSNk692oz1Y8vKoJvfxV+st0ojnaqypCaXzyst5Wme1FV9Sa/tTtjFjDHZpJv5pMhTzk6byHiQbLr0uu7bVmOlzCYmFqsY5U+20HXzLls9T2aQ4GrWpmn43jBCpNx7/LO0m1PpeBJupbeJgVLB6gvmI0MrJcA7THmJ1ANOvytK1216cb6Y0nTdKk9zL/Njsv2lvE2oqY1Aq6ysWR8aiXbdSItn7kxrwCdeaoaGtTY/sOkb//TktPkOnYmi+tGoQyKlqvbi7gPdwMMsF9M5//Stj5Cm1M8P/ElGQDG7oL8pT+gJKXB96s066SYL+lVUS2m/KVmhn6Q31Z0f6ioU35qlX7zqGkPIOnW3hdT/1gmm6HslBdWW4YGe2eTGsBktmP6+XeCDxhnSP8PPPFcaKkofpCURZ4oGmjkr3kjlQ9zB33torx/6S8PQQ7xkckzPe9pM33SpG2pP9QopQhbUhSz0375KSZdNXMkzKW999tyb6of0mrqetVBKeaosukv17m4Lwwtp6WRoxH3GITVyJ5lOM98sBkpTqfRAteun8nxAv3Q/xI+UFumF9Hn93nNm5Lv7Z9FI6P7ogy3ptiXSWst5Ui9U+rzkV82jrkEFHsaxMDXWIQcqlXPznKlH38TTX0XPnm/d/EPLrev6VfRKdWDafhqeEkzW3QU2+Ui/8TOtu3oL0mtpOuqzS9Hzmd4p8G+a9W6FXcoYW1hYWFhY7I7ox42zsLCwsLCw+HfCGmMLCwsLC4sBhjXGFhYWFhYWAwxrjC0sLCwsLAYY1hhbWFhYWFgMMKwxtrCwsLCwGGBYY2xhYWFhYTHAsMbYwsLCwsJigGGNsYWFhYWFxQDDGmMLCwsLC4sBhjXGFhYWFhYWAwxrjC0sLCwsLAYY1hhbWFhYWFgMMKwxtrCwsLCwGGBYY2xhYWFhYTHAsMbYwsLCwsJigGGNsYWFhYWFxQDDGmMLCwsLC4sBhjXGFhYWFhYWAwxrjC0sLCwsLAYY1hhbWFhYWFgMMKwxtrCwsLCwGGBYY2xhYWFhYTHAsMbYwsLCwsJigGGNsYWFhYWFxQDDGmMLCwsLC4sBhjXGFhYWFhYWAwxrjC0sLCwsLAYY1hhbWFhYWFgMMKwxtrCwsLCwGGBYY2xhYWFhYTHAsMbYwsLCwsJigGGNsYWFhYWFxQDDGmMLCwsLC4sBhjXGFhYWFhYWAwrg/wPg436i+z2nhQAAAABJRU5ErkJggg==;" vertex="1" parent="7">
                    <mxGeometry x="430" y="200" width="373" height="233.99" as="geometry"/>
                </mxCell>
                <mxCell id="10" value="" style="endArrow=none;html=1;fontSize=32;" edge="1" parent="1">
                    <mxGeometry width="50" height="50" relative="1" as="geometry">
                        <mxPoint x="40" y="320" as="sourcePoint"/>
                        <mxPoint x="360" y="320" as="targetPoint"/>
                    </mxGeometry>
                </mxCell>
            </root>
        </mxGraphModel>
    </diagram>
</mxfile>